ply
format ascii 1.0
comment VCGLIB generated
comment TextureFile flame_flipcard01-1.jpg
element vertex 48
property float x
property float y
property float z
property float nx
property float ny
property float nz
property float texture_u
property float texture_v
element face 36
property list uchar int vertex_indices
end_header
0.4999998 0.08333352 -0.07216889 2.751293e-07 -0.8660251 -0.5000001 1 0.333333
0.1666666 0.08333339 -0.0721688 2.751293e-07 -0.8660251 -0.5000001 0.666667 0.333333
-0.1666667 0.08333325 -0.0721688 2.751293e-07 -0.8660251 -0.5000001 0.333333 0.333333
-0.4999999 0.08333312 -0.07216869 2.751293e-07 -0.8660251 -0.5000001 0 0.333333
0.4999998 0.08333352 -0.07216889 -2.751294e-07 0.8660252 0.5000001 1 0.666667
0.1666666 0.08333339 -0.0721688 -2.751294e-07 0.8660252 0.5000001 0.666667 0.666667
-0.1666667 0.08333325 -0.0721688 -2.751294e-07 0.8660252 0.5000001 0.333333 0.666667
-0.4999999 0.08333312 -0.07216869 -2.751294e-07 0.8660252 0.5000001 0 0.666667
0.5000001 -0.4999997 0.07216863 1.311343e-07 -1.490116e-07 1 1 0
0.1666668 -0.4999999 0.07216868 1.311343e-07 -1.490116e-07 1 0.666667 0
-0.1666665 -0.4999999 0.07216872 1.311343e-07 -1.490116e-07 1 0.333333 0
-0.4999999 -0.5000001 0.07216877 1.311343e-07 -1.490116e-07 1 0 0
0.5 -0.1666665 0.07216869 1.311343e-07 -1.490116e-07 1 1 0.333333
0.1666666 -0.1666667 0.07216873 1.311343e-07 -1.490116e-07 1 0.666667 0.333333
-0.1666667 -0.1666668 0.07216877 1.311343e-07 -1.490116e-07 1 0.333333 0.333333
-0.5000001 -0.1666669 0.07216882 1.311343e-07 -1.490116e-07 1 0 0.333333
0.4999999 0.1666669 0.0721687 1.311342e-07 -5.960458e-08 1 1 0.666667
0.1666666 0.1666667 0.07216875 1.311343e-07 -1.490116e-07 1 0.666667 0.666667
-0.1666668 0.1666666 0.07216879 1.311343e-07 -1.490116e-07 1 0.333333 0.666667
-0.5000001 0.1666665 0.07216883 1.311342e-07 -5.960458e-08 1 0 0.666667
0.4999998 0.5000001 0.07216875 1.311343e-07 -1.490116e-07 1 1 1
0.1666665 0.4999999 0.0721688 1.311343e-07 -1.490116e-07 1 0.666667 1
-0.166667 0.4999998 0.07216884 1.311343e-07 -1.490116e-07 1 0.333333 1
-0.5000001 0.4999997 0.07216889 1.311343e-07 -1.490116e-07 1 0 1
0.4999998 0.5000001 0.07216875 -1.311343e-07 1.490116e-07 -1 1 0
0.1666665 0.4999999 0.0721688 -1.311343e-07 1.490116e-07 -1 0.666667 0
-0.166667 0.4999998 0.07216884 -1.311343e-07 1.490116e-07 -1 0.333333 0
-0.5000001 0.4999997 0.07216889 -1.311343e-07 1.490116e-07 -1 0 0
0.4999999 0.1666669 0.0721687 -1.311342e-07 5.960458e-08 -1 1 0.333333
0.1666666 0.1666667 0.07216875 -1.311343e-07 1.490116e-07 -1 0.666667 0.333333
-0.1666668 0.1666666 0.07216879 -1.311343e-07 1.490116e-07 -1 0.333333 0.333333
-0.5000001 0.1666665 0.07216883 -1.311343e-07 1.490116e-07 -1 0 0.333333
0.5 -0.1666665 0.07216869 -1.311342e-07 5.960458e-08 -1 1 0.666667
0.1666666 -0.1666667 0.07216873 -1.311343e-07 1.490116e-07 -1 0.666667 0.666667
-0.1666667 -0.1666668 0.07216877 -1.311343e-07 1.490116e-07 -1 0.333333 0.666667
-0.5000001 -0.1666669 0.07216882 -1.311342e-07 5.960458e-08 -1 0 0.666667
0.5000001 -0.4999997 0.07216863 -1.311343e-07 1.490116e-07 -1 1 1
0.1666668 -0.4999999 0.07216868 -1.311343e-07 1.490116e-07 -1 0.666667 1
-0.1666665 -0.4999999 0.07216872 -1.311343e-07 1.490116e-07 -1 0.333333 1
-0.4999999 -0.5000001 0.07216877 -1.311343e-07 1.490116e-07 -1 0 1
0.4999999 -0.08333314 -0.07216889 -3.625521e-07 0.8660252 -0.4999999 1 0.666667
0.1666666 -0.08333327 -0.0721688 -3.625521e-07 0.8660252 -0.4999999 0.666667 0.666667
-0.1666667 -0.08333339 -0.0721688 -3.625521e-07 0.8660252 -0.4999999 0.333333 0.666667
-0.5000001 -0.08333351 -0.0721688 -3.625521e-07 0.8660252 -0.4999999 0 0.666667
0.4999999 -0.08333316 -0.07216889 3.625521e-07 -0.8660251 0.4999999 1 0.333333
0.1666666 -0.08333328 -0.0721688 3.625521e-07 -0.8660251 0.4999999 0.666667 0.333333
-0.1666667 -0.0833334 -0.0721688 3.625521e-07 -0.8660251 0.4999999 0.333333 0.333333
-0.5000001 -0.08333352 -0.0721688 3.625521e-07 -0.8660251 0.4999999 0 0.333333
3 13 9 8 
3 8 12 13 
3 14 10 9 
3 9 13 14 
3 15 11 10 
3 10 14 15 
3 17 13 12 
3 12 16 17 
3 18 14 13 
3 13 17 18 
3 19 15 14 
3 14 18 19 
3 21 17 16 
3 16 20 21 
3 22 18 17 
3 17 21 22 
3 23 19 18 
3 18 22 23 
3 29 25 24 
3 24 28 29 
3 30 26 25 
3 25 29 30 
3 31 27 26 
3 26 30 31 
3 33 29 28 
3 28 32 33 
3 34 30 29 
3 29 33 34 
3 35 31 30 
3 30 34 35 
3 37 33 32 
3 32 36 37 
3 38 34 33 
3 33 37 38 
3 39 35 34 
3 34 38 39 
