ply
format ascii 1.0
comment VCGLIB generated
element vertex 636
property float x
property float y
property float z
property float nx
property float ny
property float nz
element face 212
property list uchar int vertex_indices
end_header
75.545 -81.8253 -58.3959 0.116831 0.119699 0.985912 
52.688 50.2887 -71.7272 0.116831 0.119699 0.985912 
31.2937 -71.0811 -54.4565 0.116831 0.119699 0.985912 
75.545 -81.8253 -58.3959 0.954217 -0.246901 0.168847 
130.367 63.5718 -155.606 0.954217 -0.246901 0.168847 
123.444 79.4406 -93.276 0.954217 -0.246901 0.168847 
80.3784 -105.648 -116.807 0.60735 -0.343641 -0.716266 
81.2984 26.5265 -179.44 0.60735 -0.343641 -0.716266 
130.367 63.5718 -155.606 0.60735 -0.343641 -0.716266 
48.941 -102.956 -135.072 -0.592067 -0.124855 -0.796158 
12.4731 27.3185 -128.382 -0.592067 -0.124855 -0.796158 
81.2984 26.5265 -179.44 -0.592067 -0.124855 -0.796158 
31.2937 -71.0811 -54.4565 -0.853058 0.199184 0.482304 
12.4731 27.3185 -128.382 -0.853058 0.199184 0.482304 
1.22746 -76.37 -105.451 -0.853058 0.199184 0.482304 
75.545 -81.8253 -58.3959 -0.114094 -0.720646 0.683851 
31.2937 -71.0811 -54.4565 -0.114094 -0.720646 0.683851 
43.3807 -106.36 -89.6174 -0.114094 -0.720646 0.683851 
80.3784 -105.648 -116.807 0.297259 -0.875241 0.381563 
75.545 -81.8253 -58.3959 0.297259 -0.875241 0.381563 
43.3807 -106.36 -89.6174 0.297259 -0.875241 0.381563 
48.941 -102.956 -135.072 -0.039177 -0.996073 -0.079398 
80.3784 -105.648 -116.807 -0.039177 -0.996073 -0.079398 
43.3807 -106.36 -89.6174 -0.039177 -0.996073 -0.079398 
1.22746 -76.37 -105.451 -0.542398 -0.830231 -0.128533 
48.941 -102.956 -135.072 -0.542398 -0.830231 -0.128533 
43.3807 -106.36 -89.6174 -0.542398 -0.830231 -0.128533 
31.2937 -71.0811 -54.4565 -0.624703 -0.648111 0.435544 
1.22746 -76.37 -105.451 -0.624703 -0.648111 0.435544 
43.3807 -106.36 -89.6174 -0.624703 -0.648111 0.435544 
129.197 292.301 -178.206 0.662105 0.382291 0.644571 
141.583 188.144 -129.154 0.662105 0.382291 0.644571 
135.335 296.381 -186.93 0.662105 0.382291 0.644571 
141.583 188.144 -129.154 0.988313 0.086002 0.125862 
147.242 189.459 -174.495 0.988313 0.086002 0.125862 
140.579 284.167 -186.888 0.988313 0.086002 0.125862 
147.242 189.459 -174.495 0.577495 -0.065853 -0.813734 
108.532 191.566 -202.138 0.577495 -0.065853 -0.813734 
140.579 284.167 -186.888 0.577495 -0.065853 -0.813734 
108.532 191.566 -202.138 -0.592845 0.26208 -0.761478 
63.5615 196.989 -165.26 -0.592845 0.26208 -0.761478 
135.335 296.381 -186.93 -0.592845 0.26208 -0.761478 
63.5615 196.989 -165.26 -0.798855 0.505932 -0.325367 
129.197 292.301 -178.206 -0.798855 0.505932 -0.325367 
135.335 296.381 -186.93 -0.798855 0.505932 -0.325367 
123.444 79.4406 -93.276 0.178437 0.266952 0.947046 
84.763 202.727 -120.74 0.178437 0.266952 0.947046 
52.688 50.2887 -71.7272 0.178437 0.266952 0.947046 
130.367 63.5718 -155.606 0.983188 -0.118091 0.139271 
141.583 188.144 -129.154 0.983188 -0.118091 0.139271 
123.444 79.4406 -93.276 0.983188 -0.118091 0.139271 
130.367 63.5718 -155.606 0.562784 -0.195935 -0.803047 
108.532 191.566 -202.138 0.562784 -0.195935 -0.803047 
147.242 189.459 -174.495 0.562784 -0.195935 -0.803047 
81.2984 26.5265 -179.44 -0.634225 -0.001674 -0.773147 
63.5615 196.989 -165.26 -0.634225 -0.001674 -0.773147 
108.532 191.566 -202.138 -0.634225 -0.001674 -0.773147 
52.688 50.2887 -71.7272 -0.825657 0.345539 0.445974 
63.5615 196.989 -165.26 -0.825657 0.345539 0.445974 
12.4731 27.3185 -128.382 -0.825657 0.345539 0.445974 
140.579 284.167 -186.888 0.211101 0.08727 -0.973561 
108.532 191.566 -202.138 0.211101 0.08727 -0.973561 
135.335 296.381 -186.93 0.211101 0.08727 -0.973561 
141.583 188.144 -129.154 0.772071 0.33339 0.541071 
140.579 284.167 -186.888 0.772071 0.33339 0.541071 
135.335 296.381 -186.93 0.772071 0.33339 0.541071 
63.5615 196.989 -165.26 -0.768511 0.568985 0.292657 
84.763 202.727 -120.74 -0.768511 0.568985 0.292657 
129.197 292.301 -178.206 -0.768511 0.568985 0.292657 
84.763 202.727 -120.74 0.240466 0.436819 0.866813 
141.583 188.144 -129.154 0.240466 0.436819 0.866813 
129.197 292.301 -178.206 0.240466 0.436819 0.866813 
57.5559 101.225 76.7492 -0.634116 0.128552 0.762477 
61.1914 32.9825 91.2782 -0.634116 0.128552 0.762477 
113.63 24.035 136.397 -0.634116 0.128552 0.762477 
273.386 397.167 61.2142 0.992925 -0.091188 0.076052 
246.578 121.954 81.2316 0.992925 -0.091188 0.076052 
251.068 116.861 16.5033 0.992925 -0.091188 0.076052 
158.011 147.952 156.569 -0.657569 0.216392 0.721649 
166.66 420.275 82.7917 -0.657569 0.216392 0.721649 
61.123 116.223 77.7987 -0.657569 0.216392 0.721649 
113.63 24.035 136.397 -0.532957 -0.500753 0.682058 
62.3784 -24.5934 60.6476 -0.532957 -0.500753 0.682058 
153.949 -79.8517 91.6311 -0.532957 -0.500753 0.682058 
203.939 -84.3789 30.5105 0.626552 -0.549083 0.55312 
200.539 8.42081 126.485 0.626552 -0.549083 0.55312 
153.949 -79.8517 91.6311 0.626552 -0.549083 0.55312 
153.949 -79.8517 91.6311 -0.478449 -0.280178 0.832218 
114.337 -114 57.361 -0.478449 -0.280178 0.832218 
144.554 -112.663 75.1833 -0.478449 -0.280178 0.832218 
159.708 -93.851 -3.10197 -0.679021 -0.371332 -0.633279 
114.337 -114 57.361 -0.679021 -0.371332 -0.633279 
62.3784 -24.5934 60.6476 -0.679021 -0.371332 -0.633279 
203.939 -84.3789 30.5105 0.623178 -0.669243 0.404675 
144.554 -112.663 75.1833 0.623178 -0.669243 0.404675 
154.717 -123.721 41.2456 0.623178 -0.669243 0.404675 
273.386 397.167 61.2142 0.572247 0.428208 -0.699407 
227.892 452.684 57.9806 0.572247 0.428208 -0.699407 
233.428 466.208 70.7905 0.572247 0.428208 -0.699407 
227.278 397.489 20.0891 -0.182179 0.55788 -0.809679 
191.424 406.231 34.1794 -0.182179 0.55788 -0.809679 
227.892 452.684 57.9806 -0.182179 0.55788 -0.809679 
166.66 420.275 82.7917 -0.488768 0.800874 0.345986 
235.163 450.808 108.888 -0.488768 0.800874 0.345986 
233.428 466.208 70.7905 -0.488768 0.800874 0.345986 
235.163 450.808 108.888 0.864266 0.478821 0.15419 
273.386 397.167 61.2142 0.864266 0.478821 0.15419 
233.428 466.208 70.7905 0.864266 0.478821 0.15419 
187.083 100.997 -34.97 -0.333442 0.118627 -0.935278 
171.9 21.6893 -39.6161 -0.333442 0.118627 -0.935278 
110.286 102.942 -7.34394 -0.333442 0.118627 -0.935278 
169.234 216.308 -25.9252 -0.337932 0.021498 -0.940925 
187.083 100.997 -34.97 -0.337932 0.021498 -0.940925 
110.286 102.942 -7.34394 -0.337932 0.021498 -0.940925 
219.929 123.719 133.814 0.785892 0.010515 0.618275 
273.386 397.167 61.2142 0.785892 0.010515 0.618275 
235.163 450.808 108.888 0.785892 0.010515 0.618275 
200.539 8.42081 126.485 0.875693 -0.175862 0.449704 
246.578 121.954 81.2316 0.875693 -0.175862 0.449704 
219.929 123.719 133.814 0.875693 -0.175862 0.449704 
251.068 116.861 16.5033 0.970261 0.237121 0.048644 
246.578 121.954 81.2316 0.970261 0.237121 0.048644 
265.741 54.1383 29.5862 0.970261 0.237121 0.048644 
159.708 -93.851 -3.10197 0.247156 -0.816333 -0.522029 
154.717 -123.721 41.2456 0.247156 -0.816333 -0.522029 
142.456 -123.218 34.6534 0.247156 -0.816333 -0.522029 
158.011 147.952 156.569 0.362983 0.053983 0.930231 
219.929 123.719 133.814 0.362983 0.053983 0.930231 
235.163 450.808 108.888 0.362983 0.053983 0.930231 
113.63 24.035 136.397 0.249799 -0.242085 0.937547 
219.929 123.719 133.814 0.249799 -0.242085 0.937547 
158.011 147.952 156.569 0.249799 -0.242085 0.937547 
153.949 -79.8517 91.6311 0.036342 -0.383543 0.922808 
200.539 8.42081 126.485 0.036342 -0.383543 0.922808 
113.63 24.035 136.397 0.036342 -0.383543 0.922808 
61.1914 32.9825 91.2782 -0.998303 -0.045424 0.036445 
57.5559 101.225 76.7492 -0.998303 -0.045424 0.036445 
59.3849 37.4849 47.405 -0.998303 -0.045424 0.036445 
62.3784 -24.5934 60.6476 -0.998505 -0.04026 0.036983 
61.1914 32.9825 91.2782 -0.998505 -0.04026 0.036983 
59.3849 37.4849 47.405 -0.998505 -0.04026 0.036983 
169.234 216.308 -25.9252 -0.278198 0.319202 -0.905934 
191.424 406.231 34.1794 -0.278198 0.319202 -0.905934 
227.278 397.489 20.0891 -0.278198 0.319202 -0.905934 
227.892 452.684 57.9806 -0.554335 0.680627 -0.47902 
166.66 420.275 82.7917 -0.554335 0.680627 -0.47902 
233.428 466.208 70.7905 -0.554335 0.680627 -0.47902 
62.3784 -24.5934 60.6476 -0.623573 -0.174992 -0.761928 
171.9 21.6893 -39.6161 -0.623573 -0.174992 -0.761928 
159.708 -93.851 -3.10197 -0.623573 -0.174992 -0.761928 
110.286 102.942 -7.34394 -0.82615 0.23241 -0.513285 
57.5559 101.225 76.7492 -0.82615 0.23241 -0.513285 
61.123 116.223 77.7987 -0.82615 0.23241 -0.513285 
61.123 116.223 77.7987 -0.78727 0.282264 -0.548209 
166.66 420.275 82.7917 -0.78727 0.282264 -0.548209 
169.234 216.308 -25.9252 -0.78727 0.282264 -0.548209 
251.068 116.861 16.5033 0.542463 0.090036 -0.835241 
169.234 216.308 -25.9252 0.542463 0.090036 -0.835241 
273.386 397.167 61.2142 0.542463 0.090036 -0.835241 
265.741 54.1383 29.5862 0.628992 -0.014985 -0.777267 
187.083 100.997 -34.97 0.628992 -0.014985 -0.777267 
251.068 116.861 16.5033 0.628992 -0.014985 -0.777267 
110.286 102.942 -7.34394 -0.617825 -0.162969 -0.769242 
171.9 21.6893 -39.6161 -0.617825 -0.162969 -0.769242 
59.3849 37.4849 47.405 -0.617825 -0.162969 -0.769242 
265.741 54.1383 29.5862 0.841714 -0.372941 0.390427 
200.539 8.42081 126.485 0.841714 -0.372941 0.390427 
203.939 -84.3789 30.5105 0.841714 -0.372941 0.390427 
171.9 21.6893 -39.6161 0.617336 -0.29555 -0.729073 
203.939 -84.3789 30.5105 0.617336 -0.29555 -0.729073 
159.708 -93.851 -3.10197 0.617336 -0.29555 -0.729073 
144.554 -112.663 75.1833 -0.176962 -0.950179 0.256602 
142.456 -123.218 34.6534 -0.176962 -0.950179 0.256602 
154.717 -123.721 41.2456 -0.176962 -0.950179 0.256602 
-41.8396 293.693 126.857 0.269893 0.17396 0.947046 
-86.088 499.78 101.612 0.269893 0.17396 0.947046 
-81.0573 277.614 140.987 0.269893 0.17396 0.947046 
11.9177 237.464 89.8112 0.936721 0.086083 0.339328 
7.50615 545.543 23.8338 0.936721 0.086083 0.339328 
-25.5915 562.528 110.892 0.936721 0.086083 0.339328 
11.9177 237.464 89.8112 0.577011 0.013623 0.816623 
-25.5915 562.528 110.892 0.577011 0.013623 0.816623 
-41.8396 293.693 126.857 0.577011 0.013623 0.816623 
-136.218 252.769 45.6928 -0.995842 0.036128 -0.083628 
-135.43 182.48 5.93996 -0.995842 0.036128 -0.083628 
-141.476 131.454 55.8919 -0.995842 0.036128 -0.083628 
7.50615 545.543 23.8338 0.256837 0.201028 -0.945316 
8.94276 283.356 -31.5317 0.256837 0.201028 -0.945316 
-59.6948 541.954 4.81259 0.256837 0.201028 -0.945316 
-59.6948 541.954 4.81259 0.197174 0.56275 -0.802767 
-36.8593 616.53 62.6996 0.197174 0.56275 -0.802767 
7.50615 545.543 23.8338 0.197174 0.56275 -0.802767 
7.50615 545.543 23.8338 0.827124 0.520101 0.212982 
-37.4902 595.637 76.2477 0.827124 0.520101 0.212982 
-25.5915 562.528 110.892 0.827124 0.520101 0.212982 
-101.665 513.278 61.5223 -0.845994 0.31069 0.43332 
-117.732 468.994 61.9045 -0.845994 0.31069 0.43332 
-86.088 499.78 101.612 -0.845994 0.31069 0.43332 
8.94276 283.356 -31.5317 0.019062 0.14411 -0.989378 
-77.2571 316.701 -28.3357 0.019062 0.14411 -0.989378 
-59.6948 541.954 4.81259 0.019062 0.14411 -0.989378 
-1.3999 56.8315 -55.2228 -0.362274 -0.141255 -0.921306 
-63.9568 16.1773 -24.3912 -0.362274 -0.141255 -0.921306 
-118.376 175.268 -27.3843 -0.362274 -0.141255 -0.921306 
-49.0965 621.642 60.9733 -0.840932 0.355067 -0.408364 
-79.0543 569.926 77.6973 -0.840932 0.355067 -0.408364 
-52.2664 619.802 65.9006 -0.840932 0.355067 -0.408364 
-79.0543 569.926 77.6973 -0.814928 0.434718 -0.383292 
-59.6948 541.954 4.81259 -0.814928 0.434718 -0.383292 
-101.665 513.278 61.5223 -0.814928 0.434718 -0.383292 
-101.665 513.278 61.5223 -0.833129 0.298262 -0.465764 
-59.6948 541.954 4.81259 -0.833129 0.298262 -0.465764 
-117.732 468.994 61.9045 -0.833129 0.298262 -0.465764 
-117.732 468.994 61.9045 -0.822213 0.112133 -0.558025 
-77.2571 316.701 -28.3357 -0.822213 0.112133 -0.558025 
-136.218 252.769 45.6928 -0.822213 0.112133 -0.558025 
-136.218 252.769 45.6928 -0.834114 0.264421 -0.484081 
-118.376 175.268 -27.3843 -0.834114 0.264421 -0.484081 
-135.43 182.48 5.93996 -0.834114 0.264421 -0.484081 
-118.376 175.268 -27.3843 0.044995 0.270482 -0.961673 
28.3044 145.535 -28.8841 0.044995 0.270482 -0.961673 
-1.3999 56.8315 -55.2228 0.044995 0.270482 -0.961673 
-36.8593 616.53 62.6996 0.277971 0.516722 0.809772 
-52.2664 619.802 65.9006 0.277971 0.516722 0.809772 
-37.4902 595.637 76.2477 0.277971 0.516722 0.809772 
-118.376 175.268 -27.3843 -0.017577 -0.036309 -0.999186 
30.6031 188.456 -30.4842 -0.017577 -0.036309 -0.999186 
28.3044 145.535 -28.8841 -0.017577 -0.036309 -0.999186 
8.94276 283.356 -31.5317 -0.045295 -0.021362 -0.998745 
30.6031 188.456 -30.4842 -0.045295 -0.021362 -0.998745 
-77.2571 316.701 -28.3357 -0.045295 -0.021362 -0.998745 
-37.4902 595.637 76.2477 -0.354142 0.612335 0.706844 
-79.0543 569.926 77.6973 -0.354142 0.612335 0.706844 
-25.5915 562.528 110.892 -0.354142 0.612335 0.706844 
-25.5915 562.528 110.892 -0.223 0.071215 0.972214 
-86.088 499.78 101.612 -0.223 0.071215 0.972214 
-41.8396 293.693 126.857 -0.223 0.071215 0.972214 
8.94276 283.356 -31.5317 0.882715 0.196763 -0.42673 
65.6576 230.098 61.2293 0.882715 0.196763 -0.42673 
30.6031 188.456 -30.4842 0.882715 0.196763 -0.42673 
65.6576 230.098 61.2293 0.880338 0.203066 -0.428683 
71.6892 148.223 34.8315 0.880338 0.203066 -0.428683 
30.6031 188.456 -30.4842 0.880338 0.203066 -0.428683 
11.9177 237.464 89.8112 0.529333 0.126465 0.838936 
-62.6869 47.5375 165.514 0.529333 0.126465 0.838936 
-10.0379 -25.3766 143.286 0.529333 0.126465 0.838936 
-67.5488 72.4709 165.775 0.287022 0.133521 0.948573 
-41.8396 293.693 126.857 0.287022 0.133521 0.948573 
-81.0573 277.614 140.987 0.287022 0.133521 0.948573 
-108.637 27.544 113.535 -0.957739 -0.209326 0.197276 
-99.781 -25.8179 99.9092 -0.957739 -0.209326 0.197276 
-97.5045 -25.3741 111.432 -0.957739 -0.209326 0.197276 
-101.665 513.278 61.5223 -0.878163 0.230888 0.418951 
-86.088 499.78 101.612 -0.878163 0.230888 0.418951 
-79.0543 569.926 77.6973 -0.878163 0.230888 0.418951 
-81.0573 277.614 140.987 -0.869048 0.037311 0.493319 
-117.732 468.994 61.9045 -0.869048 0.037311 0.493319 
-136.218 252.769 45.6928 -0.869048 0.037311 0.493319 
-81.0573 277.614 140.987 -0.826218 0.013647 0.563184 
-141.476 131.454 55.8919 -0.826218 0.013647 0.563184 
-67.5488 72.4709 165.775 -0.826218 0.013647 0.563184 
-141.476 131.454 55.8919 -0.811109 0.066057 0.581152 
-108.637 27.544 113.535 -0.811109 0.066057 0.581152 
-67.5488 72.4709 165.775 -0.811109 0.066057 0.581152 
-108.637 27.544 113.535 -0.712604 -0.146149 0.686175 
-62.6869 47.5375 165.514 -0.712604 -0.146149 0.686175 
-67.5488 72.4709 165.775 -0.712604 -0.146149 0.686175 
-99.781 -25.8179 99.9092 -0.833004 -0.521542 0.184659 
-60.2634 -83.4523 115.395 -0.833004 -0.521542 0.184659 
-97.5045 -25.3741 111.432 -0.833004 -0.521542 0.184659 
-0.834572 -127.545 58.725 -0.506337 -0.861629 0.034889 
-69.3886 -86.337 81.4971 -0.506337 -0.861629 0.034889 
-18.2398 -118.503 29.4257 -0.506337 -0.861629 0.034889 
-18.2398 -118.503 29.4257 -0.760597 -0.446509 -0.471298 
-69.3886 -86.337 81.4971 -0.760597 -0.446509 -0.471298 
-63.9568 16.1773 -24.3912 -0.760597 -0.446509 -0.471298 
-63.9568 16.1773 -24.3912 -0.760604 -0.51627 -0.393634 
-99.781 -25.8179 99.9092 -0.760604 -0.51627 -0.393634 
-125.101 54.3832 43.6457 -0.760604 -0.51627 -0.393634 
-118.376 175.268 -27.3843 -0.889738 -0.193447 -0.413455 
-125.101 54.3832 43.6457 -0.889738 -0.193447 -0.413455 
-135.43 182.48 5.93996 -0.889738 -0.193447 -0.413455 
-125.101 54.3832 43.6457 -0.948202 -0.15764 -0.275794 
-141.476 131.454 55.8919 -0.948202 -0.15764 -0.275794 
-135.43 182.48 5.93996 -0.948202 -0.15764 -0.275794 
-10.0379 -25.3766 143.286 -0.301925 -0.470735 0.829006 
-62.6869 47.5375 165.514 -0.301925 -0.470735 0.829006 
-97.5045 -25.3741 111.432 -0.301925 -0.470735 0.829006 
5.25268 -103.108 17.3233 0.673576 -0.491892 -0.551668 
15.4586 -58.5652 -9.93196 0.673576 -0.491892 -0.551668 
42.0555 -67.9985 30.9535 0.673576 -0.491892 -0.551668 
-69.3886 -86.337 81.4971 -0.477636 -0.855173 0.201354 
-24.681 -101.783 121.949 -0.477636 -0.855173 0.201354 
-60.2634 -83.4523 115.395 -0.477636 -0.855173 0.201354 
21.4082 -82.5283 63.3291 0.668435 -0.737647 0.095242 
5.25268 -103.108 17.3233 0.668435 -0.737647 0.095242 
42.0555 -67.9985 30.9535 0.668435 -0.737647 0.095242 
-63.9568 16.1773 -24.3912 -0.19605 -0.382944 -0.902728 
-1.3999 56.8315 -55.2228 -0.19605 -0.382944 -0.902728 
15.4586 -58.5652 -9.93196 -0.19605 -0.382944 -0.902728 
-18.2398 -118.503 29.4257 0.156294 -0.913815 -0.374853 
1.8729 -112.531 23.2531 0.156294 -0.913815 -0.374853 
-0.834572 -127.545 58.725 0.156294 -0.913815 -0.374853 
-10.0379 -25.3766 143.286 -0.36231 -0.129922 0.922958 
-60.2634 -83.4523 115.395 -0.36231 -0.129922 0.922958 
-12.8017 -74.2243 135.325 -0.36231 -0.129922 0.922958 
-60.2634 -83.4523 115.395 -0.319537 -0.298722 0.899256 
-24.681 -101.783 121.949 -0.319537 -0.298722 0.899256 
-12.8017 -74.2243 135.325 -0.319537 -0.298722 0.899256 
21.4082 -82.5283 63.3291 0.887418 -0.447265 -0.111552 
7.02777 -113.707 73.9404 0.887418 -0.447265 -0.111552 
5.25268 -103.108 17.3233 0.887418 -0.447265 -0.111552 
1.8729 -112.531 23.2531 0.908876 -0.404448 -0.101815 
7.02777 -113.707 73.9404 0.908876 -0.404448 -0.101815 
-0.834572 -127.545 58.725 0.908876 -0.404448 -0.101815 
-10.5395 -94.8744 119.17 0.863375 -0.24882 0.438944 
21.4082 -82.5283 63.3291 0.863375 -0.24882 0.438944 
-12.8017 -74.2243 135.325 0.863375 -0.24882 0.438944 
11.9177 237.464 89.8112 0.479688 0.136279 0.866792 
-10.0379 -25.3766 143.286 0.479688 0.136279 0.866792 
65.6576 230.098 61.2293 0.479688 0.136279 0.866792 
71.6892 148.223 34.8315 0.880085 -0.128815 0.457008 
-10.0379 -25.3766 143.286 0.880085 -0.128815 0.457008 
42.0555 -67.9985 30.9535 0.880085 -0.128815 0.457008 
21.4082 -82.5283 63.3291 0.890992 -0.121699 0.437404 
-10.0379 -25.3766 143.286 0.890992 -0.121699 0.437404 
-12.8017 -74.2243 135.325 0.890992 -0.121699 0.437404 
-12.8017 -74.2243 135.325 0.406833 -0.534816 0.74058 
-24.681 -101.783 121.949 0.406833 -0.534816 0.74058 
-10.5395 -94.8744 119.17 0.406833 -0.534816 0.74058 
7.02777 -113.707 73.9404 0.430849 -0.767219 0.475125 
-24.681 -101.783 121.949 0.430849 -0.767219 0.475125 
-0.834572 -127.545 58.725 0.430849 -0.767219 0.475125 
30.6031 188.456 -30.4842 0.826096 -0.065112 -0.559755 
71.6892 148.223 34.8315 0.826096 -0.065112 -0.559755 
28.3044 145.535 -28.8841 0.826096 -0.065112 -0.559755 
-1.3999 56.8315 -55.2228 0.823548 -0.098909 -0.558557 
42.0555 -67.9985 30.9535 0.823548 -0.098909 -0.558557 
15.4586 -58.5652 -9.93196 0.823548 -0.098909 -0.558557 
-18.2398 -118.503 29.4257 -0.11539 -0.499075 -0.858842 
5.25268 -103.108 17.3233 -0.11539 -0.499075 -0.858842 
1.8729 -112.531 23.2531 -0.11539 -0.499075 -0.858842 
15.4586 -58.5652 -9.93196 -0.274378 -0.45538 -0.846963 
5.25268 -103.108 17.3233 -0.274378 -0.45538 -0.846963 
-63.9568 16.1773 -24.3912 -0.274378 -0.45538 -0.846963 
-1.3999 56.8315 -55.2228 0.823662 -0.110676 -0.556175 
28.3044 145.535 -28.8841 0.823662 -0.110676 -0.556175 
71.6892 148.223 34.8315 0.823662 -0.110676 -0.556175 
-152.957 -105.981 89.335 0.993518 -0.031529 -0.109219 
-146.789 19.6236 109.183 0.993518 -0.031529 -0.109219 
-146.137 -81.819 144.402 0.993518 -0.031529 -0.109219 
-152.957 -105.981 89.335 0.145248 -0.464526 -0.873567 
-253.387 7.53609 12.2731 0.145248 -0.464526 -0.873567 
-169.281 22.6114 18.241 0.145248 -0.464526 -0.873567 
-233.39 -127.537 86.4706 -0.743947 -0.402963 -0.53307 
-291.386 -8.68563 77.5671 -0.743947 -0.402963 -0.53307 
-253.387 7.53609 12.2731 -0.743947 -0.402963 -0.53307 
-256.904 -114.315 126.503 -0.792998 0.023162 0.608784 
-225.026 13.7261 163.155 -0.792998 0.023162 0.608784 
-291.386 -8.68563 77.5671 -0.792998 0.023162 0.608784 
-146.137 -81.819 144.402 0.507414 0.25757 0.822307 
-225.026 13.7261 163.155 0.507414 0.25757 0.822307 
-213.765 -75.4485 184.138 0.507414 0.25757 0.822307 
-152.957 -105.981 89.335 0.479577 -0.823863 0.302087 
-146.137 -81.819 144.402 0.479577 -0.823863 0.302087 
-198.256 -116.498 132.567 0.479577 -0.823863 0.302087 
-233.39 -127.537 86.4706 0.257551 -0.965632 0.034954 
-152.957 -105.981 89.335 0.257551 -0.965632 0.034954 
-198.256 -116.498 132.567 0.257551 -0.965632 0.034954 
-256.904 -114.315 126.503 -0.064484 -0.958232 0.278628 
-233.39 -127.537 86.4706 -0.064484 -0.958232 0.278628 
-198.256 -116.498 132.567 -0.064484 -0.958232 0.278628 
-213.765 -75.4485 184.138 -0.091858 -0.792368 0.603087 
-256.904 -114.315 126.503 -0.091858 -0.792368 0.603087 
-198.256 -116.498 132.567 -0.091858 -0.792368 0.603087 
-146.137 -81.819 144.402 0.314909 -0.694183 0.647258 
-213.765 -75.4485 184.138 0.314909 -0.694183 0.647258 
-198.256 -116.498 132.567 0.314909 -0.694183 0.647258 
-241.87 212.251 -1.92042 0.593565 0.345663 -0.726773 
-196.491 114.252 -11.4682 0.593565 0.345663 -0.726773 
-252.484 214.042 -9.73704 0.593565 0.345663 -0.726773 
-196.491 114.252 -11.4682 0.102211 0.02214 -0.994516 
-255.365 114.538 -17.5126 0.102211 0.02214 -0.994516 
-254.59 201.418 -15.4987 0.102211 0.02214 -0.994516 
-255.365 114.538 -17.5126 -0.806411 0.020898 -0.590986 
-291.257 129.855 32.0037 -0.806411 0.020898 -0.590986 
-254.59 201.418 -15.4987 -0.806411 0.020898 -0.590986 
-291.257 129.855 32.0037 -0.712365 0.546434 0.440393 
-242.43 148.795 87.4841 -0.712365 0.546434 0.440393 
-252.484 214.042 -9.73704 -0.712365 0.546434 0.440393 
-242.43 148.795 87.4841 -0.276371 0.784529 0.555098 
-241.87 212.251 -1.92042 -0.276371 0.784529 0.555098 
-252.484 214.042 -9.73704 -0.276371 0.784529 0.555098 
-169.281 22.6114 18.241 0.955518 0.184295 -0.23026 
-183.216 145.905 59.0943 0.955518 0.184295 -0.23026 
-146.789 19.6236 109.183 0.955518 0.184295 -0.23026 
-253.387 7.53609 12.2731 0.116955 -0.27468 -0.954396 
-196.491 114.252 -11.4682 0.116955 -0.27468 -0.954396 
-169.281 22.6114 18.241 0.116955 -0.27468 -0.954396 
-253.387 7.53609 12.2731 -0.822129 -0.166725 -0.54434 
-291.257 129.855 32.0037 -0.822129 -0.166725 -0.54434 
-255.365 114.538 -17.5126 -0.822129 -0.166725 -0.54434 
-291.386 -8.68563 77.5671 -0.768379 0.200594 0.607747 
-242.43 148.795 87.4841 -0.768379 0.200594 0.607747 
-291.257 129.855 32.0037 -0.768379 0.200594 0.607747 
-146.789 19.6236 109.183 0.474821 0.475926 0.740297 
-242.43 148.795 87.4841 0.474821 0.475926 0.740297 
-225.026 13.7261 163.155 0.474821 0.475926 0.740297 
-254.59 201.418 -15.4987 -0.916776 0.281979 -0.282861 
-291.257 129.855 32.0037 -0.916776 0.281979 -0.282861 
-252.484 214.042 -9.73704 -0.916776 0.281979 -0.282861 
-196.491 114.252 -11.4682 0.494069 0.291437 -0.819122 
-254.59 201.418 -15.4987 0.494069 0.291437 -0.819122 
-252.484 214.042 -9.73704 0.494069 0.291437 -0.819122 
-242.43 148.795 87.4841 0.302945 0.776256 0.552857 
-183.216 145.905 59.0943 0.302945 0.776256 0.552857 
-241.87 212.251 -1.92042 0.302945 0.776256 0.552857 
-183.216 145.905 59.0943 0.837782 0.421729 -0.346793 
-196.491 114.252 -11.4682 0.837782 0.421729 -0.346793 
-241.87 212.251 -1.92042 0.837782 0.421729 -0.346793 
75.545 -81.8253 -58.3959 0.236122 0.137913 0.961887 
123.444 79.4406 -93.276 0.236122 0.137913 0.961887 
52.688 50.2887 -71.7272 0.236122 0.137913 0.961887 
75.545 -81.8253 -58.3959 0.954137 -0.241202 0.177326 
80.3784 -105.648 -116.807 0.954137 -0.241202 0.177326 
130.367 63.5718 -155.606 0.954137 -0.241202 0.177326 
80.3784 -105.648 -116.807 0.438092 -0.387429 -0.811157 
48.941 -102.956 -135.072 0.438092 -0.387429 -0.811157 
81.2984 26.5265 -179.44 0.438092 -0.387429 -0.811157 
48.941 -102.956 -135.072 -0.570355 -0.117917 -0.81289 
1.22746 -76.37 -105.451 -0.570355 -0.117917 -0.81289 
12.4731 27.3185 -128.382 -0.570355 -0.117917 -0.81289 
31.2937 -71.0811 -54.4565 -0.835372 0.218998 0.504175 
52.688 50.2887 -71.7272 -0.835372 0.218998 0.504175 
12.4731 27.3185 -128.382 -0.835372 0.218998 0.504175 
123.444 79.4406 -93.276 0.209479 0.274769 0.938414 
141.583 188.144 -129.154 0.209479 0.274769 0.938414 
84.763 202.727 -120.74 0.209479 0.274769 0.938414 
130.367 63.5718 -155.606 0.986206 -0.114227 0.119792 
147.242 189.459 -174.495 0.986206 -0.114227 0.119792 
141.583 188.144 -129.154 0.986206 -0.114227 0.119792 
130.367 63.5718 -155.606 0.547079 -0.201994 -0.812344 
81.2984 26.5265 -179.44 0.547079 -0.201994 -0.812344 
108.532 191.566 -202.138 0.547079 -0.201994 -0.812344 
81.2984 26.5265 -179.44 -0.59576 0.004824 -0.803148 
12.4731 27.3185 -128.382 -0.59576 0.004824 -0.803148 
63.5615 196.989 -165.26 -0.59576 0.004824 -0.803148 
52.688 50.2887 -71.7272 -0.874433 0.305236 0.377091 
84.763 202.727 -120.74 -0.874433 0.305236 0.377091 
63.5615 196.989 -165.26 -0.874433 0.305236 0.377091 
113.63 24.035 136.397 -0.648389 0.109583 0.753381 
158.011 147.952 156.569 -0.648389 0.109583 0.753381 
61.123 116.223 77.7987 -0.648389 0.109583 0.753381 
61.123 116.223 77.7987 -0.654535 0.103263 0.748946 
57.5559 101.225 76.7492 -0.654535 0.103263 0.748946 
113.63 24.035 136.397 -0.654535 0.103263 0.748946 
158.011 147.952 156.569 -0.439401 0.24787 0.863416 
235.163 450.808 108.888 -0.439401 0.24787 0.863416 
166.66 420.275 82.7917 -0.439401 0.24787 0.863416 
113.63 24.035 136.397 -0.641301 -0.370639 0.671833 
61.1914 32.9825 91.2782 -0.641301 -0.370639 0.671833 
62.3784 -24.5934 60.6476 -0.641301 -0.370639 0.671833 
153.949 -79.8517 91.6311 -0.463119 -0.2998 0.834051 
62.3784 -24.5934 60.6476 -0.463119 -0.2998 0.834051 
114.337 -114 57.361 -0.463119 -0.2998 0.834051 
159.708 -93.851 -3.10197 -0.648572 -0.428106 -0.629349 
142.456 -123.218 34.6534 -0.648572 -0.428106 -0.629349 
114.337 -114 57.361 -0.648572 -0.428106 -0.629349 
203.939 -84.3789 30.5105 0.661918 -0.478676 0.57683 
153.949 -79.8517 91.6311 0.661918 -0.478676 0.57683 
144.554 -112.663 75.1833 0.661918 -0.478676 0.57683 
273.386 397.167 61.2142 0.596219 0.44986 -0.664942 
227.278 397.489 20.0891 0.596219 0.44986 -0.664942 
227.892 452.684 57.9806 0.596219 0.44986 -0.664942 
219.929 123.719 133.814 0.889969 -0.053753 0.452842 
246.578 121.954 81.2316 0.889969 -0.053753 0.452842 
273.386 397.167 61.2142 0.889969 -0.053753 0.452842 
200.539 8.42081 126.485 0.851142 -0.143938 0.504817 
265.741 54.1383 29.5862 0.851142 -0.143938 0.504817 
246.578 121.954 81.2316 0.851142 -0.143938 0.504817 
159.708 -93.851 -3.10197 0.497773 -0.744271 -0.445288 
203.939 -84.3789 30.5105 0.497773 -0.744271 -0.445288 
154.717 -123.721 41.2456 0.497773 -0.744271 -0.445288 
113.63 24.035 136.397 0.098817 -0.079674 0.991911 
200.539 8.42081 126.485 0.098817 -0.079674 0.991911 
219.929 123.719 133.814 0.098817 -0.079674 0.991911 
227.892 452.684 57.9806 -0.554335 0.680624 -0.479024 
191.424 406.231 34.1794 -0.554335 0.680624 -0.479024 
166.66 420.275 82.7917 -0.554335 0.680624 -0.479024 
62.3784 -24.5934 60.6476 -0.617114 -0.192513 -0.762961 
59.3849 37.4849 47.405 -0.617114 -0.192513 -0.762961 
171.9 21.6893 -39.6161 -0.617114 -0.192513 -0.762961 
110.286 102.942 -7.34394 -0.829611 0.213673 -0.515838 
59.3849 37.4849 47.405 -0.829611 0.213673 -0.515838 
57.5559 101.225 76.7492 -0.829611 0.213673 -0.515838 
191.424 406.231 34.1794 -0.830153 0.25405 -0.49629 
169.234 216.308 -25.9252 -0.830153 0.25405 -0.49629 
166.66 420.275 82.7917 -0.830153 0.25405 -0.49629 
110.286 102.942 -7.34394 -0.794474 0.329499 -0.510139 
61.123 116.223 77.7987 -0.794474 0.329499 -0.510139 
169.234 216.308 -25.9252 -0.794474 0.329499 -0.510139 
227.278 397.489 20.0891 0.665349 -0.023652 -0.746157 
273.386 397.167 61.2142 0.665349 -0.023652 -0.746157 
169.234 216.308 -25.9252 0.665349 -0.023652 -0.746157 
251.068 116.861 16.5033 0.595859 0.154055 -0.788175 
187.083 100.997 -34.97 0.595859 0.154055 -0.788175 
169.234 216.308 -25.9252 0.595859 0.154055 -0.788175 
265.741 54.1383 29.5862 0.607617 -0.06998 -0.791141 
171.9 21.6893 -39.6161 0.607617 -0.06998 -0.791141 
187.083 100.997 -34.97 0.607617 -0.06998 -0.791141 
171.9 21.6893 -39.6161 0.630822 -0.286265 -0.721191 
265.741 54.1383 29.5862 0.630822 -0.286265 -0.721191 
203.939 -84.3789 30.5105 0.630822 -0.286265 -0.721191 
144.554 -112.663 75.1833 -0.108373 -0.960642 0.255776 
114.337 -114 57.361 -0.108373 -0.960642 0.255776 
142.456 -123.218 34.6534 -0.108373 -0.960642 0.255776 
11.9177 237.464 89.8112 0.481195 0.190154 0.855741 
65.6576 230.098 61.2293 0.481195 0.190154 0.855741 
7.50615 545.543 23.8338 0.481195 0.190154 0.855741 
-59.6948 541.954 4.81259 0.32694 0.514974 -0.792409 
-49.0965 621.642 60.9733 0.32694 0.514974 -0.792409 
-36.8593 616.53 62.6996 0.32694 0.514974 -0.792409 
7.50615 545.543 23.8338 0.843421 0.274151 0.462041 
-36.8593 616.53 62.6996 0.843421 0.274151 0.462041 
-37.4902 595.637 76.2477 0.843421 0.274151 0.462041 
-49.0965 621.642 60.9733 -0.850936 0.373478 -0.369354 
-59.6948 541.954 4.81259 -0.850936 0.373478 -0.369354 
-79.0543 569.926 77.6973 -0.850936 0.373478 -0.369354 
-117.732 468.994 61.9045 -0.7827 0.14992 -0.604073 
-59.6948 541.954 4.81259 -0.7827 0.14992 -0.604073 
-77.2571 316.701 -28.3357 -0.7827 0.14992 -0.604073 
-136.218 252.769 45.6928 -0.850233 0.244052 -0.466415 
-77.2571 316.701 -28.3357 -0.850233 0.244052 -0.466415 
-118.376 175.268 -27.3843 -0.850233 0.244052 -0.466415 
-36.8593 616.53 62.6996 0.277124 0.82793 0.48758 
-49.0965 621.642 60.9733 0.277124 0.82793 0.48758 
-52.2664 619.802 65.9006 0.277124 0.82793 0.48758 
-118.376 175.268 -27.3843 -0.020742 -0.000695 -0.999785 
-77.2571 316.701 -28.3357 -0.020742 -0.000695 -0.999785 
30.6031 188.456 -30.4842 -0.020742 -0.000695 -0.999785 
-37.4902 595.637 76.2477 -0.156699 0.306247 0.938966 
-52.2664 619.802 65.9006 -0.156699 0.306247 0.938966 
-79.0543 569.926 77.6973 -0.156699 0.306247 0.938966 
-25.5915 562.528 110.892 -0.465397 0.327063 0.822457 
-79.0543 569.926 77.6973 -0.465397 0.327063 0.822457 
-86.088 499.78 101.612 -0.465397 0.327063 0.822457 
8.94276 283.356 -31.5317 0.874136 0.104928 -0.474211 
7.50615 545.543 23.8338 0.874136 0.104928 -0.474211 
65.6576 230.098 61.2293 0.874136 0.104928 -0.474211 
11.9177 237.464 89.8112 0.615398 0.071159 0.784998 
-41.8396 293.693 126.857 0.615398 0.071159 0.784998 
-62.6869 47.5375 165.514 0.615398 0.071159 0.784998 
-67.5488 72.4709 165.775 0.511729 0.090828 0.854333 
-62.6869 47.5375 165.514 0.511729 0.090828 0.854333 
-41.8396 293.693 126.857 0.511729 0.090828 0.854333 
-108.637 27.544 113.535 -0.968144 -0.199363 0.151499 
-125.101 54.3832 43.6457 -0.968144 -0.199363 0.151499 
-99.781 -25.8179 99.9092 -0.968144 -0.199363 0.151499 
-81.0573 277.614 140.987 -0.810131 0.084474 0.58013 
-86.088 499.78 101.612 -0.810131 0.084474 0.58013 
-117.732 468.994 61.9045 -0.810131 0.084474 0.58013 
-81.0573 277.614 140.987 -0.871529 0.078464 0.484026 
-136.218 252.769 45.6928 -0.871529 0.078464 0.484026 
-141.476 131.454 55.8919 -0.871529 0.078464 0.484026 
-141.476 131.454 55.8919 -0.9638 -0.226999 0.139863 
-125.101 54.3832 43.6457 -0.9638 -0.226999 0.139863 
-108.637 27.544 113.535 -0.9638 -0.226999 0.139863 
-108.637 27.544 113.535 -0.703177 -0.17532 0.689061 
-97.5045 -25.3741 111.432 -0.703177 -0.17532 0.689061 
-62.6869 47.5375 165.514 -0.703177 -0.17532 0.689061 
-99.781 -25.8179 99.9092 -0.827014 -0.495895 0.264831 
-69.3886 -86.337 81.4971 -0.827014 -0.495895 0.264831 
-60.2634 -83.4523 115.395 -0.827014 -0.495895 0.264831 
-63.9568 16.1773 -24.3912 -0.872482 -0.327947 -0.362252 
-69.3886 -86.337 81.4971 -0.872482 -0.327947 -0.362252 
-99.781 -25.8179 99.9092 -0.872482 -0.327947 -0.362252 
-118.376 175.268 -27.3843 -0.78687 -0.279512 -0.550189 
-63.9568 16.1773 -24.3912 -0.78687 -0.279512 -0.550189 
-125.101 54.3832 43.6457 -0.78687 -0.279512 -0.550189 
-69.3886 -86.337 81.4971 -0.462359 -0.868347 0.17944 
-0.834572 -127.545 58.725 -0.462359 -0.868347 0.17944 
-24.681 -101.783 121.949 -0.462359 -0.868347 0.17944 
-10.0379 -25.3766 143.286 -0.338148 -0.153477 0.928494 
-97.5045 -25.3741 111.432 -0.338148 -0.153477 0.928494 
-60.2634 -83.4523 115.395 -0.338148 -0.153477 0.928494 
1.8729 -112.531 23.2531 0.914224 -0.392141 -0.102074 
5.25268 -103.108 17.3233 0.914224 -0.392141 -0.102074 
7.02777 -113.707 73.9404 0.914224 -0.392141 -0.102074 
-10.5395 -94.8744 119.17 0.863375 -0.248821 0.438944 
7.02777 -113.707 73.9404 0.863375 -0.248821 0.438944 
21.4082 -82.5283 63.3291 0.863375 -0.248821 0.438944 
71.6892 148.223 34.8315 0.862938 -0.096358 0.496038 
65.6576 230.098 61.2293 0.862938 -0.096358 0.496038 
-10.0379 -25.3766 143.286 0.862938 -0.096358 0.496038 
21.4082 -82.5283 63.3291 0.864035 -0.181526 0.469565 
42.0555 -67.9985 30.9535 0.864035 -0.181526 0.469565 
-10.0379 -25.3766 143.286 0.864035 -0.181526 0.469565 
7.02777 -113.707 73.9404 0.458739 -0.742898 0.487505 
-10.5395 -94.8744 119.17 0.458739 -0.742898 0.487505 
-24.681 -101.783 121.949 0.458739 -0.742898 0.487505 
-1.3999 56.8315 -55.2228 0.82067 -0.102393 -0.562153 
71.6892 148.223 34.8315 0.82067 -0.102393 -0.562153 
42.0555 -67.9985 30.9535 0.82067 -0.102393 -0.562153 
-18.2398 -118.503 29.4257 -0.184323 -0.41802 -0.889542 
-63.9568 16.1773 -24.3912 -0.184323 -0.41802 -0.889542 
5.25268 -103.108 17.3233 -0.184323 -0.41802 -0.889542 
-152.957 -105.981 89.335 0.970633 -0.009681 -0.240371 
-169.281 22.6114 18.241 0.970633 -0.009681 -0.240371 
-146.789 19.6236 109.183 0.970633 -0.009681 -0.240371 
-152.957 -105.981 89.335 0.153954 -0.45811 -0.875462 
-233.39 -127.537 86.4706 0.153954 -0.45811 -0.875462 
-253.387 7.53609 12.2731 0.153954 -0.45811 -0.875462 
-233.39 -127.537 86.4706 -0.832615 -0.432239 -0.346297 
-256.904 -114.315 126.503 -0.832615 -0.432239 -0.346297 
-291.386 -8.68563 77.5671 -0.832615 -0.432239 -0.346297 
-256.904 -114.315 126.503 -0.81124 0.034892 0.583672 
-213.765 -75.4485 184.138 -0.81124 0.034892 0.583672 
-225.026 13.7261 163.155 -0.81124 0.034892 0.583672 
-146.137 -81.819 144.402 0.530507 0.281068 0.799727 
-146.789 19.6236 109.183 0.530507 0.281068 0.799727 
-225.026 13.7261 163.155 0.530507 0.281068 0.799727 
-169.281 22.6114 18.241 0.944436 0.194536 -0.264947 
-196.491 114.252 -11.4682 0.944436 0.194536 -0.264947 
-183.216 145.905 59.0943 0.944436 0.194536 -0.264947 
-253.387 7.53609 12.2731 0.097198 -0.265231 -0.959273 
-255.365 114.538 -17.5126 0.097198 -0.265231 -0.959273 
-196.491 114.252 -11.4682 0.097198 -0.265231 -0.959273 
-253.387 7.53609 12.2731 -0.832079 -0.172582 -0.527124 
-291.386 -8.68563 77.5671 -0.832079 -0.172582 -0.527124 
-291.257 129.855 32.0037 -0.832079 -0.172582 -0.527124 
-291.386 -8.68563 77.5671 -0.798384 0.21272 0.563323 
-225.026 13.7261 163.155 -0.798384 0.21272 0.563323 
-242.43 148.795 87.4841 -0.798384 0.21272 0.563323 
-146.789 19.6236 109.183 0.406319 0.43576 0.80313 
-183.216 145.905 59.0943 0.406319 0.43576 0.80313 
-242.43 148.795 87.4841 0.406319 0.43576 0.80313 
3 0 1 2 
3 3 4 5 
3 6 7 8 
3 9 10 11 
3 12 13 14 
3 15 16 17 
3 18 19 20 
3 21 22 23 
3 24 25 26 
3 27 28 29 
3 30 31 32 
3 33 34 35 
3 36 37 38 
3 39 40 41 
3 42 43 44 
3 45 46 47 
3 48 49 50 
3 51 52 53 
3 54 55 56 
3 57 58 59 
3 60 61 62 
3 63 64 65 
3 66 67 68 
3 69 70 71 
3 72 73 74 
3 75 76 77 
3 78 79 80 
3 81 82 83 
3 84 85 86 
3 87 88 89 
3 90 91 92 
3 93 94 95 
3 96 97 98 
3 99 100 101 
3 102 103 104 
3 105 106 107 
3 108 109 110 
3 111 112 113 
3 114 115 116 
3 117 118 119 
3 120 121 122 
3 123 124 125 
3 126 127 128 
3 129 130 131 
3 132 133 134 
3 135 136 137 
3 138 139 140 
3 141 142 143 
3 144 145 146 
3 147 148 149 
3 150 151 152 
3 153 154 155 
3 156 157 158 
3 159 160 161 
3 162 163 164 
3 165 166 167 
3 168 169 170 
3 171 172 173 
3 174 175 176 
3 177 178 179 
3 180 181 182 
3 183 184 185 
3 186 187 188 
3 189 190 191 
3 192 193 194 
3 195 196 197 
3 198 199 200 
3 201 202 203 
3 204 205 206 
3 207 208 209 
3 210 211 212 
3 213 214 215 
3 216 217 218 
3 219 220 221 
3 222 223 224 
3 225 226 227 
3 228 229 230 
3 231 232 233 
3 234 235 236 
3 237 238 239 
3 240 241 242 
3 243 244 245 
3 246 247 248 
3 249 250 251 
3 252 253 254 
3 255 256 257 
3 258 259 260 
3 261 262 263 
3 264 265 266 
3 267 268 269 
3 270 271 272 
3 273 274 275 
3 276 277 278 
3 279 280 281 
3 282 283 284 
3 285 286 287 
3 288 289 290 
3 291 292 293 
3 294 295 296 
3 297 298 299 
3 300 301 302 
3 303 304 305 
3 306 307 308 
3 309 310 311 
3 312 313 314 
3 315 316 317 
3 318 319 320 
3 321 322 323 
3 324 325 326 
3 327 328 329 
3 330 331 332 
3 333 334 335 
3 336 337 338 
3 339 340 341 
3 342 343 344 
3 345 346 347 
3 348 349 350 
3 351 352 353 
3 354 355 356 
3 357 358 359 
3 360 361 362 
3 363 364 365 
3 366 367 368 
3 369 370 371 
3 372 373 374 
3 375 376 377 
3 378 379 380 
3 381 382 383 
3 384 385 386 
3 387 388 389 
3 390 391 392 
3 393 394 395 
3 396 397 398 
3 399 400 401 
3 402 403 404 
3 405 406 407 
3 408 409 410 
3 411 412 413 
3 414 415 416 
3 417 418 419 
3 420 421 422 
3 423 424 425 
3 426 427 428 
3 429 430 431 
3 432 433 434 
3 435 436 437 
3 438 439 440 
3 441 442 443 
3 444 445 446 
3 447 448 449 
3 450 451 452 
3 453 454 455 
3 456 457 458 
3 459 460 461 
3 462 463 464 
3 465 466 467 
3 468 469 470 
3 471 472 473 
3 474 475 476 
3 477 478 479 
3 480 481 482 
3 483 484 485 
3 486 487 488 
3 489 490 491 
3 492 493 494 
3 495 496 497 
3 498 499 500 
3 501 502 503 
3 504 505 506 
3 507 508 509 
3 510 511 512 
3 513 514 515 
3 516 517 518 
3 519 520 521 
3 522 523 524 
3 525 526 527 
3 528 529 530 
3 531 532 533 
3 534 535 536 
3 537 538 539 
3 540 541 542 
3 543 544 545 
3 546 547 548 
3 549 550 551 
3 552 553 554 
3 555 556 557 
3 558 559 560 
3 561 562 563 
3 564 565 566 
3 567 568 569 
3 570 571 572 
3 573 574 575 
3 576 577 578 
3 579 580 581 
3 582 583 584 
3 585 586 587 
3 588 589 590 
3 591 592 593 
3 594 595 596 
3 597 598 599 
3 600 601 602 
3 603 604 605 
3 606 607 608 
3 609 610 611 
3 612 613 614 
3 615 616 617 
3 618 619 620 
3 621 622 623 
3 624 625 626 
3 627 628 629 
3 630 631 632 
3 633 634 635 
