ply
format ascii 1.0
comment VCGLIB generated
element vertex 738
property float x
property float y
property float z
property float nx
property float ny
property float nz
element face 246
property list uchar int vertex_indices
end_header
-128.556 -86.1866 -151.729 -0.477661 -0.249866 -0.842263 
-109.086 -24.0514 -181.204 -0.477661 -0.249866 -0.842263 
-99.4944 -82.1872 -169.397 -0.477661 -0.249866 -0.842263 
-128.556 -86.1866 -151.729 -0.921561 -0.252189 0.295171 
-137.55 -1.95785 -107.844 -0.921561 -0.252189 0.295171 
-151.101 -6.63107 -154.144 -0.921561 -0.252189 0.295171 
-114.724 -85.8537 -106.663 -0.266972 -0.059089 0.961891 
-97.0382 -14.2828 -97.3572 -0.266972 -0.059089 0.961891 
-137.55 -1.95785 -107.844 -0.266972 -0.059089 0.961891 
-87.9011 -81.2482 -104.332 0.858614 0.064183 0.508589 
-65.004 -23.7737 -150.24 0.858614 0.064183 0.508589 
-97.0382 -14.2828 -97.3572 0.858614 0.064183 0.508589 
-99.4944 -82.1872 -169.397 0.599536 -0.093314 -0.794889 
-65.004 -23.7737 -150.24 0.599536 -0.093314 -0.794889 
-64.0094 -74.9745 -143.48 0.599536 -0.093314 -0.794889 
-128.556 -86.1866 -151.729 -0.022329 -0.966546 -0.255521 
-99.4944 -82.1872 -169.397 -0.022329 -0.966546 -0.255521 
-97.4283 -91.4207 -134.65 -0.022329 -0.966546 -0.255521 
-114.724 -85.8537 -106.663 -0.202281 -0.976872 0.069301 
-128.556 -86.1866 -151.729 -0.202281 -0.976872 0.069301 
-97.4283 -91.4207 -134.65 -0.202281 -0.976872 0.069301 
-87.9011 -81.2482 -104.332 0.139393 -0.951187 0.275341 
-114.724 -85.8537 -106.663 0.139393 -0.951187 0.275341 
-97.4283 -91.4207 -134.65 0.139393 -0.951187 0.275341 
-64.0094 -74.9745 -143.48 0.46755 -0.871891 0.145616 
-87.9011 -81.2482 -104.332 0.46755 -0.871891 0.145616 
-97.4283 -91.4207 -134.65 0.46755 -0.871891 0.145616 
-99.4944 -82.1872 -169.397 0.370516 -0.891967 -0.259062 
-64.0094 -74.9745 -143.48 0.370516 -0.891967 -0.259062 
-97.4283 -91.4207 -134.65 0.370516 -0.891967 -0.259062 
-130.208 105.617 -148.313 -0.83605 0.363514 -0.410948 
-153.009 49.3065 -151.736 -0.83605 0.363514 -0.410948 
-131.843 109.129 -141.88 -0.83605 0.363514 -0.410948 
-153.009 49.3065 -151.736 -0.944329 0.249313 0.214674 
-143.582 58.5141 -120.962 -0.944329 0.249313 0.214674 
-135.432 103.618 -137.494 -0.944329 0.249313 0.214674 
-143.582 58.5141 -120.962 -0.234958 0.371658 0.898145 
-109.042 64.6168 -114.451 -0.234958 0.371658 0.898145 
-135.432 103.618 -137.494 -0.234958 0.371658 0.898145 
-109.042 64.6168 -114.451 0.748264 0.580812 0.32056 
-89.1438 59.9639 -152.468 0.748264 0.580812 0.32056 
-131.843 109.129 -141.88 0.748264 0.580812 0.32056 
-89.1438 59.9639 -152.468 0.723104 0.666814 -0.180219 
-130.208 105.617 -148.313 0.723104 0.666814 -0.180219 
-131.843 109.129 -141.88 0.723104 0.666814 -0.180219 
-151.101 -6.63107 -154.144 -0.543035 -0.005344 -0.839693 
-116.677 54.1608 -176.793 -0.543035 -0.005344 -0.839693 
-109.086 -24.0514 -181.204 -0.543035 -0.005344 -0.839693 
-137.55 -1.95785 -107.844 -0.957539 -0.044927 0.284781 
-153.009 49.3065 -151.736 -0.957539 -0.044927 0.284781 
-151.101 -6.63107 -154.144 -0.957539 -0.044927 0.284781 
-137.55 -1.95785 -107.844 -0.213726 0.186682 0.958891 
-109.042 64.6168 -114.451 -0.213726 0.186682 0.958891 
-143.582 58.5141 -120.962 -0.213726 0.186682 0.958891 
-97.0382 -14.2828 -97.3572 0.874128 0.22612 0.429848 
-89.1438 59.9639 -152.468 0.874128 0.22612 0.429848 
-109.042 64.6168 -114.451 0.874128 0.22612 0.429848 
-109.086 -24.0514 -181.204 0.568343 0.142281 -0.810397 
-89.1438 59.9639 -152.468 0.568343 0.142281 -0.810397 
-65.004 -23.7737 -150.24 0.568343 0.142281 -0.810397 
-135.432 103.618 -137.494 0.125707 0.566313 0.814547 
-109.042 64.6168 -114.451 0.125707 0.566313 0.814547 
-131.843 109.129 -141.88 0.125707 0.566313 0.814547 
-153.009 49.3065 -151.736 -0.890924 0.36069 -0.275967 
-135.432 103.618 -137.494 -0.890924 0.36069 -0.275967 
-131.843 109.129 -141.88 -0.890924 0.36069 -0.275967 
-89.1438 59.9639 -152.468 0.503503 0.515964 -0.693012 
-116.677 54.1608 -176.793 0.503503 0.515964 -0.693012 
-130.208 105.617 -148.313 0.503503 0.515964 -0.693012 
-116.677 54.1608 -176.793 -0.570261 0.2779 -0.773029 
-153.009 49.3065 -151.736 -0.570261 0.2779 -0.773029 
-130.208 105.617 -148.313 -0.570261 0.2779 -0.773029 
5.2583 104.932 -29.9963 0.307055 0.73509 0.60445 
-44.2926 184.734 -101.874 0.307055 0.73509 0.60445 
-30.7687 104.264 -10.8827 0.307055 0.73509 0.60445 
55.6207 62.0291 -49.865 0.940245 0.315426 0.128237 
38.5579 168.068 -185.583 0.940245 0.315426 0.128237 
12.3024 218.032 -115.972 0.940245 0.315426 0.128237 
55.6207 62.0291 -49.865 0.630014 0.444719 0.636638 
12.3024 218.032 -115.972 0.630014 0.444719 0.636638 
5.2583 104.932 -29.9963 0.630014 0.444719 0.636638 
-89.0293 45.9121 -77.8462 -0.999808 0.004349 -0.019119 
-88.9844 -5.12805 -91.8056 -0.999808 0.004349 -0.019119 
-90.0304 -3.63917 -36.765 -0.999808 0.004349 -0.019119 
38.5579 168.068 -185.583 0.163334 -0.157467 -0.973923 
43.462 23.1816 -161.335 0.163334 -0.157467 -0.973923 
-26.7063 156.512 -194.66 0.163334 -0.157467 -0.973923 
-26.7063 156.512 -194.66 0.065499 0.360826 -0.93033 
-3.1311 218.58 -168.927 0.065499 0.360826 -0.93033 
38.5579 168.068 -185.583 0.065499 0.360826 -0.93033 
38.5579 168.068 -185.583 0.616465 0.731133 -0.292259 
-2.25854 215.825 -152.206 0.616465 0.731133 -0.292259 
12.3024 218.032 -115.972 0.616465 0.731133 -0.292259 
-62.1843 171.015 -137.049 -0.760666 0.633939 0.139671 
-76.2667 151.159 -123.621 -0.760666 0.633939 0.139671 
-44.2926 184.734 -101.874 -0.760666 0.633939 0.139671 
43.462 23.1816 -161.335 -0.062022 -0.272617 -0.960122 
-39.4644 38.9217 -160.447 -0.062022 -0.272617 -0.960122 
-26.7063 156.512 -194.66 -0.062022 -0.272617 -0.960122 
38.2533 -90.2799 -119.627 -0.401869 -0.681279 -0.61185 
-18.2507 -94.0249 -78.3446 -0.401869 -0.681279 -0.61185 
-74.7327 -24.5314 -118.626 -0.401869 -0.681279 -0.61185 
-15.0588 219.917 -170.69 -0.790583 0.299957 -0.533858 
-41.101 204.597 -140.732 -0.790583 0.299957 -0.533858 
-17.7046 221.474 -165.897 -0.790583 0.299957 -0.533858 
-41.101 204.597 -140.732 -0.732366 0.399312 -0.551534 
-26.7063 156.512 -194.66 -0.732366 0.399312 -0.551534 
-62.1843 171.015 -137.049 -0.732366 0.399312 -0.551534 
-62.1843 171.015 -137.049 -0.810213 0.202689 -0.549975 
-26.7063 156.512 -194.66 -0.810213 0.202689 -0.549975 
-76.2667 151.159 -123.621 -0.810213 0.202689 -0.549975 
-76.2667 151.159 -123.621 -0.856026 -0.115355 -0.503897 
-39.4644 38.9217 -160.447 -0.856026 -0.115355 -0.503897 
-89.0293 45.9121 -77.8462 -0.856026 -0.115355 -0.503897 
-39.4644 38.9217 -160.447 -0.843602 0.140967 -0.518134 
-88.9844 -5.12805 -91.8056 -0.843602 0.140967 -0.518134 
-89.0293 45.9121 -77.8462 -0.843602 0.140967 -0.518134 
-74.7327 -24.5314 -118.626 -0.044276 -0.060903 -0.997161 
65.8964 -37.2536 -124.093 -0.044276 -0.060903 -0.997161 
38.2533 -90.2799 -119.627 -0.044276 -0.060903 -0.997161 
-3.1311 218.58 -168.927 0.222014 0.963864 0.147228 
-17.7046 221.474 -165.897 0.222014 0.963864 0.147228 
-2.25854 215.825 -152.206 0.222014 0.963864 0.147228 
-74.7327 -24.5314 -118.626 -0.08319 -0.56757 -0.819111 
66.8022 -18.7348 -137.017 -0.08319 -0.56757 -0.819111 
65.8964 -37.2536 -124.093 -0.08319 -0.56757 -0.819111 
43.462 23.1816 -161.335 -0.112281 -0.544685 -0.831091 
66.8022 -18.7348 -137.017 -0.112281 -0.544685 -0.831091 
-39.4644 38.9217 -160.447 -0.112281 -0.544685 -0.831091 
-2.25854 215.825 -152.206 -0.26439 0.963241 0.047586 
-41.101 204.597 -140.732 -0.26439 0.963241 0.047586 
12.3024 218.032 -115.972 -0.26439 0.963241 0.047586 
12.3024 218.032 -115.972 -0.160621 0.603636 0.780912 
-44.2926 184.734 -101.874 -0.160621 0.603636 0.780912 
5.2583 104.932 -29.9963 -0.160621 0.603636 0.780912 
43.462 23.1816 -161.335 0.795363 0.095632 -0.598541 
105.185 45.2219 -75.794 0.795363 0.095632 -0.598541 
66.8022 -18.7348 -137.017 0.795363 0.095632 -0.598541 
105.185 45.2219 -75.794 0.79024 0.103866 -0.60393 
111.437 -4.4325 -76.1532 0.79024 0.103866 -0.60393 
66.8022 -18.7348 -137.017 0.79024 0.103866 -0.60393 
55.6207 62.0291 -49.865 0.562838 0.621719 0.544682 
-5.28943 13.0932 68.9326 0.562838 0.621719 0.544682 
45.4589 -30.0578 65.7468 0.562838 0.621719 0.544682 
-10.5953 24.3766 62.9148 0.331974 0.683938 0.649632 
5.2583 104.932 -29.9963 0.331974 0.683938 0.649632 
-30.7687 104.264 -10.8827 0.331974 0.683938 0.649632 
-52.0212 -21.7772 35.4351 -0.876182 -0.226385 0.425505 
-43.0112 -52.3404 37.7273 -0.876182 -0.226385 0.425505 
-40.0867 -46.4757 46.8697 -0.876182 -0.226385 0.425505 
-62.1843 171.015 -137.049 -0.818198 0.536388 0.206979 
-44.2926 184.734 -101.874 -0.818198 0.536388 0.206979 
-41.101 204.597 -140.732 -0.818198 0.536388 0.206979 
-30.7687 104.264 -10.8827 -0.83376 0.302104 0.462145 
-76.2667 151.159 -123.621 -0.83376 0.302104 0.462145 
-89.0293 45.9121 -77.8462 -0.83376 0.302104 0.462145 
-30.7687 104.264 -10.8827 -0.78516 0.301458 0.540968 
-90.0304 -3.63917 -36.765 -0.78516 0.301458 0.540968 
-10.5953 24.3766 62.9148 -0.78516 0.301458 0.540968 
-90.0304 -3.63917 -36.765 -0.770138 0.391322 0.50374 
-52.0212 -21.7772 35.4351 -0.770138 0.391322 0.50374 
-10.5953 24.3766 62.9148 -0.770138 0.391322 0.50374 
-52.0212 -21.7772 35.4351 -0.632521 0.111359 0.766496 
-5.28943 13.0932 68.9326 -0.632521 0.111359 0.766496 
-10.5953 24.3766 62.9148 -0.632521 0.111359 0.766496 
-43.0112 -52.3404 37.7273 -0.598729 -0.573323 0.559306 
-2.70386 -70.2773 62.4893 -0.598729 -0.573323 0.559306 
-40.0867 -46.4757 46.8697 -0.598729 -0.573323 0.559306 
51.4313 -117.288 22.8294 -0.252787 -0.810129 0.528952 
-13.5798 -88.2619 36.2159 -0.252787 -0.810129 0.528952 
32.6348 -127.74 -2.16115 -0.252787 -0.810129 0.528952 
32.6348 -127.74 -2.16115 -0.616595 -0.784625 0.064611 
-13.5798 -88.2619 36.2159 -0.616595 -0.784625 0.064611 
-18.2507 -94.0249 -78.3446 -0.616595 -0.784625 0.064611 
-13.5798 -88.2619 36.2159 -0.638321 -0.767053 0.064612 
-73.1047 -44.107 -27.6547 -0.638321 -0.767053 0.064612 
-18.2507 -94.0249 -78.3446 -0.638321 -0.767053 0.064612 
-74.7327 -24.5314 -118.626 -0.859358 -0.502877 -0.092833 
-73.1047 -44.107 -27.6547 -0.859358 -0.502877 -0.092833 
-88.9844 -5.12805 -91.8056 -0.859358 -0.502877 -0.092833 
-73.1047 -44.107 -27.6547 -0.921969 -0.3872 -0.007048 
-90.0304 -3.63917 -36.765 -0.921969 -0.3872 -0.007048 
-88.9844 -5.12805 -91.8056 -0.921969 -0.3872 -0.007048 
45.4589 -30.0578 65.7468 -0.160461 -0.25903 0.952447 
-5.28943 13.0932 68.9326 -0.160461 -0.25903 0.952447 
-40.0867 -46.4757 46.8697 -0.160461 -0.25903 0.952447 
53.8158 -126.533 -18.128 0.542899 -0.837814 -0.057696 
60.5155 -119.778 -53.1762 0.542899 -0.837814 -0.057696 
88.8597 -103.741 -19.3419 0.542899 -0.837814 -0.057696 
-13.5798 -88.2619 36.2159 -0.23004 -0.756051 0.612755 
32.1759 -74.9692 69.7948 -0.23004 -0.756051 0.612755 
-2.70386 -70.2773 62.4893 -0.23004 -0.756051 0.612755 
71.7151 -94.6025 12.7836 0.492365 -0.731958 0.470972 
53.8158 -126.533 -18.128 0.492365 -0.731958 0.470972 
88.8597 -103.741 -19.3419 0.492365 -0.731958 0.470972 
-18.2507 -94.0249 -78.3446 -0.190579 -0.919333 -0.344247 
38.2533 -90.2799 -119.627 -0.190579 -0.919333 -0.344247 
60.5155 -119.778 -53.1762 -0.190579 -0.919333 -0.344247 
32.6348 -127.74 -2.16115 0.126435 -0.945425 0.300308 
51.245 -127.893 -10.4779 0.126435 -0.945425 0.300308 
51.4313 -117.288 22.8294 0.126435 -0.945425 0.300308 
45.4589 -30.0578 65.7468 -0.278913 0.259103 0.924701 
-2.70386 -70.2773 62.4893 -0.278913 0.259103 0.924701 
43.6373 -55.9268 72.446 -0.278913 0.259103 0.924701 
-2.70386 -70.2773 62.4893 -0.206519 -0.011909 0.97837 
32.1759 -74.9692 69.7948 -0.206519 -0.011909 0.97837 
43.6373 -55.9268 72.446 -0.206519 -0.011909 0.97837 
71.7151 -94.6025 12.7836 0.758092 -0.620188 0.201651 
59.5607 -103.545 30.973 0.758092 -0.620188 0.201651 
53.8158 -126.533 -18.128 0.758092 -0.620188 0.201651 
51.245 -127.893 -10.4779 0.796464 -0.57746 0.179404 
59.5607 -103.545 30.973 0.796464 -0.57746 0.179404 
51.4313 -117.288 22.8294 0.796464 -0.57746 0.179404 
45.2902 -73.0953 64.5058 0.854383 -0.148106 0.498091 
71.7151 -94.6025 12.7836 0.854383 -0.148106 0.498091 
43.6373 -55.9268 72.446 0.854383 -0.148106 0.498091 
55.6207 62.0291 -49.865 0.513754 0.648499 0.561699 
45.4589 -30.0578 65.7468 0.513754 0.648499 0.561699 
105.185 45.2219 -75.794 0.513754 0.648499 0.561699 
111.437 -4.4325 -76.1532 0.903381 0.038936 0.427067 
45.4589 -30.0578 65.7468 0.903381 0.038936 0.427067 
88.8597 -103.741 -19.3419 0.903381 0.038936 0.427067 
71.7151 -94.6025 12.7836 0.913881 0.040266 0.40398 
45.4589 -30.0578 65.7468 0.913881 0.040266 0.40398 
43.6373 -55.9268 72.446 0.913881 0.040266 0.40398 
43.6373 -55.9268 72.446 0.392863 -0.354589 0.848484 
32.1759 -74.9692 69.7948 0.392863 -0.354589 0.848484 
45.2902 -73.0953 64.5058 0.392863 -0.354589 0.848484 
59.5607 -103.545 30.973 0.347095 -0.621507 0.702321 
32.1759 -74.9692 69.7948 0.347095 -0.621507 0.702321 
51.4313 -117.288 22.8294 0.347095 -0.621507 0.702321 
66.8022 -18.7348 -137.017 0.786492 -0.37886 -0.487746 
111.437 -4.4325 -76.1532 0.786492 -0.37886 -0.487746 
65.8964 -37.2536 -124.093 0.786492 -0.37886 -0.487746 
111.437 -4.4325 -76.1532 0.778473 -0.434 -0.453457 
60.5155 -119.778 -53.1762 0.778473 -0.434 -0.453457 
38.2533 -90.2799 -119.627 0.778473 -0.434 -0.453457 
32.6348 -127.74 -2.16115 -0.100403 -0.973224 -0.206771 
53.8158 -126.533 -18.128 -0.100403 -0.973224 -0.206771 
51.245 -127.893 -10.4779 -0.100403 -0.973224 -0.206771 
60.5155 -119.778 -53.1762 -0.236271 -0.944741 -0.227248 
53.8158 -126.533 -18.128 -0.236271 -0.944741 -0.227248 
-18.2507 -94.0249 -78.3446 -0.236271 -0.944741 -0.227248 
38.2533 -90.2799 -119.627 0.781434 -0.444272 -0.438158 
65.8964 -37.2536 -124.093 0.781434 -0.444272 -0.438158 
111.437 -4.4325 -76.1532 0.781434 -0.444272 -0.438158 
47.98 -72.52 11.872 -0.940752 0.042908 -0.336369 
73.3337 -5.68846 -50.512 -0.940752 0.042908 -0.336369 
60.7383 -83.5654 -25.2193 -0.940752 0.042908 -0.336369 
47.98 -72.52 11.872 -0.559692 0.209044 0.801901 
116.066 34.4704 31.5024 -0.559692 0.209044 0.801901 
67.7545 38.8354 -3.35495 -0.559692 0.209044 0.801901 
93.4045 -82.3432 46.8351 0.360345 0.052341 0.931349 
151.167 -4.74 20.1252 0.360345 0.052341 0.931349 
116.066 34.4704 31.5024 0.360345 0.052341 0.931349 
119.634 -92.3257 30.4389 0.931728 -0.347764 -0.10461 
133.125 -32.4241 -48.5365 0.931728 -0.347764 -0.10461 
151.167 -4.74 20.1252 0.931728 -0.347764 -0.10461 
60.7383 -83.5654 -25.2193 -0.07657 -0.321879 -0.94368 
133.125 -32.4241 -48.5365 -0.07657 -0.321879 -0.94368 
113.146 -96.5116 -25.0558 -0.07657 -0.321879 -0.94368 
47.98 -72.52 11.872 -0.575125 -0.816804 0.04541 
60.7383 -83.5654 -25.2193 -0.575125 -0.816804 0.04541 
83.8636 -97.8645 10.4648 -0.575125 -0.816804 0.04541 
93.4045 -82.3432 46.8351 -0.504154 -0.738644 0.447475 
47.98 -72.52 11.872 -0.504154 -0.738644 0.447475 
83.8636 -97.8645 10.4648 -0.504154 -0.738644 0.447475 
119.634 -92.3257 30.4389 -0.088736 -0.907504 0.410563 
93.4045 -82.3432 46.8351 -0.088736 -0.907504 0.410563 
83.8636 -97.8645 10.4648 -0.088736 -0.907504 0.410563 
113.146 -96.5116 -25.0558 0.119508 -0.990971 0.060777 
119.634 -92.3257 30.4389 0.119508 -0.990971 0.060777 
83.8636 -97.8645 10.4648 0.119508 -0.990971 0.060777 
60.7383 -83.5654 -25.2193 -0.232835 -0.945423 -0.227953 
113.146 -96.5116 -25.0558 -0.232835 -0.945423 -0.227953 
83.8636 -97.8645 10.4648 -0.232835 -0.945423 -0.227953 
146.115 164.944 -49.4187 -0.726616 0.683528 0.069419 
96.2559 108.847 -18.9458 -0.726616 0.683528 0.069419 
151.369 169.909 -43.314 -0.726616 0.683528 0.069419 
96.2559 108.847 -18.9458 -0.454892 0.610653 0.64821 
131.798 113.231 1.86626 -0.454892 0.610653 0.64821 
148.911 164.974 -34.8688 -0.454892 0.610653 0.64821 
131.798 113.231 1.86626 0.509099 0.379928 0.772316 
168.295 100.417 -15.8882 0.509099 0.379928 0.772316 
148.911 164.974 -34.8688 0.509099 0.379928 0.772316 
168.295 100.417 -15.8882 0.942702 0.104572 -0.316823 
153.836 85.0076 -63.9966 0.942702 0.104572 -0.316823 
151.369 169.909 -43.314 0.942702 0.104572 -0.316823 
153.836 85.0076 -63.9966 0.658682 0.196099 -0.726418 
146.115 164.944 -49.4187 0.658682 0.196099 -0.726418 
151.369 169.909 -43.314 0.658682 0.196099 -0.726418 
67.7545 38.8354 -3.35495 -0.896964 0.263553 -0.354959 
109.903 95.0047 -68.1576 -0.896964 0.263553 -0.354959 
73.3337 -5.68846 -50.512 -0.896964 0.263553 -0.354959 
116.066 34.4704 31.5024 -0.51798 0.381374 0.76567 
96.2559 108.847 -18.9458 -0.51798 0.381374 0.76567 
67.7545 38.8354 -3.35495 -0.51798 0.381374 0.76567 
116.066 34.4704 31.5024 0.488157 0.220266 0.844503 
168.295 100.417 -15.8882 0.488157 0.220266 0.844503 
131.798 113.231 1.86626 0.488157 0.220266 0.844503 
151.167 -4.74 20.1252 0.95024 -0.227613 -0.212691 
153.836 85.0076 -63.9966 0.95024 -0.227613 -0.212691 
168.295 100.417 -15.8882 0.95024 -0.227613 -0.212691 
73.3337 -5.68846 -50.512 -0.023742 -0.126372 -0.991699 
153.836 85.0076 -63.9966 -0.023742 -0.126372 -0.991699 
133.125 -32.4241 -48.5365 -0.023742 -0.126372 -0.991699 
148.911 164.974 -34.8688 0.807347 0.376092 0.454694 
168.295 100.417 -15.8882 0.807347 0.376092 0.454694 
151.369 169.909 -43.314 0.807347 0.376092 0.454694 
96.2559 108.847 -18.9458 -0.68247 0.699963 0.210444 
148.911 164.974 -34.8688 -0.68247 0.699963 0.210444 
151.369 169.909 -43.314 -0.68247 0.699963 0.210444 
153.836 85.0076 -63.9966 0.135419 0.190402 -0.972321 
109.903 95.0047 -68.1576 0.135419 0.190402 -0.972321 
146.115 164.944 -49.4187 0.135419 0.190402 -0.972321 
109.903 95.0047 -68.1576 -0.785857 0.503198 -0.359473 
96.2559 108.847 -18.9458 -0.785857 0.503198 -0.359473 
146.115 164.944 -49.4187 -0.785857 0.503198 -0.359473 
70.4243 -107.057 52.1687 0.976156 -0.217017 0.004918 
105.065 49.9244 103.542 0.976156 -0.217017 0.004918 
70.6306 -104.97 103.299 0.976156 -0.217017 0.004918 
70.4243 -107.057 52.1687 0.206508 -0.135036 -0.969082 
41.9043 117.593 14.7875 0.206508 -0.135036 -0.969082 
107.949 107.84 30.2203 0.206508 -0.135036 -0.969082 
4.73059 -108.804 37.6793 -0.712434 0.046178 -0.700219 
-4.67554 74.4308 59.3334 -0.712434 0.046178 -0.700219 
41.9043 117.593 14.7875 -0.712434 0.046178 -0.700219 
-17.692 -103.997 71.4467 -0.880619 0.095746 0.464051 
33.4222 39.3896 138.861 -0.880619 0.095746 0.464051 
-4.67554 74.4308 59.3334 -0.880619 0.095746 0.464051 
70.6306 -104.97 103.299 0.42298 -0.112467 0.899132 
33.4222 39.3896 138.861 0.42298 -0.112467 0.899132 
13.2632 -95.082 131.524 0.42298 -0.112467 0.899132 
70.4243 -107.057 52.1687 0.446086 -0.894317 0.034698 
70.6306 -104.97 103.299 0.446086 -0.894317 0.034698 
24.5128 -128.871 80.1766 0.446086 -0.894317 0.034698 
4.73059 -108.804 37.6793 0.127163 -0.872757 -0.4713 
70.4243 -107.057 52.1687 0.127163 -0.872757 -0.4713 
24.5128 -128.871 80.1766 0.127163 -0.872757 -0.4713 
-17.692 -103.997 71.4467 -0.469313 -0.862602 -0.188849 
4.73059 -108.804 37.6793 -0.469313 -0.862602 -0.188849 
24.5128 -128.871 80.1766 -0.469313 -0.862602 -0.188849 
13.2632 -95.082 131.524 -0.52648 -0.758602 0.383851 
-17.692 -103.997 71.4467 -0.52648 -0.758602 0.383851 
24.5128 -128.871 80.1766 -0.52648 -0.758602 0.383851 
70.6306 -104.97 103.299 0.137984 -0.813216 0.565367 
13.2632 -95.082 131.524 0.137984 -0.813216 0.565367 
24.5128 -128.871 80.1766 0.137984 -0.813216 0.565367 
109.172 396.863 61.5633 0.846679 0.168671 -0.504663 
118.616 255.23 30.0701 0.846679 0.168671 -0.504663 
103.315 406.694 55.0224 0.846679 0.168671 -0.504663 
118.616 255.23 30.0701 0.284476 0.153635 -0.946293 
75.7208 277.611 20.8085 0.284476 0.153635 -0.946293 
99.5026 393.326 46.7447 0.284476 0.153635 -0.946293 
75.7208 277.611 20.8085 -0.72039 0.289337 -0.630335 
42.5901 284.342 61.7627 -0.72039 0.289337 -0.630335 
99.5026 393.326 46.7447 -0.72039 0.289337 -0.630335 
42.5901 284.342 61.7627 -0.732788 0.394244 0.554611 
72.8503 265.704 114.994 -0.732788 0.394244 0.554611 
103.315 406.694 55.0224 -0.732788 0.394244 0.554611 
72.8503 265.704 114.994 -0.256641 0.424739 0.868177 
109.172 396.863 61.5633 -0.256641 0.424739 0.868177 
103.315 406.694 55.0224 -0.256641 0.424739 0.868177 
107.949 107.84 30.2203 0.996033 -0.08458 -0.027633 
122.476 257.38 96.1305 0.996033 -0.08458 -0.027633 
105.065 49.9244 103.542 0.996033 -0.08458 -0.027633 
41.9043 117.593 14.7875 0.225089 -0.017283 -0.974185 
118.616 255.23 30.0701 0.225089 -0.017283 -0.974185 
107.949 107.84 30.2203 0.225089 -0.017283 -0.974185 
41.9043 117.593 14.7875 -0.74955 0.182346 -0.636338 
42.5901 284.342 61.7627 -0.74955 0.182346 -0.636338 
75.7208 277.611 20.8085 -0.74955 0.182346 -0.636338 
-4.67554 74.4308 59.3334 -0.826747 0.17999 0.533004 
72.8503 265.704 114.994 -0.826747 0.17999 0.533004 
42.5901 284.342 61.7627 -0.826747 0.17999 0.533004 
105.065 49.9244 103.542 0.439968 0.018034 0.897832 
72.8503 265.704 114.994 0.439968 0.018034 0.897832 
33.4222 39.3896 138.861 0.439968 0.018034 0.897832 
99.5026 393.326 46.7447 -0.867903 0.415778 -0.271796 
42.5901 284.342 61.7627 -0.867903 0.415778 -0.271796 
103.315 406.694 55.0224 -0.867903 0.415778 -0.271796 
118.616 255.23 30.0701 0.749487 0.180637 -0.636898 
99.5026 393.326 46.7447 0.749487 0.180637 -0.636898 
103.315 406.694 55.0224 0.749487 0.180637 -0.636898 
72.8503 265.704 114.994 0.380715 0.256481 0.888411 
122.476 257.38 96.1305 0.380715 0.256481 0.888411 
109.172 396.863 61.5633 0.380715 0.256481 0.888411 
122.476 257.38 96.1305 0.994955 0.079848 -0.060739 
118.616 255.23 30.0701 0.994955 0.079848 -0.060739 
109.172 396.863 61.5633 0.994955 0.079848 -0.060739 
-198.948 61.7857 58.2643 -0.624463 -0.09196 0.775622 
-184.094 33.1977 66.834 -0.624463 -0.09196 0.775622 
-149.825 37.4507 94.9293 -0.624463 -0.09196 0.775622 
-121.807 225.744 48.8435 0.959651 0.274106 0.062731 
-87.7683 104.187 59.2741 0.959651 0.274106 0.062731 
-85.2314 104.766 17.9363 0.959651 0.274106 0.062731 
-145.012 97.0889 108.478 -0.676746 0.016747 0.736026 
-190.488 215.78 63.9642 -0.676746 0.016747 0.736026 
-199.487 68.7228 59.0368 -0.676746 0.016747 0.736026 
-149.825 37.4507 94.9293 -0.249807 -0.783646 0.568766 
-173.445 10.0183 46.7586 -0.249807 -0.783646 0.568766 
-107.227 2.13839 64.9851 -0.249807 -0.783646 0.568766 
-77.0811 10.9814 25.4596 0.753587 -0.456978 0.472523 
-94.3457 46.6887 87.5262 0.753587 -0.456978 0.472523 
-107.227 2.13839 64.9851 0.753587 -0.456978 0.472523 
-107.227 2.13839 64.9851 -0.30293 -0.551655 0.777117 
-125.689 -18.336 43.2542 -0.30293 -0.551655 0.777117 
-107.261 -12.9014 54.2956 -0.30293 -0.551655 0.777117 
-102.82 0.077741 4.43188 -0.44561 -0.678314 -0.584227 
-125.689 -18.336 43.2542 -0.44561 -0.678314 -0.584227 
-173.445 10.0183 46.7586 -0.44561 -0.678314 -0.584227 
-107.227 2.13839 64.9851 0.730667 -0.521534 0.440599 
-99.6621 -14.7425 32.4578 0.730667 -0.521534 0.440599 
-77.0811 10.9814 25.4596 0.730667 -0.521534 0.440599 
-121.807 225.744 48.8435 0.314807 0.731589 -0.60471 
-159.592 241.142 47.802 0.314807 0.731589 -0.60471 
-158.463 247.459 56.0323 0.314807 0.731589 -0.60471 
-150.595 218.862 23.1425 -0.367371 0.619482 -0.693745 
-173.727 215.724 32.5905 -0.367371 0.619482 -0.693745 
-159.592 241.142 47.802 -0.367371 0.619482 -0.693745 
-190.488 215.78 63.9642 -0.620578 0.710448 0.331882 
-153.955 240.135 80.1408 -0.620578 0.710448 0.331882 
-158.463 247.459 56.0323 -0.620578 0.710448 0.331882 
-153.955 240.135 80.1408 0.525891 0.836183 0.155681 
-121.807 225.744 48.8435 0.525891 0.836183 0.155681 
-158.463 247.459 56.0323 0.525891 0.836183 0.155681 
-122.122 88.1656 -14.3184 -0.377811 0.037657 -0.925117 
-117.025 52.1137 -17.8674 -0.377811 0.037657 -0.925117 
-168.668 74.4377 4.13173 -0.377811 0.037657 -0.925117 
-153.755 133.38 -7.26784 -0.342764 -0.094054 -0.934701 
-122.122 88.1656 -14.3184 -0.342764 -0.094054 -0.934701 
-168.668 74.4377 4.13173 -0.342764 -0.094054 -0.934701 
-103.376 98.6043 93.0811 0.730648 0.316426 0.605003 
-121.807 225.744 48.8435 0.730648 0.316426 0.605003 
-153.955 240.135 80.1408 0.730648 0.316426 0.605003 
-94.3457 46.6887 87.5262 0.895436 0.109584 0.431493 
-87.7683 104.187 59.2741 0.895436 0.109584 0.431493 
-103.376 98.6043 93.0811 0.895436 0.109584 0.431493 
-85.2314 104.766 17.9363 0.753275 0.655368 0.055404 
-87.7683 104.187 59.2741 0.753275 0.655368 0.055404 
-64.6978 80.524 25.5179 0.753275 0.655368 0.055404 
-102.82 0.077741 4.43188 0.425581 -0.779267 -0.460026 
-99.6621 -14.7425 32.4578 0.425581 -0.779267 -0.460026 
-107.318 -16.5254 28.3949 0.425581 -0.779267 -0.460026 
-145.012 97.0889 108.478 0.333096 0.203221 0.920732 
-103.376 98.6043 93.0811 0.333096 0.203221 0.920732 
-153.955 240.135 80.1408 0.333096 0.203221 0.920732 
-94.3457 46.6887 87.5262 0.166409 -0.231204 0.958568 
-145.012 97.0889 108.478 0.166409 -0.231204 0.958568 
-149.825 37.4507 94.9293 0.166409 -0.231204 0.958568 
-107.227 2.13839 64.9851 0.194712 -0.487072 0.85138 
-94.3457 46.6887 87.5262 0.194712 -0.487072 0.85138 
-149.825 37.4507 94.9293 0.194712 -0.487072 0.85138 
-184.094 33.1977 66.834 -0.891402 -0.451555 0.038735 
-198.948 61.7857 58.2643 -0.891402 -0.451555 0.038735 
-186.767 36.0809 38.943 -0.891402 -0.451555 0.038735 
-173.445 10.0183 46.7586 -0.894487 -0.445331 0.039674 
-184.094 33.1977 66.834 -0.894487 -0.445331 0.039674 
-186.767 36.0809 38.943 -0.894487 -0.445331 0.039674 
-153.755 133.38 -7.26784 -0.395088 0.320834 -0.860797 
-173.727 215.724 32.5905 -0.395088 0.320834 -0.860797 
-150.595 218.862 23.1425 -0.395088 0.320834 -0.860797 
-159.592 241.142 47.802 -0.697449 0.6115 -0.373674 
-190.488 215.78 63.9642 -0.697449 0.6115 -0.373674 
-158.463 247.459 56.0323 -0.697449 0.6115 -0.373674 
-173.445 10.0183 46.7586 -0.504378 -0.452774 -0.735254 
-117.025 52.1137 -17.8674 -0.504378 -0.452774 -0.735254 
-102.82 0.077741 4.43188 -0.504378 -0.452774 -0.735254 
-168.668 74.4377 4.13173 -0.871367 -0.012967 -0.49046 
-198.948 61.7857 58.2643 -0.871367 -0.012967 -0.49046 
-199.487 68.7228 59.0368 -0.871367 -0.012967 -0.49046 
-199.487 68.7228 59.0368 -0.851595 0.069517 -0.519571 
-190.488 215.78 63.9642 -0.851595 0.069517 -0.519571 
-153.755 133.38 -7.26784 -0.851595 0.069517 -0.519571 
-85.2314 104.766 17.9363 0.447748 0.34601 -0.824499 
-153.755 133.38 -7.26784 0.447748 0.34601 -0.824499 
-121.807 225.744 48.8435 0.447748 0.34601 -0.824499 
-117.025 52.1137 -17.8674 0.551489 0.21506 -0.805983 
-85.2314 104.766 17.9363 0.551489 0.21506 -0.805983 
-64.6978 80.524 25.5179 0.551489 0.21506 -0.805983 
-168.668 74.4377 4.13173 -0.505706 -0.436644 -0.744045 
-117.025 52.1137 -17.8674 -0.505706 -0.436644 -0.744045 
-186.767 36.0809 38.943 -0.505706 -0.436644 -0.744045 
-64.6978 80.524 25.5179 0.921816 -0.16444 0.351019 
-94.3457 46.6887 87.5262 0.921816 -0.16444 0.351019 
-77.0811 10.9814 25.4596 0.921816 -0.16444 0.351019 
-117.025 52.1137 -17.8674 0.660713 -0.135985 -0.738219 
-77.0811 10.9814 25.4596 0.660713 -0.135985 -0.738219 
-102.82 0.077741 4.43188 0.660713 -0.135985 -0.738219 
-107.261 -12.9014 54.2956 0.155373 -0.978373 0.136548 
-107.318 -16.5254 28.3949 0.155373 -0.978373 0.136548 
-99.6621 -14.7425 32.4578 0.155373 -0.978373 0.136548 
-128.556 -86.1866 -151.729 -0.586082 -0.18999 -0.787662 
-151.101 -6.63107 -154.144 -0.586082 -0.18999 -0.787662 
-109.086 -24.0514 -181.204 -0.586082 -0.18999 -0.787662 
-128.556 -86.1866 -151.729 -0.925651 -0.247814 0.285935 
-114.724 -85.8537 -106.663 -0.925651 -0.247814 0.285935 
-137.55 -1.95785 -107.844 -0.925651 -0.247814 0.285935 
-114.724 -85.8537 -106.663 -0.066851 -0.11238 0.991414 
-87.9011 -81.2482 -104.332 -0.066851 -0.11238 0.991414 
-97.0382 -14.2828 -97.3572 -0.066851 -0.11238 0.991414 
-87.9011 -81.2482 -104.332 0.844204 0.086256 0.529037 
-64.0094 -74.9745 -143.48 0.844204 0.086256 0.529037 
-65.004 -23.7737 -150.24 0.844204 0.086256 0.529037 
-99.4944 -82.1872 -169.397 0.573636 -0.071092 -0.816019 
-109.086 -24.0514 -181.204 0.573636 -0.071092 -0.816019 
-65.004 -23.7737 -150.24 0.573636 -0.071092 -0.816019 
-151.101 -6.63107 -154.144 -0.569111 0.015975 -0.822105 
-153.009 49.3065 -151.736 -0.569111 0.015975 -0.822105 
-116.677 54.1608 -176.793 -0.569111 0.015975 -0.822105 
-137.55 -1.95785 -107.844 -0.953189 -0.029812 0.300903 
-143.582 58.5141 -120.962 -0.953189 -0.029812 0.300903 
-153.009 49.3065 -151.736 -0.953189 -0.029812 0.300903 
-137.55 -1.95785 -107.844 -0.195082 0.179233 0.964271 
-97.0382 -14.2828 -97.3572 -0.195082 0.179233 0.964271 
-109.042 64.6168 -114.451 -0.195082 0.179233 0.964271 
-97.0382 -14.2828 -97.3572 0.846424 0.256423 0.466705 
-65.004 -23.7737 -150.24 0.846424 0.256423 0.466705 
-89.1438 59.9639 -152.468 0.846424 0.256423 0.466705 
-109.086 -24.0514 -181.204 0.645846 0.105336 -0.756166 
-116.677 54.1608 -176.793 0.645846 0.105336 -0.756166 
-89.1438 59.9639 -152.468 0.645846 0.105336 -0.756166 
55.6207 62.0291 -49.865 0.499584 0.711973 0.493467 
105.185 45.2219 -75.794 0.499584 0.711973 0.493467 
38.5579 168.068 -185.583 0.499584 0.711973 0.493467 
-26.7063 156.512 -194.66 0.173512 0.320211 -0.931321 
-15.0588 219.917 -170.69 0.173512 0.320211 -0.931321 
-3.1311 218.58 -168.927 0.173512 0.320211 -0.931321 
38.5579 168.068 -185.583 0.779704 0.623073 0.061976 
-3.1311 218.58 -168.927 0.779704 0.623073 0.061976 
-2.25854 215.825 -152.206 0.779704 0.623073 0.061976 
-15.0588 219.917 -170.69 -0.788971 0.338731 -0.512627 
-26.7063 156.512 -194.66 -0.788971 0.338731 -0.512627 
-41.101 204.597 -140.732 -0.788971 0.338731 -0.512627 
-76.2667 151.159 -123.621 -0.814798 -0.078712 -0.574377 
-26.7063 156.512 -194.66 -0.814798 -0.078712 -0.574377 
-39.4644 38.9217 -160.447 -0.814798 -0.078712 -0.574377 
-39.4644 38.9217 -160.447 -0.839501 0.116866 -0.530642 
-74.7327 -24.5314 -118.626 -0.839501 0.116866 -0.530642 
-88.9844 -5.12805 -91.8056 -0.839501 0.116866 -0.530642 
-3.1311 218.58 -168.927 0.142363 0.961793 -0.233853 
-15.0588 219.917 -170.69 0.142363 0.961793 -0.233853 
-17.7046 221.474 -165.897 0.142363 0.961793 -0.233853 
-74.7327 -24.5314 -118.626 -0.089945 -0.51275 -0.853813 
-39.4644 38.9217 -160.447 -0.089945 -0.51275 -0.853813 
66.8022 -18.7348 -137.017 -0.089945 -0.51275 -0.853813 
-2.25854 215.825 -152.206 -0.109038 0.869487 0.481771 
-17.7046 221.474 -165.897 -0.109038 0.869487 0.481771 
-41.101 204.597 -140.732 -0.109038 0.869487 0.481771 
12.3024 218.032 -115.972 -0.391561 0.831955 0.393103 
-41.101 204.597 -140.732 -0.391561 0.831955 0.393103 
-44.2926 184.734 -101.874 -0.391561 0.831955 0.393103 
43.462 23.1816 -161.335 0.817296 -0.068096 -0.572181 
38.5579 168.068 -185.583 0.817296 -0.068096 -0.572181 
105.185 45.2219 -75.794 0.817296 -0.068096 -0.572181 
55.6207 62.0291 -49.865 0.656755 0.516472 0.549481 
5.2583 104.932 -29.9963 0.656755 0.516472 0.549481 
-5.28943 13.0932 68.9326 0.656755 0.516472 0.549481 
-10.5953 24.3766 62.9148 0.554935 0.579348 0.596995 
-5.28943 13.0932 68.9326 0.554935 0.579348 0.596995 
5.2583 104.932 -29.9963 0.554935 0.579348 0.596995 
-52.0212 -21.7772 35.4351 -0.893881 -0.234876 0.381851 
-73.1047 -44.107 -27.6547 -0.893881 -0.234876 0.381851 
-43.0112 -52.3404 37.7273 -0.893881 -0.234876 0.381851 
-30.7687 104.264 -10.8827 -0.768527 0.418291 0.484148 
-44.2926 184.734 -101.874 -0.768527 0.418291 0.484148 
-76.2667 151.159 -123.621 -0.768527 0.418291 0.484148 
-30.7687 104.264 -10.8827 -0.836168 0.359972 0.413814 
-89.0293 45.9121 -77.8462 -0.836168 0.359972 0.413814 
-90.0304 -3.63917 -36.765 -0.836168 0.359972 0.413814 
-90.0304 -3.63917 -36.765 -0.876919 -0.278599 0.391658 
-73.1047 -44.107 -27.6547 -0.876919 -0.278599 0.391658 
-52.0212 -21.7772 35.4351 -0.876919 -0.278599 0.391658 
-52.0212 -21.7772 35.4351 -0.614001 0.067397 0.786422 
-40.0867 -46.4757 46.8697 -0.614001 0.067397 0.786422 
-5.28943 13.0932 68.9326 -0.614001 0.067397 0.786422 
-43.0112 -52.3404 37.7273 -0.603056 -0.519567 0.605288 
-13.5798 -88.2619 36.2159 -0.603056 -0.519567 0.605288 
-2.70386 -70.2773 62.4893 -0.603056 -0.519567 0.605288 
-13.5798 -88.2619 36.2159 -0.740805 -0.618032 0.263145 
-43.0112 -52.3404 37.7273 -0.740805 -0.618032 0.263145 
-73.1047 -44.107 -27.6547 -0.740805 -0.618032 0.263145 
-74.7327 -24.5314 -118.626 -0.730768 -0.669923 -0.13108 
-18.2507 -94.0249 -78.3446 -0.730768 -0.669923 -0.13108 
-73.1047 -44.107 -27.6547 -0.730768 -0.669923 -0.13108 
-13.5798 -88.2619 36.2159 -0.218828 -0.76782 0.602135 
51.4313 -117.288 22.8294 -0.218828 -0.76782 0.602135 
32.1759 -74.9692 69.7948 -0.218828 -0.76782 0.602135 
45.4589 -30.0578 65.7468 -0.250817 0.224078 0.941743 
-40.0867 -46.4757 46.8697 -0.250817 0.224078 0.941743 
-2.70386 -70.2773 62.4893 -0.250817 0.224078 0.941743 
51.245 -127.893 -10.4779 0.806717 -0.565807 0.170502 
53.8158 -126.533 -18.128 0.806717 -0.565807 0.170502 
59.5607 -103.545 30.973 0.806717 -0.565807 0.170502 
45.2902 -73.0953 64.5058 0.854382 -0.148109 0.498092 
59.5607 -103.545 30.973 0.854382 -0.148109 0.498092 
71.7151 -94.6025 12.7836 0.854382 -0.148109 0.498092 
111.437 -4.4325 -76.1532 0.893639 0.109367 0.435256 
105.185 45.2219 -75.794 0.893639 0.109367 0.435256 
45.4589 -30.0578 65.7468 0.893639 0.109367 0.435256 
71.7151 -94.6025 12.7836 0.877422 -0.035628 0.478395 
88.8597 -103.741 -19.3419 0.877422 -0.035628 0.478395 
45.4589 -30.0578 65.7468 0.877422 -0.035628 0.478395 
59.5607 -103.545 30.973 0.370905 -0.603489 0.705854 
45.2902 -73.0953 64.5058 0.370905 -0.603489 0.705854 
32.1759 -74.9692 69.7948 0.370905 -0.603489 0.705854 
111.437 -4.4325 -76.1532 0.781163 -0.434219 -0.448595 
88.8597 -103.741 -19.3419 0.781163 -0.434219 -0.448595 
60.5155 -119.778 -53.1762 0.781163 -0.434219 -0.448595 
32.6348 -127.74 -2.16115 -0.172612 -0.93822 -0.299914 
-18.2507 -94.0249 -78.3446 -0.172612 -0.93822 -0.299914 
53.8158 -126.533 -18.128 -0.172612 -0.93822 -0.299914 
47.98 -72.52 11.872 -0.960215 0.13726 -0.2432 
67.7545 38.8354 -3.35495 -0.960215 0.13726 -0.2432 
73.3337 -5.68846 -50.512 -0.960215 0.13726 -0.2432 
47.98 -72.52 11.872 -0.566244 0.214317 0.795887 
93.4045 -82.3432 46.8351 -0.566244 0.214317 0.795887 
116.066 34.4704 31.5024 -0.566244 0.214317 0.795887 
93.4045 -82.3432 46.8351 0.505961 -0.081037 0.858741 
119.634 -92.3257 30.4389 0.505961 -0.081037 0.858741 
151.167 -4.74 20.1252 0.505961 -0.081037 0.858741 
119.634 -92.3257 30.4389 0.941841 -0.324974 -0.085596 
113.146 -96.5116 -25.0558 0.941841 -0.324974 -0.085596 
133.125 -32.4241 -48.5365 0.941841 -0.324974 -0.085596 
60.7383 -83.5654 -25.2193 -0.099491 -0.29277 -0.950993 
73.3337 -5.68846 -50.512 -0.099491 -0.29277 -0.950993 
133.125 -32.4241 -48.5365 -0.099491 -0.29277 -0.950993 
67.7545 38.8354 -3.35495 -0.897457 0.291658 -0.330919 
96.2559 108.847 -18.9458 -0.897457 0.291658 -0.330919 
109.903 95.0047 -68.1576 -0.897457 0.291658 -0.330919 
116.066 34.4704 31.5024 -0.50056 0.390672 0.772538 
131.798 113.231 1.86626 -0.50056 0.390672 0.772538 
96.2559 108.847 -18.9458 -0.50056 0.390672 0.772538 
116.066 34.4704 31.5024 0.502185 0.20585 0.839902 
151.167 -4.74 20.1252 0.502185 0.20585 0.839902 
168.295 100.417 -15.8882 0.502185 0.20585 0.839902 
151.167 -4.74 20.1252 0.965271 -0.193366 -0.175677 
133.125 -32.4241 -48.5365 0.965271 -0.193366 -0.175677 
153.836 85.0076 -63.9966 0.965271 -0.193366 -0.175677 
73.3337 -5.68846 -50.512 0.049666 -0.189871 -0.980552 
109.903 95.0047 -68.1576 0.049666 -0.189871 -0.980552 
153.836 85.0076 -63.9966 0.049666 -0.189871 -0.980552 
70.4243 -107.057 52.1687 0.977793 -0.18145 -0.104867 
107.949 107.84 30.2203 0.977793 -0.18145 -0.104867 
105.065 49.9244 103.542 0.977793 -0.18145 -0.104867 
70.4243 -107.057 52.1687 0.21684 -0.133387 -0.967051 
4.73059 -108.804 37.6793 0.21684 -0.133387 -0.967051 
41.9043 117.593 14.7875 0.21684 -0.133387 -0.967051 
4.73059 -108.804 37.6793 -0.831335 0.022948 -0.555298 
-17.692 -103.997 71.4467 -0.831335 0.022948 -0.555298 
-4.67554 74.4308 59.3334 -0.831335 0.022948 -0.555298 
-17.692 -103.997 71.4467 -0.890121 0.109302 0.442422 
13.2632 -95.082 131.524 -0.890121 0.109302 0.442422 
33.4222 39.3896 138.861 -0.890121 0.109302 0.442422 
70.6306 -104.97 103.299 0.451883 -0.101843 0.886245 
105.065 49.9244 103.542 0.451883 -0.101843 0.886245 
33.4222 39.3896 138.861 0.451883 -0.101843 0.886245 
107.949 107.84 30.2203 0.995831 -0.072126 -0.055844 
118.616 255.23 30.0701 0.995831 -0.072126 -0.055844 
122.476 257.38 96.1305 0.995831 -0.072126 -0.055844 
41.9043 117.593 14.7875 0.207529 -0.00705 -0.978203 
75.7208 277.611 20.8085 0.207529 -0.00705 -0.978203 
118.616 255.23 30.0701 0.207529 -0.00705 -0.978203 
41.9043 117.593 14.7875 -0.761456 0.178667 -0.623107 
-4.67554 74.4308 59.3334 -0.761456 0.178667 -0.623107 
42.5901 284.342 61.7627 -0.761456 0.178667 -0.623107 
-4.67554 74.4308 59.3334 -0.846568 0.199528 0.493468 
33.4222 39.3896 138.861 -0.846568 0.199528 0.493468 
72.8503 265.704 114.994 -0.846568 0.199528 0.493468 
105.065 49.9244 103.542 0.355822 0.003522 0.934547 
122.476 257.38 96.1305 0.355822 0.003522 0.934547 
72.8503 265.704 114.994 0.355822 0.003522 0.934547 
-149.825 37.4507 94.9293 -0.631056 -0.123084 0.76591 
-145.012 97.0889 108.478 -0.631056 -0.123084 0.76591 
-199.487 68.7228 59.0368 -0.631056 -0.123084 0.76591 
-199.487 68.7228 59.0368 -0.634521 -0.13399 0.761203 
-198.948 61.7857 58.2643 -0.634521 -0.13399 0.761203 
-149.825 37.4507 94.9293 -0.634521 -0.13399 0.761203 
-145.012 97.0889 108.478 -0.478281 0.141791 0.866685 
-153.955 240.135 80.1408 -0.478281 0.141791 0.866685 
-190.488 215.78 63.9642 -0.478281 0.141791 0.866685 
-149.825 37.4507 94.9293 -0.400143 -0.698093 0.59376 
-184.094 33.1977 66.834 -0.400143 -0.698093 0.59376 
-173.445 10.0183 46.7586 -0.400143 -0.698093 0.59376 
-107.227 2.13839 64.9851 -0.280552 -0.568137 0.773635 
-173.445 10.0183 46.7586 -0.280552 -0.568137 0.773635 
-125.689 -18.336 43.2542 -0.280552 -0.568137 0.773635 
-102.82 0.077741 4.43188 -0.392123 -0.720047 -0.572514 
-107.318 -16.5254 28.3949 -0.392123 -0.720047 -0.572514 
-125.689 -18.336 43.2542 -0.392123 -0.720047 -0.572514 
-107.227 2.13839 64.9851 0.909985 -0.241565 0.337007 
-107.261 -12.9014 54.2956 0.909985 -0.241565 0.337007 
-99.6621 -14.7425 32.4578 0.909985 -0.241565 0.337007 
-121.807 225.744 48.8435 0.324396 0.757722 -0.566237 
-150.595 218.862 23.1425 0.324396 0.757722 -0.566237 
-159.592 241.142 47.802 0.324396 0.757722 -0.566237 
-103.376 98.6043 93.0811 0.854179 0.276952 0.440087 
-87.7683 104.187 59.2741 0.854179 0.276952 0.440087 
-121.807 225.744 48.8435 0.854179 0.276952 0.440087 
-94.3457 46.6887 87.5262 0.860745 0.141759 0.488899 
-64.6978 80.524 25.5179 0.860745 0.141759 0.488899 
-87.7683 104.187 59.2741 0.860745 0.141759 0.488899 
-102.82 0.077741 4.43188 0.622573 -0.660632 -0.419486 
-77.0811 10.9814 25.4596 0.622573 -0.660632 -0.419486 
-99.6621 -14.7425 32.4578 0.622573 -0.660632 -0.419486 
-94.3457 46.6887 87.5262 0.347846 -0.039722 0.93671 
-103.376 98.6043 93.0811 0.347846 -0.039722 0.93671 
-145.012 97.0889 108.478 0.347846 -0.039722 0.93671 
-159.592 241.142 47.802 -0.697449 0.611497 -0.373679 
-173.727 215.724 32.5905 -0.697449 0.611497 -0.373679 
-190.488 215.78 63.9642 -0.697449 0.611497 -0.373679 
-173.445 10.0183 46.7586 -0.489766 -0.470467 -0.734023 
-186.767 36.0809 38.943 -0.489766 -0.470467 -0.734023 
-117.025 52.1137 -17.8674 -0.489766 -0.470467 -0.734023 
-168.668 74.4377 4.13173 -0.868098 -0.039457 -0.494822 
-186.767 36.0809 38.943 -0.868098 -0.039457 -0.494822 
-198.948 61.7857 58.2643 -0.868098 -0.039457 -0.494822 
-173.727 215.724 32.5905 -0.881924 0.014163 -0.471179 
-153.755 133.38 -7.26784 -0.881924 0.014163 -0.471179 
-190.488 215.78 63.9642 -0.881924 0.014163 -0.471179 
-168.668 74.4377 4.13173 -0.87045 0.128314 -0.475239 
-199.487 68.7228 59.0368 -0.87045 0.128314 -0.475239 
-153.755 133.38 -7.26784 -0.87045 0.128314 -0.475239 
-150.595 218.862 23.1425 0.612519 0.244739 -0.751614 
-121.807 225.744 48.8435 0.612519 0.244739 -0.751614 
-153.755 133.38 -7.26784 0.612519 0.244739 -0.751614 
-85.2314 104.766 17.9363 0.467037 0.44583 -0.763618 
-122.122 88.1656 -14.3184 0.467037 0.44583 -0.763618 
-153.755 133.38 -7.26784 0.467037 0.44583 -0.763618 
-117.025 52.1137 -17.8674 0.607056 0.162402 -0.777887 
-122.122 88.1656 -14.3184 0.607056 0.162402 -0.777887 
-85.2314 104.766 17.9363 0.607056 0.162402 -0.777887 
-117.025 52.1137 -17.8674 0.671202 -0.118906 -0.731676 
-64.6978 80.524 25.5179 0.671202 -0.118906 -0.731676 
-77.0811 10.9814 25.4596 0.671202 -0.118906 -0.731676 
-107.261 -12.9014 54.2956 0.204895 -0.969404 0.135183 
-125.689 -18.336 43.2542 0.204895 -0.969404 0.135183 
-107.318 -16.5254 28.3949 0.204895 -0.969404 0.135183 
3 0 1 2 
3 3 4 5 
3 6 7 8 
3 9 10 11 
3 12 13 14 
3 15 16 17 
3 18 19 20 
3 21 22 23 
3 24 25 26 
3 27 28 29 
3 30 31 32 
3 33 34 35 
3 36 37 38 
3 39 40 41 
3 42 43 44 
3 45 46 47 
3 48 49 50 
3 51 52 53 
3 54 55 56 
3 57 58 59 
3 60 61 62 
3 63 64 65 
3 66 67 68 
3 69 70 71 
3 72 73 74 
3 75 76 77 
3 78 79 80 
3 81 82 83 
3 84 85 86 
3 87 88 89 
3 90 91 92 
3 93 94 95 
3 96 97 98 
3 99 100 101 
3 102 103 104 
3 105 106 107 
3 108 109 110 
3 111 112 113 
3 114 115 116 
3 117 118 119 
3 120 121 122 
3 123 124 125 
3 126 127 128 
3 129 130 131 
3 132 133 134 
3 135 136 137 
3 138 139 140 
3 141 142 143 
3 144 145 146 
3 147 148 149 
3 150 151 152 
3 153 154 155 
3 156 157 158 
3 159 160 161 
3 162 163 164 
3 165 166 167 
3 168 169 170 
3 171 172 173 
3 174 175 176 
3 177 178 179 
3 180 181 182 
3 183 184 185 
3 186 187 188 
3 189 190 191 
3 192 193 194 
3 195 196 197 
3 198 199 200 
3 201 202 203 
3 204 205 206 
3 207 208 209 
3 210 211 212 
3 213 214 215 
3 216 217 218 
3 219 220 221 
3 222 223 224 
3 225 226 227 
3 228 229 230 
3 231 232 233 
3 234 235 236 
3 237 238 239 
3 240 241 242 
3 243 244 245 
3 246 247 248 
3 249 250 251 
3 252 253 254 
3 255 256 257 
3 258 259 260 
3 261 262 263 
3 264 265 266 
3 267 268 269 
3 270 271 272 
3 273 274 275 
3 276 277 278 
3 279 280 281 
3 282 283 284 
3 285 286 287 
3 288 289 290 
3 291 292 293 
3 294 295 296 
3 297 298 299 
3 300 301 302 
3 303 304 305 
3 306 307 308 
3 309 310 311 
3 312 313 314 
3 315 316 317 
3 318 319 320 
3 321 322 323 
3 324 325 326 
3 327 328 329 
3 330 331 332 
3 333 334 335 
3 336 337 338 
3 339 340 341 
3 342 343 344 
3 345 346 347 
3 348 349 350 
3 351 352 353 
3 354 355 356 
3 357 358 359 
3 360 361 362 
3 363 364 365 
3 366 367 368 
3 369 370 371 
3 372 373 374 
3 375 376 377 
3 378 379 380 
3 381 382 383 
3 384 385 386 
3 387 388 389 
3 390 391 392 
3 393 394 395 
3 396 397 398 
3 399 400 401 
3 402 403 404 
3 405 406 407 
3 408 409 410 
3 411 412 413 
3 414 415 416 
3 417 418 419 
3 420 421 422 
3 423 424 425 
3 426 427 428 
3 429 430 431 
3 432 433 434 
3 435 436 437 
3 438 439 440 
3 441 442 443 
3 444 445 446 
3 447 448 449 
3 450 451 452 
3 453 454 455 
3 456 457 458 
3 459 460 461 
3 462 463 464 
3 465 466 467 
3 468 469 470 
3 471 472 473 
3 474 475 476 
3 477 478 479 
3 480 481 482 
3 483 484 485 
3 486 487 488 
3 489 490 491 
3 492 493 494 
3 495 496 497 
3 498 499 500 
3 501 502 503 
3 504 505 506 
3 507 508 509 
3 510 511 512 
3 513 514 515 
3 516 517 518 
3 519 520 521 
3 522 523 524 
3 525 526 527 
3 528 529 530 
3 531 532 533 
3 534 535 536 
3 537 538 539 
3 540 541 542 
3 543 544 545 
3 546 547 548 
3 549 550 551 
3 552 553 554 
3 555 556 557 
3 558 559 560 
3 561 562 563 
3 564 565 566 
3 567 568 569 
3 570 571 572 
3 573 574 575 
3 576 577 578 
3 579 580 581 
3 582 583 584 
3 585 586 587 
3 588 589 590 
3 591 592 593 
3 594 595 596 
3 597 598 599 
3 600 601 602 
3 603 604 605 
3 606 607 608 
3 609 610 611 
3 612 613 614 
3 615 616 617 
3 618 619 620 
3 621 622 623 
3 624 625 626 
3 627 628 629 
3 630 631 632 
3 633 634 635 
3 636 637 638 
3 639 640 641 
3 642 643 644 
3 645 646 647 
3 648 649 650 
3 651 652 653 
3 654 655 656 
3 657 658 659 
3 660 661 662 
3 663 664 665 
3 666 667 668 
3 669 670 671 
3 672 673 674 
3 675 676 677 
3 678 679 680 
3 681 682 683 
3 684 685 686 
3 687 688 689 
3 690 691 692 
3 693 694 695 
3 696 697 698 
3 699 700 701 
3 702 703 704 
3 705 706 707 
3 708 709 710 
3 711 712 713 
3 714 715 716 
3 717 718 719 
3 720 721 722 
3 723 724 725 
3 726 727 728 
3 729 730 731 
3 732 733 734 
3 735 736 737 
