ply
format ascii 1.0
comment VCGLIB generated
comment TextureFile dummy.png
element vertex 461
property float x
property float y
property float z
property float nx
property float ny
property float nz
property float texture_u
property float texture_v
element face 208
property list uchar int vertex_indices
end_header
123.7325 488.846 -39.00125 6e-06 -6e-06 -1 0.346464 0.775611
123.7325 400.169 -39.00075 6e-06 -6e-06 -1 0.312443 0.775611
77.9855 439.993 -39.00125 6e-06 -6e-06 -1 0.327721 0.75806
250.1295 488.846 -39.00125 0 -6e-06 -1 0.346464 0.824103
123.7325 400.169 -39.00075 0 -6e-06 -1 0.312443 0.775611
123.7325 488.846 -39.00125 0 -6e-06 -1 0.346464 0.775611
118.1445 500 -30.54135 -0.2414991 0.2920831 -0.9254003 0.100189 0.781154
77.9855 439.993 -39.00125 -0.2414991 0.2920831 -0.9254003 0.077167 0.765747
51.0285 444.507 -30.54135 -0.2414991 0.2920831 -0.9254003 0.078899 0.755405
77.9855 439.993 -39.00125 -0.3348251 -0.4049571 -0.8508242 0.077167 0.765747
118.1445 389.015 -30.54135 -0.3348251 -0.4049571 -0.8508242 0.057609 0.781154
51.0285 444.507 -30.54135 -0.3348251 -0.4049571 -0.8508242 0.078899 0.755405
123.7325 400.169 -39.00075 0 -0.6042818 -0.7967707 0.061888 0.783298
250.1295 389.015 -30.54135 0 -0.6042818 -0.7967707 0.057609 0.83179
118.1445 389.015 -30.54135 0 -0.6042818 -0.7967707 0.057609 0.781154
250.1295 500 -30.54135 0 0.6043159 -0.7967448 0.100189 0.83179
123.7325 488.846 -39.00125 0 0.6043159 -0.7967448 0.095909 0.783298
118.1445 500 -30.54135 0 0.6043159 -0.7967448 0.100189 0.781154
250.1295 400.169 -39.00075 1 0 0 0.044004 0.953193
250.1295 500 -30.54135 1 0 0 0.040759 0.991493
250.1295 389.015 -30.54135 1 0 0 0.040759 0.948914
-28.85249 441.715 -39.00125 8e-06 6e-06 -1 0.445734 0.961998
29.1105 441.715 -39.00085 8e-06 6e-06 -1 0.423497 0.961998
-2.680496 406.755 -39.00125 8e-06 6e-06 -1 0.435694 0.948586
-28.85249 441.715 -39.00125 8e-06 0 -1 0.445734 0.961998
29.1105 500 -39.00085 8e-06 0 -1 0.423497 0.984359
29.1105 441.715 -39.00085 8e-06 0 -1 0.423497 0.961998
-36.1425 437.534 -30.54135 -0.5517799 -0.3985209 -0.7326118 0.197976 0.968081
-2.680496 406.755 -39.00125 -0.5517799 -0.3985209 -0.7326118 0.185139 0.956273
0.1295013 387.312 -30.54135 -0.5517799 -0.3985209 -0.7326118 0.184061 0.948814
-2.680496 406.755 -39.00125 0.426789 -0.308247 -0.850197 0.185139 0.956273
36.4015 437.534 -30.54135 0.426789 -0.308247 -0.850197 0.170145 0.968081
0.1295013 387.312 -30.54135 0.426789 -0.308247 -0.850197 0.184061 0.948814
29.1105 441.715 -39.00085 0.7574931 0 -0.6528431 0.172942 0.969686
36.4015 500 -30.54135 0.7574931 0 -0.6528431 0.170145 0.992047
36.4015 437.534 -30.54135 0.7574931 0 -0.6528431 0.170145 0.968081
-36.1425 500 -30.54135 -0.7575209 -0 -0.652811 0.197976 0.992047
-28.85249 441.715 -39.00125 -0.7575209 -0 -0.652811 0.195179 0.969686
-36.1425 437.534 -30.54135 -0.7575209 -0 -0.652811 0.197976 0.968081
29.1105 500 -39.00085 0 1 0 0.073243 0.973949
-36.1425 500 -30.54135 0 1 0 0.076489 0.948914
36.4015 500 -30.54135 0 1 0 0.076489 0.976746
-123.9925 400.168 -39.00125 -5e-06 5e-06 -1 0.329073 0.922177
-123.9925 488.846 -39.00085 -5e-06 5e-06 -1 0.363094 0.922177
-75.08351 441.311 -39.00125 -5e-06 5e-06 -1 0.344857 0.940942
-123.9925 400.168 -39.00125 0 5e-06 -1 0.329073 0.922177
-134.8935 400.168 -39.00125 0 5e-06 -1 0.329073 0.917995
-123.9925 488.846 -39.00085 0 5e-06 -1 0.363094 0.922177
-249.8705 488.846 -39.00085 0 5e-06 -1 0.363094 0.873884
-192.6735 411.367 -39.00125 0 5e-06 -1 0.333369 0.895828
-222.5755 400.168 -39.00125 0 5e-06 -1 0.329073 0.884356
-249.8705 400.168 -39.00125 0 5e-06 -1 0.329073 0.873884
-118.4035 389.015 -30.54135 0.3532749 -0.4272709 -0.8322478 0.074239 0.932009
-75.08351 441.311 -39.00125 0.3532749 -0.4272709 -0.8322478 0.094302 0.948629
-51.28749 444.507 -30.54135 0.3532749 -0.4272709 -0.8322478 0.095529 0.957759
-75.08351 441.311 -39.00125 0.2757221 0.3334731 -0.9015393 0.094302 0.948629
-118.4035 500 -30.54135 0.2757221 0.3334731 -0.9015393 0.116819 0.932009
-51.28749 444.507 -30.54135 0.2757221 0.3334731 -0.9015393 0.095529 0.957759
-123.9925 488.846 -39.00085 0 0.6042771 -0.7967742 0.112539 0.929865
-249.8705 500 -30.54135 0 0.6042771 -0.7967742 0.116819 0.881572
-118.4035 500 -30.54135 0 0.6042771 -0.7967742 0.116819 0.932009
-249.8705 400.168 -39.00125 -0 -0.6043159 -0.7967448 0.078518 0.881572
-222.5755 400.168 -39.00125 -0 -0.6043159 -0.7967448 0.078518 0.892044
-249.8705 389.015 -30.54135 -0 -0.6043159 -0.7967448 0.074239 0.881572
-123.9925 400.168 -39.00125 0 -0.6043159 -0.7967448 0.078518 0.929865
-118.4035 389.015 -30.54135 0 -0.6043159 -0.7967448 0.074239 0.932009
-134.8935 400.168 -39.00125 0 -0.6043159 -0.7967448 0.078518 0.925683
-182.7795 394.043 -34.35495 0 -0.6043159 -0.7967448 0.076168 0.907312
-118.4035 389.015 -30.54135 0 -0.604317 -0.796744 0.074239 0.932009
-249.8705 389.015 -30.54135 0 -0.604317 -0.796744 0.074239 0.881572
-182.7795 394.043 -34.35495 0 -0.604317 -0.796744 0.076168 0.907312
-249.8705 488.846 -39.00085 -1 -0 -0 0.046946 0.987214
-249.8705 389.015 -30.54135 -1 -0 -0 0.050192 0.948914
-249.8705 500 -30.54135 -1 -0 -0 0.050192 0.991493
250.1295 500 -30.54135 -0 -0 -1 0.202205 0.947874
193.4832 335.368 -30.54135 -0 -0 -1 0.139044 0.926142
162.4949 364.266 -30.54135 -0 -0 -1 0.150131 0.914253
162.4949 364.266 -30.54135 -0.5708418 -0.6228178 -0.5350118 0.154362 0.895156
187.082 330.01 -16.89675 -0.5708418 -0.6228178 -0.5350118 0.159596 0.882013
157.1196 357.472 -16.89675 -0.5708418 -0.6228178 -0.5350118 0.159596 0.892549
-76.46849 357.472 -16.89675 -0.2109898 0.7993254 -0.5626386 0.070743 0.961466
-76.46849 357.472 -16.89675 -0.2109898 0.7993254 -0.5626386 0.070743 0.961466
-14.34349 364.266 -30.54135 -0.2109898 0.7993254 -0.5626386 0.065509 0.9853
-162.2355 364.266 -30.54135 0.5829772 -0.6251402 -0.5189772 0.151927 0.895156
-186.8235 330.01 -16.89675 0.5829772 -0.6251402 -0.5189772 0.146692 0.882013
-193.2245 335.368 -30.54135 0.5829772 -0.6251402 -0.5189772 0.151927 0.884069
-193.2245 0 -30.54125 0 -1 0 0.109053 0.970646
-186.8235 0 -16.89675 0 -1 0 0.103818 0.973102
-249.8705 0 -30.54125 0 -1 0 0.109053 0.948914
187.082 0 -16.89675 0 -1 0 0.130115 0.948914
193.4832 0 -30.54125 0 -1 0 0.135349 0.95137
250.1295 0 -30.54125 0 -1 0 0.135349 0.973102
-193.2245 335.368 -30.54135 0 0 -1 0.139044 0.777781
-250.1295 500 -30.54135 0 0 -1 0.202205 0.755949
-162.2355 364.266 -30.54135 0 0 -1 0.150131 0.78967
-109.1855 364.266 -30.54135 0 0 -1 0.150131 0.810023
-67.57451 373.781 -30.54135 0 0 -1 0.153781 0.825987
-14.34349 364.266 -30.54135 -0 -0 -1 0.150131 0.846409
250.1295 500 30.54125 0 1 0 0.228797 0.947874
-250.1295 500 -30.54135 0 1 0 0.205363 0.755949
-250.1295 500 30.54125 0 1 0 0.228797 0.755949
-249.8705 0 30.54135 0 -1 0 0.085618 0.948914
123.7325 488.846 39.00125 5e-06 -5e-06 1 0.283363 0.853581
76.2095 443.158 39.00125 5e-06 -5e-06 1 0.300891 0.835348
123.7325 400.169 39.00075 5e-06 -5e-06 1 0.317384 0.853581
123.7325 488.846 39.00125 0 -5e-06 1 0.283363 0.853581
123.7325 400.169 39.00075 0 -5e-06 1 0.317384 0.853581
250.1295 488.846 39.00125 0 -5e-06 1 0.283363 0.902072
144.0425 400.169 39.00075 0 -5e-06 1 0.317384 0.861372
190.7523 414.836 39.00085 0 -5e-06 1 0.311757 0.879292
250.1295 400.169 39.00075 0 -5e-06 1 0.317384 0.902072
238.5866 400.169 39.00075 0 -5e-06 1 0.317384 0.897644
118.1445 500 30.54125 -0.401252 0.417376 0.815349 0.028529 0.859124
76.2095 443.158 39.00125 -0.401252 0.417376 0.815349 0.050336 0.843036
123.7325 488.846 39.00125 -0.401252 0.417376 0.815349 0.032808 0.861268
118.1445 389.015 30.54125 -0.3129321 -0.3784781 0.8711072 0.071109 0.859124
76.2095 443.158 39.00125 -0.3129321 -0.3784781 0.8711072 0.050336 0.843036
51.0285 444.507 30.54125 -0.3129321 -0.3784781 0.8711072 0.049819 0.833375
250.1295 400.169 39.00075 0 -0.6042811 0.7967712 0.066829 0.90976
238.5866 400.169 39.00075 0 -0.6042811 0.7967712 0.066829 0.905332
250.1295 389.015 30.54125 0 -0.6042811 0.7967712 0.071109 0.90976
123.7325 400.169 39.00075 0 -0.6042811 0.7967712 0.066829 0.861268
118.1445 389.015 30.54125 0 -0.6042811 0.7967712 0.071109 0.859124
144.0425 400.169 39.00075 0 -0.6042811 0.7967712 0.066829 0.86906
238.5866 400.169 39.00075 0 -0.6042818 0.7967707 0.066829 0.905332
185.6925 394.383 34.61265 0 -0.6042818 0.7967707 0.069049 0.885039
250.1295 389.015 30.54125 0 -0.6042818 0.7967707 0.071109 0.90976
250.1295 389.015 30.54125 0 -0.6042789 0.7967729 0.071109 0.90976
185.6925 394.383 34.61265 0 -0.6042789 0.7967729 0.069049 0.885039
118.1445 389.015 30.54125 0 -0.6042789 0.7967729 0.071109 0.859124
118.1445 389.015 30.54125 0 -0.6042818 0.7967707 0.071109 0.859124
144.0425 400.169 39.00075 0 -0.6042818 0.7967707 0.066829 0.86906
250.1295 500 30.54125 0 0.6043159 0.7967448 0.028529 0.90976
123.7325 488.846 39.00125 0 0.6043159 0.7967448 0.032808 0.861268
250.1295 488.846 39.00125 0 0.6043159 0.7967448 0.032808 0.90976
250.1295 400.169 39.00075 1 0 0 0.053134 0.953193
250.1295 500 30.54125 1 0 0 0.056379 0.991493
250.1295 488.846 39.00125 1 0 0 0.053134 0.987214
-28.85249 441.715 39.00125 8e-06 7e-06 1 0.476671 0.963487
-1.241501 407.34 39.00125 8e-06 7e-06 1 0.466079 0.976676
29.1105 441.715 39.00075 8e-06 7e-06 1 0.454434 0.963487
-28.85249 441.715 39.00125 8e-06 0 1 0.476671 0.963487
29.1105 500 39.00075 8e-06 0 1 0.454434 0.941126
-28.85249 500 39.00125 8e-06 0 1 0.476671 0.941126
-36.1425 437.534 30.54125 -0.5564358 -0.4469348 0.7004488 0.037653 0.97278
-1.241501 407.34 39.00125 -0.5564358 -0.4469348 0.7004488 0.024263 0.984363
-28.85249 441.715 39.00125 -0.5564358 -0.4469348 0.7004488 0.034856 0.971175
36.4015 437.534 30.54125 0.446089 -0.322187 0.8349851 0.009821 0.97278
-1.241501 407.34 39.00125 0.446089 -0.322187 0.8349851 0.024263 0.984363
0.1295013 387.312 30.54125 0.446089 -0.322187 0.8349851 0.023737 0.992047
36.4015 500 30.54125 0.7574931 0 0.6528431 0.009821 0.948814
29.1105 441.715 39.00075 0.7574931 0 0.6528431 0.012619 0.971175
36.4015 437.534 30.54125 0.7574931 0 0.6528431 0.009821 0.97278
-36.1425 500 30.54125 -0.7575209 0 0.652811 0.037653 0.948814
-28.85249 441.715 39.00125 -0.7575209 0 0.652811 0.034856 0.971175
-28.85249 500 39.00125 -0.7575209 0 0.652811 0.034856 0.948814
29.1105 500 39.00075 1e-06 1 0 0.082676 0.973949
-36.1425 500 30.54125 1e-06 1 0 0.079431 0.948914
-28.85249 500 39.00125 1e-06 1 0 0.082676 0.951711
-121.2155 394.625 34.79695 -0.06756199 -0.214621 0.9743579 0.160299 0.946099
-111.3625 410.611 39.00125 -0.06756199 -0.214621 0.9743579 0.154166 0.949879
-123.9925 414.586 39.00115 -0.06756199 -0.214621 0.9743579 0.152641 0.945033
-121.2155 394.625 34.79695 0.08391703 -0.1941781 0.9773704 0.160299 0.946099
-123.9925 414.586 39.00115 0.08391703 -0.1941781 0.9773704 0.152641 0.945033
-157.3555 400.168 39.00125 0.08391703 -0.1941781 0.9773704 0.158172 0.932234
-118.4035 500 30.54125 0.3639682 0.4402041 0.8208213 0.119872 0.947177
-70.3665 444.507 39.00125 0.3639682 0.4402041 0.8208213 0.141162 0.965607
-51.28749 444.507 30.54125 0.3639682 0.4402041 0.8208213 0.141162 0.972926
-249.8705 500 30.54125 0 0.6042771 0.7967742 0.119872 0.89674
-123.9925 488.846 39.00075 0 0.6042771 0.7967742 0.124151 0.945033
-118.4035 500 30.54125 0 0.6042771 0.7967742 0.119872 0.947177
-249.8705 488.846 39.00075 -1 0 0 0.062567 0.987214
-249.8705 389.015 30.54125 -1 0 0 0.059321 0.948914
-249.8705 400.168 39.00125 -1 0 0 0.062567 0.953193
250.1295 500 30.54125 0 0 1 0.040708 0.94733
162.4949 364.266 30.54125 0 0 1 0.092783 0.913709
193.4832 335.368 30.54135 0 0 1 0.10387 0.925597
162.4949 364.266 30.54125 -0.5829769 -0.6251408 0.5189769 0.177796 0.895156
187.082 330.01 16.89675 -0.5829769 -0.6251408 0.5189769 0.172561 0.882013
193.4832 335.368 30.54135 -0.5829769 -0.6251408 0.5189769 0.177796 0.884069
-186.8235 330.01 16.89675 0.5829769 -0.6251399 0.5189779 0.133727 0.882013
-162.2355 364.266 30.54125 0.5829769 -0.6251399 0.5189779 0.128493 0.895156
-193.2245 335.368 30.54135 0.5829769 -0.6251399 0.5189779 0.128493 0.884069
-193.2245 0 30.54135 0 -1 0 0.085618 0.970646
-186.8235 0 16.89685 0 -1 0 0.090853 0.973102
187.082 0 16.89685 0 -1 0 0.11715 0.948914
250.1295 0 30.54135 0 -1 0 0.111915 0.973102
193.4832 0 30.54135 0 -1 0 0.111915 0.95137
-193.2245 335.368 30.54135 0 0 1 0.10387 0.777237
-162.2355 364.266 30.54125 0 0 1 0.092783 0.789126
-250.1295 500 30.54125 0 0 1 0.040708 0.755405
-12.01949 364.266 30.54125 0 0 1 0.092783 0.846757
-53.8485 371.412 30.54125 0 0 1 0.090041 0.830709
-119.0875 364.266 30.54125 0 0 1 0.092783 0.805679
162.4949 364.266 30.54125 0 -0.895163 0.445739 0.102623 0.879988
-12.01949 364.266 30.54125 0 -0.895163 0.445739 0.102623 0.813036
157.1196 357.472 16.89675 0 -0.895163 0.445739 0.107858 0.877926
-162.2355 364.266 30.54125 9.999995e-07 -0.8951626 0.4457398 0.102623 0.755405
-156.8605 357.472 16.89675 9.999995e-07 -0.8951626 0.4457398 0.107858 0.757467
-119.0875 364.266 30.54125 9.999995e-07 -0.8951626 0.4457398 0.102623 0.771959
-119.0875 364.266 30.54125 0 -0.895162 0.445741 0.102623 0.771959
-156.8605 357.472 16.89675 0 -0.895162 0.445741 0.107858 0.757467
-59.5135 359.941 21.85385 0 -0.895162 0.445741 0.105956 0.794815
-156.8605 357.472 16.89675 0 -0.8951624 0.4457402 0.107858 0.757467
157.1196 357.472 16.89675 0 -0.8951624 0.4457402 0.107858 0.877926
-59.5135 359.941 21.85385 0 -0.8951624 0.4457402 0.105956 0.794815
-59.5135 359.941 21.85385 0 -0.895163 0.445739 0.105956 0.794815
187.082 330.01 16.89675 -0.6756769 -0.7371979 0 0.172561 0.882013
157.1196 357.472 -16.89675 -0.6756769 -0.7371979 0 0.159596 0.892549
187.082 330.01 -16.89675 -0.6756769 -0.7371979 0 0.159596 0.882013
-156.8605 357.472 16.89675 0.6756769 -0.7371979 0 0.133727 0.892549
-186.8235 330.01 -16.89675 0.6756769 -0.7371979 0 0.146692 0.882013
-156.8605 357.472 -16.89675 0.6756769 -0.7371979 0 0.146692 0.892549
-156.8605 357.472 -16.89675 -0 -1 -0 0.120823 0.757467
-76.46849 357.472 -16.89675 -0 -1 -0 0.120823 0.78831
-156.8605 357.472 16.89675 -0 -1 -0 0.107858 0.757467
157.1196 357.472 16.89675 0 -1 0 0.107858 0.877926
157.1196 357.472 -16.89675 -0 -1 -0 0.120823 0.877926
-186.8235 170.385 -16.89675 0.9053229 0 -0.424724 0.146692 0.820774
-186.8235 0 -16.89675 0.9053229 0 -0.424724 0.146692 0.755405
-188.8195 170.304 -21.15205 0.9053229 0 -0.424724 0.148325 0.820742
-193.2245 0 -30.54125 0.9053229 0 -0.424724 0.151927 0.755405
-193.2245 40.51649 -30.54125 0.9053229 0 -0.424724 0.151927 0.770949
-249.8705 0 -30.54125 -0 -0 -1 0.01038 0.756049
-193.2245 237.484 -30.54125 0 0 -1 0.101491 0.777781
-199.1595 172.697 -30.54125 -0 -0 -1 0.076635 0.775504
-193.2245 0 -30.54125 0 0 -1 0.01038 0.777781
-193.2245 40.51649 -30.54125 0 0 -1 0.025924 0.777781
-186.8235 167.926 13.26655 1 0 0 0.13512 0.81983
-186.8235 0 -16.89675 1 0 0 0.146692 0.755405
-186.8235 170.385 -16.89675 1 0 0 0.146692 0.820774
-250.1295 500 -30.54135 -0.9999999 -0.0005189999 0 0.014839 0.94723
-249.8705 0 30.54135 -0.9999999 -0.0005189999 0 0.038274 0.755405
-250.1295 500 30.54125 -0.9999999 -0.0005189999 0 0.038274 0.94723
-249.8705 0 30.54135 0 0 1 0.232534 0.755505
-198.7715 93.25351 30.54135 0 0 1 0.196757 0.775109
-193.2245 0 30.54135 0 0 1 0.232534 0.777237
-198.7715 93.25351 30.54135 0.7949454 0.01311201 0.6065394 0.128493 0.791182
-186.8235 0 16.89685 0.7949454 0.01311201 0.6065394 0.133727 0.755405
-186.8235 167.926 13.26655 0.7949454 0.01311201 0.6065394 0.13512 0.81983
200.0599 216.788 -30.54125 -0.7777352 0.006998002 -0.6285532 0.154362 0.838576
187.082 0 -16.89675 -0.7777352 0.006998002 -0.6285532 0.159596 0.755405
187.082 271.331 -13.87595 -0.7777352 0.006998002 -0.6285532 0.160755 0.859501
250.1295 0 -30.54125 0 0 -1 0.01038 0.947874
200.0599 216.788 -30.54125 0 0 -1 0.093551 0.928665
193.4832 0 -30.54125 0 0 -1 0.01038 0.926142
250.1295 0 30.54135 0 0 1 0.232534 0.94733
193.4832 306.846 30.54135 0 0 1 0.114812 0.925597
193.4832 306.846 30.54135 -1e-06 0 1 0.114812 0.925597
202.4078 252.405 30.54135 -1e-06 0 1 0.135699 0.929022
250.1295 0 30.54135 -1e-06 0 1 0.232534 0.94733
202.4078 252.405 30.54135 0 0 1 0.135699 0.929022
193.4832 194.865 30.54135 0 0 1 0.157774 0.925597
193.4832 0 30.54135 0 0 1 0.232534 0.925597
190.0251 250.76 23.17015 -0.9053226 0 0.4247248 0.174968 0.85161
187.082 249.346 16.89675 -0.9053226 0 0.4247248 0.172561 0.851067
193.4832 194.865 30.54135 -0.9053226 0 0.4247248 0.177796 0.830165
187.082 249.346 16.89675 -0.9053229 0 0.424724 0.172561 0.851067
187.082 0 16.89685 -0.9053229 0 0.424724 0.172561 0.755405
193.4832 194.865 30.54135 -0.9053229 0 0.424724 0.177796 0.830165
193.4832 0 30.54135 -0.9053229 0 0.424724 0.177796 0.755405
250.1295 500 30.54125 1 0 0 0.180231 0.94723
250.1295 0 -30.54125 1 0 0 0.203665 0.755405
250.1295 500 -30.54135 1 0 0 0.203665 0.94723
187.082 249.346 16.89675 -1 0 0 0.172561 0.851067
187.082 0 -16.89675 -1 0 0 0.159596 0.755405
187.082 0 16.89685 -1 0 0 0.172561 0.755405
-14.34349 364.266 -30.54135 0 -0.895162 -0.445741 0.126058 0.812144
157.1196 357.472 -16.89675 0 -0.895162 -0.445741 0.120823 0.877926
-76.46849 357.472 -16.89675 0 -0.895162 -0.445741 0.120823 0.78831
-156.8605 357.472 -16.89675 0 -0.8951636 -0.4457378 0.120823 0.757467
-109.1855 364.266 -30.54135 0 -0.8951636 -0.4457378 0.126058 0.775758
-76.46849 357.472 -16.89675 0 -0.8951636 -0.4457378 0.120823 0.78831
-76.46849 357.472 -16.89675 -0.107734 -0.6027231 -0.7906442 0.147525 0.822574
-67.57451 373.781 -30.54135 -0.107734 -0.6027231 -0.7906442 0.153781 0.825987
-14.34349 364.266 -30.54135 -0.107734 -0.6027231 -0.7906442 0.150131 0.846409
-76.46849 357.472 -16.89675 0.094964 0.963539 0.250149 0.070743 0.961466
-109.1855 364.266 -30.54135 0.094964 0.963539 0.250149 0.065509 0.948914
-76.46849 357.472 -16.89675 0.094964 0.963539 0.250149 0.070743 0.961466
-109.1855 364.266 -30.54135 0.156059 -0.682492 -0.714038 0.150131 0.810023
-67.57451 373.781 -30.54135 0.156059 -0.682492 -0.714038 0.153781 0.825987
-76.46849 357.472 -16.89675 0.156059 -0.682492 -0.714038 0.147525 0.822574
-188.8195 170.304 -21.15205 0.6632698 -0.06075899 -0.7459098 0.075717 0.779471
-199.1595 172.697 -30.54125 0.6632698 -0.06075899 -0.7459098 0.076635 0.775504
-193.2245 237.484 -30.54125 0.6632698 -0.06075899 -0.7459098 0.101491 0.777781
-193.2245 237.484 -30.54125 0.1968569 0.1483579 0.9691426 0.167194 0.89674
-188.8195 170.304 -21.15205 0.1968569 0.1483579 0.9691426 0.165504 0.922514
-188.8195 170.304 -21.15205 0.1968569 0.1483579 0.9691426 0.165504 0.922514
-188.8195 170.304 -21.15205 0.198462 -0.07741801 0.9770462 0.165504 0.922514
-188.8195 170.304 -21.15205 0.198462 -0.07741801 0.9770462 0.165504 0.922514
-193.2245 40.51649 -30.54125 0.198462 -0.07741801 0.9770462 0.167194 0.972307
-193.2245 40.51649 -30.54125 0.6757851 0.030342 -0.736474 0.025924 0.777781
-199.1595 172.697 -30.54125 0.6757851 0.030342 -0.736474 0.076635 0.775504
-188.8195 170.304 -21.15205 0.6757851 0.030342 -0.736474 0.075717 0.779471
-182.7795 394.043 -34.35495 -0.05587301 -0.2882781 -0.9559153 0.076168 0.907312
-192.6735 411.367 -39.00125 -0.05587301 -0.2882781 -0.9559153 0.082814 0.903516
-134.8935 400.168 -39.00125 -0.05587301 -0.2882781 -0.9559153 0.078518 0.925683
-222.5755 400.168 -39.00125 0.08053297 -0.2150289 -0.9732816 0.078518 0.892044
-192.6735 411.367 -39.00125 0.08053297 -0.2150289 -0.9732816 0.082814 0.903516
-182.7795 394.043 -34.35495 0.08053297 -0.2150289 -0.9732816 0.076168 0.907312
190.0251 250.76 23.17015 -0.5016908 -0.08224197 0.8611287 0.174968 0.85161
202.4078 252.405 30.54135 -0.5016908 -0.08224197 0.8611287 0.177796 0.85224
193.4832 306.846 30.54135 -0.5016908 -0.08224197 0.8611287 0.177796 0.873127
193.4832 194.865 30.54135 -0.5177091 0.08029901 0.8517801 0.177796 0.830165
202.4078 252.405 30.54135 -0.5177091 0.08029901 0.8517801 0.177796 0.85224
190.0251 250.76 23.17015 -0.5177091 0.08029901 0.8517801 0.174968 0.85161
-59.5135 359.941 21.85385 0.06829497 -0.6235227 0.7788166 0.105956 0.794815
-53.8485 371.412 30.54125 0.06829497 -0.6235227 0.7788166 0.102623 0.796988
-119.0875 364.266 30.54125 0.06829497 -0.6235227 0.7788166 0.102623 0.771959
-12.01949 364.266 30.54125 -0.09734902 -0.5698571 0.8159571 0.102623 0.813036
-53.8485 371.412 30.54125 -0.09734902 -0.5698571 0.8159571 0.102623 0.796988
-59.5135 359.941 21.85385 -0.09734902 -0.5698571 0.8159571 0.105956 0.794815
-118.4035 389.015 30.54125 0 -0.604317 0.796744 0.162451 0.947177
-121.2155 394.625 34.79695 0 -0.604317 0.796744 0.160299 0.946099
-249.8705 389.015 30.54125 0 -0.604317 0.796744 0.162451 0.89674
-121.2155 394.625 34.79695 0 -0.6043152 0.7967454 0.160299 0.946099
-157.3555 400.168 39.00125 0 -0.6043152 0.7967454 0.158172 0.932234
-249.8705 389.015 30.54125 0 -0.6043152 0.7967454 0.162451 0.89674
-249.8705 389.015 30.54125 0 -0.6043159 0.7967448 0.162451 0.89674
-157.3555 400.168 39.00125 0 -0.6043159 0.7967448 0.158172 0.932234
-249.8705 400.168 39.00125 0 -0.6043159 0.7967448 0.158172 0.89674
-51.28749 444.507 30.54125 0.3639682 -0.4402041 0.8208213 0.141162 0.972926
-70.3665 444.507 39.00125 0.3639682 -0.4402041 0.8208213 0.141162 0.965607
-118.4035 389.015 30.54125 0.3639682 -0.4402041 0.8208213 0.162451 0.947177
-118.4035 389.015 30.54125 0.3639711 -0.4402072 0.8208183 0.162451 0.947177
-70.3665 444.507 39.00125 0.3639711 -0.4402072 0.8208183 0.141162 0.965607
-121.2155 394.625 34.79695 0.3639711 -0.4402072 0.8208183 0.160299 0.946099
-70.3665 444.507 39.00125 0.3639678 -0.4402038 0.8208216 0.141162 0.965607
-111.3625 410.611 39.00125 0.3639678 -0.4402038 0.8208216 0.154166 0.949879
-121.2155 394.625 34.79695 0.3639678 -0.4402038 0.8208216 0.160299 0.946099
-123.9925 414.586 39.00115 -5e-06 6e-06 1 0.403195 0.937345
-70.3665 444.507 39.00125 -5e-06 6e-06 1 0.391716 0.957919
-123.9925 488.846 39.00075 -5e-06 6e-06 1 0.374705 0.937345
-123.9925 488.846 39.00075 0 6e-06 1 0.374705 0.937345
-249.8705 488.846 39.00075 0 6e-06 1 0.374705 0.889052
-123.9925 414.586 39.00115 0 6e-06 1 0.403195 0.937345
-157.3555 400.168 39.00125 0 6e-06 1 0.408727 0.924546
-249.8705 400.168 39.00125 0 6e-06 1 0.408727 0.889052
238.5866 400.169 39.00075 -0.05985799 -0.195222 0.9789308 0.066829 0.905332
190.7523 414.836 39.00085 -0.05985799 -0.195222 0.9789308 0.061202 0.88698
185.6925 394.383 34.61265 -0.05985799 -0.195222 0.9789308 0.069049 0.885039
185.6925 394.383 34.61265 0.07096301 -0.226 0.9715391 0.069049 0.885039
190.7523 414.836 39.00085 0.07096301 -0.226 0.9715391 0.061202 0.88698
144.0425 400.169 39.00075 0.07096301 -0.226 0.9715391 0.066829 0.86906
193.4832 335.368 30.54135 -0.9053229 0 0.424724 0.177796 0.884069
187.082 330.01 16.89675 -0.9053229 0 0.424724 0.172561 0.882013
193.4832 306.846 30.54135 -0.9053229 0 0.424724 0.177796 0.873127
187.082 249.346 16.89675 -0.9053224 0 0.4247252 0.172561 0.851067
190.0251 250.76 23.17015 -0.9053224 0 0.4247252 0.174968 0.85161
187.082 330.01 16.89675 -0.9053224 0 0.4247252 0.172561 0.882013
187.082 330.01 16.89675 -0.9053233 0 0.4247231 0.172561 0.882013
190.0251 250.76 23.17015 -0.9053233 0 0.4247231 0.174968 0.85161
193.4832 306.846 30.54135 -0.9053233 0 0.4247231 0.177796 0.873127
187.082 330.01 16.89675 -1 0 0 0.172561 0.882013
187.082 271.331 -13.87595 -1 0 0 0.160755 0.859501
193.4832 335.368 -30.54135 -0.9017151 -0.022227 -0.4317591 0.154362 0.884069
187.082 271.331 -13.87595 -0.9017151 -0.022227 -0.4317591 0.160755 0.859501
187.082 330.01 -16.89675 -0.9017151 -0.022227 -0.4317591 0.159596 0.882013
-193.2245 335.368 -30.54135 0.9053229 0 -0.424724 0.151927 0.884069
-186.8235 330.01 -16.89675 0.9053229 0 -0.424724 0.146692 0.882013
-193.2245 237.484 -30.54125 0.9053229 0 -0.424724 0.151927 0.846516
-186.8235 330.01 16.89675 1 0 0 0.133727 0.882013
-186.8235 330.01 -16.89675 1 0 0 0.146692 0.882013
-193.2245 335.368 30.54135 0.9038293 -0.009581002 0.4277861 0.128493 0.884069
-186.8235 167.926 13.26655 0.9038293 -0.009581002 0.4277861 0.13512 0.81983
-186.8235 330.01 16.89675 0.9038293 -0.009581002 0.4277861 0.133727 0.882013
250.1295 400.169 -39.00075 0 -6e-06 -1 0.312443 0.824103
118.1445 500 -30.54135 -0.4276201 0.4004321 -0.8104291 0.100189 0.781154
123.7325 488.846 -39.00125 -0.4276201 0.4004321 -0.8104291 0.095909 0.783298
77.9855 439.993 -39.00125 -0.4276201 0.4004321 -0.8104291 0.077167 0.765747
77.9855 439.993 -39.00125 -0.3765761 -0.4325941 -0.8191782 0.077167 0.765747
123.7325 400.169 -39.00075 -0.3765761 -0.4325941 -0.8191782 0.061888 0.783298
118.1445 389.015 -30.54135 -0.3765761 -0.4325941 -0.8191782 0.057609 0.781154
250.1295 400.169 -39.00075 -0 -0.6042818 -0.7967707 0.061888 0.83179
250.1295 488.846 -39.00125 0 0.6043159 -0.7967448 0.095909 0.83179
250.1295 488.846 -39.00125 1 0 0 0.044004 0.987214
-28.85249 500 -39.00125 8e-06 0 -1 0.445734 0.984359
-36.1425 437.534 -30.54135 -0.5700068 -0.4267108 -0.7021468 0.197976 0.968081
-28.85249 441.715 -39.00125 -0.5700068 -0.4267108 -0.7021468 0.195179 0.969686
-2.680496 406.755 -39.00125 -0.5700068 -0.4267108 -0.7021468 0.185139 0.956273
-2.680496 406.755 -39.00125 0.5309959 -0.4828619 -0.6963388 0.185139 0.956273
29.1105 441.715 -39.00085 0.5309959 -0.4828619 -0.6963388 0.172942 0.969686
36.4015 437.534 -30.54135 0.5309959 -0.4828619 -0.6963388 0.170145 0.968081
29.1105 500 -39.00085 0.7574931 0 -0.6528431 0.172942 0.992047
-28.85249 500 -39.00125 -0.7575209 -0 -0.652811 0.195179 0.992047
29.1105 500 -39.00085 1e-06 1 0 0.073243 0.973949
-28.85249 500 -39.00125 1e-06 1 0 0.073243 0.951711
-36.1425 500 -30.54135 1e-06 1 0 0.076489 0.948914
-118.4035 389.015 -30.54135 0.3681859 -0.4376878 -0.8202857 0.074239 0.932009
-123.9925 400.168 -39.00125 0.3681859 -0.4376878 -0.8202857 0.078518 0.929865
-75.08351 441.311 -39.00125 0.3681859 -0.4376878 -0.8202857 0.094302 0.948629
-75.08351 441.311 -39.00125 0.4039499 0.4156339 -0.8149068 0.094302 0.948629
-123.9925 488.846 -39.00085 0.4039499 0.4156339 -0.8149068 0.112539 0.929865
-118.4035 500 -30.54135 0.4039499 0.4156339 -0.8149068 0.116819 0.932009
-249.8705 488.846 -39.00085 0 0.6042771 -0.7967742 0.112539 0.881572
-249.8705 400.168 -39.00125 -1 0 0 0.046946 0.953193
162.4949 364.266 -30.54135 -0.5829769 -0.6251408 -0.5189769 0.154362 0.895156
193.4832 335.368 -30.54135 -0.5829769 -0.6251408 -0.5189769 0.154362 0.884069
187.082 330.01 -16.89675 -0.5829769 -0.6251408 -0.5189769 0.159596 0.882013
-162.2355 364.266 -30.54135 0.5708418 -0.6228178 -0.5350118 0.151927 0.895156
-156.8605 357.472 -16.89675 0.5708418 -0.6228178 -0.5350118 0.146692 0.892549
-186.8235 330.01 -16.89675 0.5708418 -0.6228178 -0.5350118 0.146692 0.882013
250.1295 500 -30.54135 0 1 0 0.205363 0.947874
118.1445 500 30.54125 -0.2827559 0.3419829 0.8961567 0.028529 0.859124
51.0285 444.507 30.54125 -0.2827559 0.3419829 0.8961567 0.049819 0.833375
76.2095 443.158 39.00125 -0.2827559 0.3419829 0.8961567 0.050336 0.843036
118.1445 389.015 30.54125 -0.3860681 -0.4267932 0.8178014 0.071109 0.859124
123.7325 400.169 39.00075 -0.3860681 -0.4267932 0.8178014 0.066829 0.861268
76.2095 443.158 39.00125 -0.3860681 -0.4267932 0.8178014 0.050336 0.843036
250.1295 500 30.54125 0 0.6043164 0.7967445 0.028529 0.90976
118.1445 500 30.54125 0 0.6043164 0.7967445 0.028529 0.859124
123.7325 488.846 39.00125 0 0.6043164 0.7967445 0.032808 0.861268
250.1295 389.015 30.54125 1 0 0 0.056379 0.948914
29.1105 441.715 39.00075 8e-06 0 1 0.454434 0.963487
-36.1425 437.534 30.54125 -0.505253 -0.364917 0.7820199 0.037653 0.97278
0.1295013 387.312 30.54125 -0.505253 -0.364917 0.7820199 0.023737 0.992047
-1.241501 407.34 39.00125 -0.505253 -0.364917 0.7820199 0.024263 0.984363
36.4015 437.534 30.54125 0.5371999 -0.4743089 0.6974578 0.009821 0.97278
29.1105 441.715 39.00075 0.5371999 -0.4743089 0.6974578 0.012619 0.971175
-1.241501 407.34 39.00125 0.5371999 -0.4743089 0.6974578 0.024263 0.984363
29.1105 500 39.00075 0.7574931 0 0.6528431 0.012619 0.948814
-36.1425 437.534 30.54125 -0.7575209 0 0.652811 0.037653 0.97278
29.1105 500 39.00075 0 1 0 0.082676 0.973949
36.4015 500 30.54125 0 1 0 0.079431 0.976746
-36.1425 500 30.54125 0 1 0 0.079431 0.948914
-118.4035 500 30.54125 0.363941 0.440184 0.8208441 0.119872 0.947177
-123.9925 488.846 39.00075 0.363941 0.440184 0.8208441 0.124151 0.945033
-70.3665 444.507 39.00125 0.363941 0.440184 0.8208441 0.141162 0.965607
-249.8705 488.846 39.00075 0 0.6042771 0.7967742 0.124151 0.89674
-249.8705 500 30.54125 -1 0 0 0.059321 0.991493
162.4949 364.266 30.54125 -0.5708418 -0.6228178 0.5350118 0.177796 0.895156
157.1196 357.472 16.89675 -0.5708418 -0.6228178 0.5350118 0.172561 0.892549
187.082 330.01 16.89675 -0.5708418 -0.6228178 0.5350118 0.172561 0.882013
-186.8235 330.01 16.89675 0.5708422 -0.6228172 0.5350122 0.133727 0.882013
-156.8605 357.472 16.89675 0.5708422 -0.6228172 0.5350122 0.133727 0.892549
-162.2355 364.266 30.54125 0.5708422 -0.6228172 0.5350122 0.128493 0.895156
157.1196 357.472 16.89675 -0.6756769 -0.7371979 0 0.172561 0.892549
-186.8235 330.01 16.89675 0.6756769 -0.7371979 0 0.133727 0.882013
-186.8235 0 16.89685 1 0 0 0.133727 0.755405
-249.8705 0 -30.54125 -0.9999999 -0.0005189999 0 0.014839 0.755405
-198.7715 93.25351 30.54135 0.9040126 0.05377997 0.4241098 0.128493 0.791182
-193.2245 0 30.54135 0.9040126 0.05377997 0.4241098 0.128493 0.755405
-186.8235 0 16.89685 0.9040126 0.05377997 0.4241098 0.133727 0.755405
200.0599 216.788 -30.54125 -0.9049821 0.027454 -0.4245631 0.154362 0.838576
193.4832 0 -30.54125 -0.9049821 0.027454 -0.4245631 0.154362 0.755405
187.082 0 -16.89675 -0.9049821 0.027454 -0.4245631 0.159596 0.755405
250.1295 0 30.54135 1 0 0 0.180231 0.755405
-14.34349 364.266 -30.54135 -0 -0.895163 -0.445739 0.126058 0.812144
162.4949 364.266 -30.54135 -0 -0.895163 -0.445739 0.126058 0.879988
157.1196 357.472 -16.89675 -0 -0.895163 -0.445739 0.120823 0.877926
-156.8605 357.472 -16.89675 -0 -0.895163 -0.445739 0.120823 0.757467
-162.2355 364.266 -30.54135 -0 -0.895163 -0.445739 0.126058 0.755405
-109.1855 364.266 -30.54135 -0 -0.895163 -0.445739 0.126058 0.775758
-111.3625 410.611 39.00125 -5e-06 6e-06 1 0.40472 0.942191
187.082 330.01 -16.89675 -1 0 0 0.159596 0.882013
193.4832 335.368 -30.54135 -0.8575739 -0.047563 -0.512157 0.154362 0.884069
200.0599 216.788 -30.54125 -0.8575739 -0.047563 -0.512157 0.154362 0.838576
187.082 271.331 -13.87595 -0.8575739 -0.047563 -0.512157 0.160755 0.859501
-193.2245 335.368 30.54135 0.8601028 -0.01970799 0.5097399 0.128493 0.884069
-198.7715 93.25351 30.54135 0.8601028 -0.01970799 0.5097399 0.128493 0.791182
-186.8235 167.926 13.26655 0.8601028 -0.01970799 0.5097399 0.13512 0.81983
3 0 1 2 
3 3 4 5 
3 6 7 8 
3 9 10 11 
3 12 13 14 
3 15 16 17 
3 18 19 20 
3 21 22 23 
3 24 25 26 
3 27 28 29 
3 30 31 32 
3 33 34 35 
3 36 37 38 
3 39 40 41 
3 42 43 44 
3 45 46 47 
3 47 46 48 
3 46 49 48 
3 49 50 48 
3 50 51 48 
3 52 53 54 
3 55 56 57 
3 58 59 60 
3 61 62 63 
3 64 65 66 
3 66 65 67 
3 68 69 70 
3 63 62 67 
3 71 72 73 
3 74 75 76 
3 77 78 79 
3 80 81 82 
3 83 84 85 
3 86 87 88 
3 89 90 91 
3 92 93 94 
3 93 74 94 
3 94 74 95 
3 95 74 96 
3 96 74 97 
3 74 76 97 
3 98 99 100 
3 87 101 88 
3 102 103 104 
3 105 106 107 
3 106 108 107 
3 108 109 107 
3 110 107 111 
3 109 111 107 
3 112 113 114 
3 115 116 117 
3 118 119 120 
3 121 122 123 
3 124 125 126 
3 127 128 129 
3 130 125 131 
3 132 133 134 
3 135 136 137 
3 138 139 140 
3 141 142 143 
3 144 145 146 
3 147 148 149 
3 150 151 152 
3 153 154 155 
3 156 157 158 
3 159 160 161 
3 162 163 164 
3 165 166 167 
3 168 169 170 
3 171 172 173 
3 174 175 176 
3 177 178 179 
3 180 181 182 
3 183 101 184 
3 185 186 187 
3 188 189 190 
3 174 190 175 
3 175 190 191 
3 191 190 192 
3 192 190 193 
3 189 193 190 
3 194 195 196 
3 197 198 199 
3 200 201 202 
3 203 204 205 
3 196 195 206 
3 207 208 209 
3 210 211 212 
3 186 89 91 
3 213 214 215 
3 215 214 216 
3 214 217 216 
3 218 219 220 
3 221 222 219 
3 220 219 222 
3 93 92 223 
3 92 224 223 
3 224 225 223 
3 226 223 227 
3 225 227 223 
3 228 229 230 
3 231 232 233 
3 190 234 188 
3 188 234 235 
3 234 236 235 
3 237 238 239 
3 240 241 242 
3 74 243 75 
3 75 243 244 
3 243 245 244 
3 174 176 246 
3 176 247 246 
3 248 249 250 
3 251 252 246 
3 252 253 246 
3 254 255 256 
3 257 258 259 
3 258 260 259 
3 261 262 263 
3 264 265 266 
3 267 268 269 
3 270 271 272 
3 273 274 275 
3 276 277 278 
3 279 280 281 
3 282 283 284 
3 285 286 287 
3 288 289 290 
3 291 292 293 
3 294 295 296 
3 297 298 299 
3 300 301 302 
3 303 304 305 
3 306 307 308 
3 309 310 311 
3 312 313 314 
3 315 316 317 
3 318 319 320 
3 321 322 323 
3 324 325 326 
3 327 328 329 
3 330 331 332 
3 333 334 335 
3 335 334 336 
3 336 334 337 
3 338 339 340 
3 341 342 343 
3 344 345 346 
3 347 348 349 
3 350 351 352 
3 353 354 264 
3 355 356 357 
3 358 359 360 
3 218 220 359 
3 359 220 360 
3 361 230 362 
3 363 364 365 
3 3 366 4 
3 367 368 369 
3 370 371 372 
3 12 373 13 
3 15 374 16 
3 18 375 19 
3 24 376 25 
3 377 378 379 
3 380 381 382 
3 33 383 34 
3 36 384 37 
3 385 386 387 
3 388 389 390 
3 391 392 393 
3 58 394 59 
3 71 395 72 
3 396 397 398 
3 399 400 401 
3 98 402 99 
3 87 184 101 
3 403 404 405 
3 406 407 408 
3 409 410 411 
3 135 412 136 
3 141 413 142 
3 414 415 416 
3 417 418 419 
3 150 420 151 
3 153 421 154 
3 422 423 424 
3 425 426 427 
3 168 428 169 
3 171 429 172 
3 430 431 432 
3 433 434 435 
3 207 436 208 
3 210 437 211 
3 186 185 89 
3 228 438 229 
3 231 439 232 
3 440 441 442 
3 443 444 445 
3 261 446 262 
3 264 354 265 
3 447 448 449 
3 450 451 452 
3 330 453 331 
3 353 454 354 
3 455 456 457 
3 361 228 230 
3 458 459 460 
