ply
format ascii 1.0
comment VCGLIB generated
comment TextureFile dummy.png
element vertex 458
property float x
property float y
property float z
property float nx
property float ny
property float nz
property float texture_u
property float texture_v
element face 206
property list uchar int vertex_indices
end_header
170.3973 -3.051758e-05 -2.690549 -0.622058 -0.060954 -0.780595 0.048639 0.850379
183.9216 66.51553 -18.66205 -0.622058 -0.060954 -0.780595 0.0485 0.850376
198.9698 35.08633 -28.19985 -0.622058 -0.060954 -0.780595 0.048536 0.850078
198.9698 35.08633 -28.19985 -0.6659882 -0 -0.7459623 0.048536 0.850078
198.9698 -3.051758e-05 -28.19985 -0.6659882 -0 -0.7459623 0.048618 0.849959
170.3973 -3.051758e-05 -2.690549 -0.6659882 -0 -0.7459623 0.048639 0.850379
249.9949 -3.051758e-05 -2.690549 0 -1 0 0.048902 0.850463
198.9698 -3.051758e-05 -28.19985 0 -1 0 0.048618 0.849959
249.9949 -3.051758e-05 -28.19985 0 -1 0 0.048908 0.850043
198.9698 35.08633 -28.19985 0 0 -1 0.048536 0.850078
249.9949 -3.051758e-05 -28.19985 0 0 -1 0.048908 0.850043
198.9698 -3.051758e-05 -28.19985 0 0 -1 0.048618 0.849959
170.3973 74.24063 -2.690549 0 0.9002274 -0.4354202 0.048516 0.850575
249.9949 74.24063 -2.690549 0 0.9002274 -0.4354202 0.048788 0.850665
183.9216 66.51553 -18.66205 0 0.9002274 -0.4354202 0.0485 0.850376
202.8305 57.92004 -28.19985 0 0.8423511 -0.538929 0.04852 0.850167
249.9949 74.24063 -2.690549 0 0.8423511 -0.538929 0.048788 0.850665
249.9949 57.92004 -28.19985 0 0.8423511 -0.538929 0.048782 0.850247
249.9949 -3.051758e-05 -2.690549 1 0 0 0.048902 0.850463
249.9949 57.92004 -28.19985 1 0 0 0.048782 0.850247
249.9949 74.24063 -2.690549 1 0 0 0.048788 0.850665
-79.6025 74.24063 -2.690549 -0.7150699 -0 -0.6990529 0.048516 0.850575
-60.42751 62.75214 -22.30495 -0.7150699 -0 -0.6990529 0.048492 0.850279
-79.6025 -3.051758e-05 -2.690549 -0.7150699 -0 -0.6990529 0.048639 0.850379
-79.6025 -3.051758e-05 -2.690549 -0.6835349 -0 -0.7299179 0.048639 0.850379
-52.36251 45.06775 -28.19985 -0.6835349 -0 -0.7299179 0.048514 0.850111
-52.36251 -3.051758e-05 -28.19985 -0.6835349 -0 -0.7299179 0.048618 0.849959
79.59251 -3.051758e-05 -2.690549 0 -1 0 0.049165 0.850546
-52.36251 -3.051758e-05 -28.19985 0 -1 0 0.048618 0.849959
52.3525 -3.051758e-05 -28.19985 0 -1 0 0.049197 0.850127
52.3525 52.57632 -28.19985 0.2709652 0.3355022 -0.9022285 0.049093 0.850318
45.7355 57.91992 -28.19985 0.2709652 0.3355022 -0.9022285 0.049045 0.850327
65.8955 66.03412 -19.12805 0.2709652 0.3355022 -0.9022285 0.049071 0.850547
-198.9795 57.92004 -28.19985 0.6659887 0 -0.7459618 0.049082 0.850339
-170.4075 -3.051758e-05 -2.690549 0.6659887 0 -0.7459618 0.049165 0.850546
-198.9795 -3.051758e-05 -28.19985 0.6659887 0 -0.7459618 0.049197 0.850127
-198.9795 -3.051758e-05 -28.19985 -0 -0 -1 0.049197 0.850127
-250.0055 57.92004 -28.19985 -0 -0 -1 0.048782 0.850247
-198.9795 57.92004 -28.19985 -0 -0 -1 0.049082 0.850339
-198.9795 -3.051758e-05 -28.19985 0 -1 0 0.049197 0.850127
-250.0055 -3.051758e-05 -2.690549 0 -1 0 0.048902 0.850463
-250.0055 -3.051758e-05 -28.19985 0 -1 0 0.048908 0.850043
-198.9795 57.92004 -28.19985 0 0.8423511 -0.538929 0.049082 0.850339
-250.0055 74.24063 -2.690549 0 0.8423511 -0.538929 0.048788 0.850665
-170.4075 74.24063 -2.690549 0 0.8423511 -0.538929 0.04906 0.850756
-250.0055 -3.051758e-05 -2.690549 -1 0 0 0.048902 0.850463
-250.0055 57.92004 -28.19985 -1 0 0 0.048782 0.850247
-250.0055 -3.051758e-05 -28.19985 -1 0 0 0.048908 0.850043
-60.94051 428.541 -17.23475 -0.8263467 -0 -0.5631618 0.148346 0.723947
-70.8525 500 -2.690549 -0.8263467 -0 -0.5631618 0.151251 0.739053
-60.94051 500 -17.23475 -0.8263467 -0 -0.5631618 0.148346 0.739053
70.8635 500 -2.690549 0.8263431 0 -0.563167 0.088051 0.739053
60.95051 428.541 -17.23475 0.8263431 0 -0.563167 0.090956 0.723947
60.95051 500 -17.23475 0.8263431 0 -0.563167 0.090956 0.739053
-60.94051 428.541 -17.23475 0 0 -1 0.148346 0.973947
60.95051 500 -17.23475 0 0 -1 0.090956 0.989053
60.95051 428.541 -17.23475 0 0 -1 0.090956 0.973947
70.8635 421.015 -2.690549 0.5082644 -0.5730084 -0.6429065 0.088051 0.720403
1.311501 375.641 -17.23475 0.5082644 -0.5730084 -0.6429065 0.119055 0.699039
60.95051 428.541 -17.23475 0.5082644 -0.5730084 -0.6429065 0.090956 0.723947
-70.8525 421.015 -2.690549 -0.469395 -0.5171201 -0.7157201 0.151251 0.720403
1.311501 375.641 -17.23475 -0.469395 -0.5171201 -0.7157201 0.119055 0.699039
0.005500793 356.697 -2.690549 -0.469395 -0.5171201 -0.7157201 0.119651 0.69012
60.95051 500 -17.23475 0 1 0 0.090956 0.989053
-70.8525 500 -2.690549 0 1 0 0.151251 0.989053
70.8635 500 -2.690549 0 1 0 0.088051 0.989053
1.311501 375.641 -17.23475 0 0 -1 0.119036 0.949039
-36.89349 439.375 -28.19985 -0.7793522 -0 -0.6265862 0.137025 0.727254
-45.7095 500 -17.23475 -0.7793522 -0 -0.6265862 0.141175 0.739053
-36.89349 500 -28.19985 -0.7793522 -0 -0.6265862 0.137025 0.739053
45.7205 500 -17.23475 0.7793522 0 -0.6265862 0.098127 0.739053
36.9045 439.375 -28.19985 0.7793522 0 -0.6265862 0.102278 0.727254
36.9045 500 -28.19985 0.7793522 0 -0.6265862 0.102278 0.739053
-36.89349 439.375 -28.19985 0 0 -1 0.137025 0.977254
36.9045 500 -28.19985 0 0 -1 0.102278 0.989053
36.9045 439.375 -28.19985 0 0 -1 0.102278 0.977254
13.0355 418.934 -28.19985 0.03429199 -0.2791339 -0.9596397 0.113516 0.718119
0.005500793 401.342 -23.54845 0.03429199 -0.2791339 -0.9596397 0.119651 0.71081
-9.754509 416.135 -28.19985 0.03429199 -0.2791339 -0.9596397 0.124247 0.717022
-36.89349 500 -28.19985 0 1 0 0.137025 0.989053
45.7205 500 -17.23475 0 1 0 0.098127 0.989053
36.9045 500 -28.19985 0 1 0 0.102278 0.989053
-179.1375 421.015 -2.690549 0.9685239 0 -0.248921 0.151251 0.720403
-182.0635 423.2371 -14.07845 0.9685239 0 -0.248921 0.150393 0.721449
-179.1375 500 -2.690549 0.9685239 0 -0.248921 0.151251 0.739053
-179.1375 500 -2.690549 0.8263467 0 -0.5631618 0.151251 0.739053
-189.0495 444.818 -17.23475 0.8263467 0 -0.5631618 0.148346 0.727086
-189.0495 500 -17.23475 0.8263467 0 -0.5631618 0.148346 0.739053
-249.9945 356.697 -2.690549 0.483779 -0.532966 -0.694194 0.119651 0.69012
-249.9945 375.641 -17.23475 0.483779 -0.532966 -0.694194 0.119651 0.699039
-179.1375 421.015 -2.690549 0.483779 -0.532966 -0.694194 0.151251 0.720403
-179.1375 421.015 -2.690549 0.09588604 -0.9720424 -0.2143351 0.151251 0.720403
-195.9335 422.5651 -17.23475 0.09588604 -0.9720424 -0.2143351 0.145105 0.721133
-182.0635 423.2371 -14.07845 0.09588604 -0.9720424 -0.2143351 0.150393 0.721449
-213.0955 444.9971 -28.19985 0.7793522 0 -0.6265862 0.137025 0.72853
-204.2795 500 -17.23475 0.7793522 0 -0.6265862 0.141175 0.739053
-204.2795 435.566 -17.23475 0.7793522 0 -0.6265862 0.141175 0.727254
-249.9945 407.776 -28.19985 0.516124 -0.613012 -0.598191 0.119651 0.713342
-204.2795 435.566 -17.23475 0.516124 -0.613012 -0.598191 0.141175 0.727254
-249.9945 397.076 -17.23475 0.516124 -0.613012 -0.598191 0.119651 0.709132
-213.0955 444.9971 -28.19985 -0 -0 -1 0.137025 0.976897
-249.9945 500 -28.19985 -0 -0 -1 0.119651 0.989053
-213.0955 500 -28.19985 -0 -0 -1 0.137025 0.989053
-249.9945 500 -17.23475 0 1 0 0.119651 0.989053
-213.0955 500 -28.19985 0 1 0 0.137025 0.989053
-249.9945 500 -28.19985 0 1 0 0.119651 0.989053
-195.9335 422.5651 -17.23475 0 0 -1 0.145105 0.970615
-249.9945 500 -17.23475 0 0 -1 0.119651 0.989053
-189.0495 444.818 -17.23475 0 0 -1 0.148346 0.97668
-189.0495 500 -17.23475 -0 -0 -1 0.148346 0.989053
-249.9945 500 -2.690549 0 1 0 0.119651 0.989053
-189.0495 500 -17.23475 0 1 0 0.148346 0.989053
-249.9945 500 -17.23475 -1 0 0 0.119651 0.989053
-249.9945 407.776 -28.19985 -1 0 0 0.119651 0.963342
-249.9945 397.076 -17.23475 -1 0 0 0.119651 0.959132
-249.9945 500 -2.690549 -1 0 0 0.119651 0.989053
-249.9945 375.641 -17.23475 -1 0 0 0.119651 0.949039
-249.9945 356.697 -2.690549 -1 0 0 0.119651 0.94012
192.6174 426.3051 -17.23475 -0.8256901 -0.039859 -0.562714 0.146507 0.722507
179.148 500 -2.690549 -0.8256901 -0.039859 -0.562714 0.151251 0.739053
189.0599 500 -17.23475 -0.8256901 -0.039859 -0.562714 0.148346 0.739053
179.148 421.015 -2.690549 -0.483779 -0.532966 -0.694194 0.151251 0.720403
250.0055 375.641 -17.23475 -0.483779 -0.532966 -0.694194 0.119651 0.699039
250.0055 356.697 -2.690549 -0.483779 -0.532966 -0.694194 0.119651 0.69012
211.2367 439.375 -28.19985 -0.7791268 0.02402399 -0.6264058 0.137905 0.7279
204.2903 500 -17.23475 -0.7791268 0.02402399 -0.6264058 0.141175 0.739053
213.1061 500 -28.19985 -0.7791268 0.02402399 -0.6264058 0.137025 0.739053
204.2903 435.566 -17.23475 -0.516124 -0.613012 -0.598191 0.141175 0.727254
250.0055 407.776 -28.19985 -0.516124 -0.613012 -0.598191 0.119651 0.713342
250.0055 397.076 -17.23475 -0.516124 -0.613012 -0.598191 0.119651 0.709132
211.2367 439.375 -28.19985 0 0 -1 0.137905 0.975622
250.0055 500 -28.19985 0 0 -1 0.119651 0.989053
250.0055 407.776 -28.19985 0 0 -1 0.119651 0.963342
250.0055 500 -17.23475 0 1 0 0.119651 0.989053
213.1061 500 -28.19985 0 1 0 0.137025 0.989053
204.2903 500 -17.23475 0 1 0 0.141175 0.989053
192.6174 426.3051 -17.23475 -0 -0 -1 0.146671 0.970052
250.0055 500 -17.23475 -0 -0 -1 0.119651 0.989053
250.0055 375.641 -17.23475 -0 -0 -1 0.119651 0.949039
250.0055 500 -2.690549 0 1 0 0.119651 0.989053
189.0599 500 -17.23475 0 1 0 0.148346 0.989053
179.148 500 -2.690549 0 1 0 0.151251 0.989053
250.0055 407.776 -28.19985 1 0 0 0.119651 0.963342
250.0055 500 -17.23475 1 0 0 0.119651 0.989053
250.0055 397.076 -17.23475 1 0 0 0.119651 0.959132
250.0055 375.641 -17.23475 1 0 0 0.119651 0.949039
250.0055 500 -2.690549 1 0 0 0.119651 0.989053
250.0055 356.697 -2.690549 1 0 0 0.119651 0.94012
-249.9945 3.051758e-05 28.19985 -1 0 0 0.237346 0.753493
-249.9945 315.361 -17.23475 -1 0 0 0.237346 0.90208
-249.9945 3.051758e-05 -17.23465 -1 0 0 0.237346 0.753493
250.0055 315.361 -17.23475 1 0 0 0.001764 0.90208
250.0055 3.051758e-05 28.19985 1 0 0 0.001764 0.753493
250.0055 3.051758e-05 -17.23465 1 0 0 0.001764 0.753493
250.0055 500 -2.690549 0 1 0 0.001764 0.989076
-249.9945 500 28.19975 0 1 0 0.237346 0.989076
250.0055 500 28.19975 0 1 0 0.001764 0.989076
250.0055 3.051758e-05 -17.23465 0 -1 0 0.001764 0.753493
250.0055 3.051758e-05 28.19985 0 -1 0 0.001764 0.753493
206.9947 3.051758e-05 -17.23465 0 -1 0 0.022029 0.753493
-206.9835 3.051758e-05 -17.23465 0 -1 0 0.217081 0.753493
-249.9945 3.051758e-05 28.19985 0 -1 0 0.237346 0.753493
-249.9945 3.051758e-05 -17.23465 0 -1 0 0.237346 0.753493
-249.9945 315.361 -17.23475 0 0.4100182 -0.9120774 0.237346 0.90208
-128.6755 347.714 -2.690549 0 0.4100182 -0.9120774 0.180185 0.917324
-124.1885 315.361 -17.23475 0 0.4100182 -0.9120774 0.178071 0.90208
124.1985 315.361 -17.23475 0.0001659999 0.4534937 -0.8912595 0.061039 0.90208
45.2945 325.168 -12.25905 0.0001659999 0.4534937 -0.8912595 0.098216 0.907064
250.0055 343.8981 -2.690549 0.0001659999 0.4534937 -0.8912595 0.001764 0.915526
250.0055 343.8981 -2.690549 0 0.454074 -0.890964 0.001764 0.915526
250.0055 315.361 -17.23475 0 0.454074 -0.890964 0.001764 0.90208
124.1985 315.361 -17.23475 0 0.454074 -0.890964 0.061039 0.90208
124.1985 315.361 -17.23475 -0 -0 -1 0.061039 0.90208
250.0055 315.361 -17.23475 -0 -0 -1 0.001764 0.90208
206.9947 225.285 -17.23465 -0 -0 -1 0.022029 0.85964
41.4035 225.285 -17.23465 -0 -0 -1 0.10005 0.85964
89.5075 315.361 -17.23475 -0 -0 -1 0.077385 0.90208
-249.9945 315.361 -17.23475 -0 -0 -1 0.237346 0.90208
-124.1885 315.361 -17.23475 -0 -0 -1 0.178071 0.90208
-206.9835 225.285 -17.23465 -0 -0 -1 0.217081 0.85964
250.0055 343.8981 -2.690549 1 0 0 0.001764 0.915526
250.0055 500 28.19975 1 0 0 0.001764 0.989076
250.0055 500 28.19975 0 0 1 0.001764 0.989076
-249.9945 3.051758e-05 28.19985 0 0 1 0.237346 0.753493
250.0055 3.051758e-05 28.19985 0 0 1 0.001764 0.753493
-249.9945 343.8981 -2.690549 -1 0 1e-06 0.237346 0.915526
-249.9945 500 28.19975 -1 0 1e-06 0.237346 0.989076
-249.9945 500 -2.690549 -1 0 1e-06 0.237346 0.989076
-249.9945 500 -2.690549 0 0 -1 0.237346 0.989076
13.33849 343.8981 -2.690549 0 0 -1 0.113273 0.915526
-128.6755 347.714 -2.690549 0 0 -1 0.180185 0.917324
250.0055 500 -2.690549 0 0 -1 0.001764 0.989076
250.0055 343.8981 -2.690549 0 0 -1 0.001764 0.915526
216.4184 149.871 -17.23465 -0 -0 -1 0.017589 0.824107
250.0055 3.051758e-05 -17.23465 0 0 -1 0.001764 0.753493
206.9947 126.355 -17.23465 0 0 -1 0.022029 0.813027
206.9947 171.133 -17.23465 0 0 -1 0.022029 0.834125
186.2937 218.976 -2.690549 0 0 -1 0.031782 0.856667
62.1045 218.976 -2.690549 0 0 -1 0.090296 0.856667
127.2915 285.754 -2.690549 0 0 -1 0.059582 0.88813
38.8155 146.474 -17.23465 0 0 -1 0.101269 0.822507
-41.39251 232.242 -17.23475 0 0 -1 0.13906 0.862917
-62.0935 218.976 -2.690549 0 0 -1 0.148814 0.856667
-182.8495 218.976 -2.690549 0 0 -1 0.20571 0.856667
-124.1885 286.53 -2.690549 0 0 -1 0.178071 0.888496
-249.9945 3.051758e-05 -17.23465 0 0 -1 0.237346 0.753493
-186.2825 3.051758e-05 -2.690549 0 -1 0 0.207327 0.753493
-41.39251 232.242 -17.23475 -0.412002 -0.4104 -0.813527 0.13908 0.612317
-124.1885 286.53 -2.690549 -0.412002 -0.4104 -0.813527 0.178071 0.638496
-124.1885 315.361 -17.23475 -0.412002 -0.4104 -0.813527 0.178071 0.65208
-38.8045 109.064 -17.23465 -0.5696902 -0.011971 -0.8217723 0.138071 0.56465
-62.0935 218.976 -2.690549 -0.5696902 -0.011971 -0.8217723 0.148814 0.606667
-41.39251 232.242 -17.23475 -0.5696902 -0.011971 -0.8217723 0.13908 0.612317
-206.9835 225.285 -17.23465 0.4117051 -0.3575081 -0.8382642 0.217081 0.60964
-124.1885 286.53 -2.690549 0.4117051 -0.3575081 -0.8382642 0.178071 0.638496
-182.8495 218.976 -2.690549 0.4117051 -0.3575081 -0.8382642 0.20571 0.606989
-186.2825 180.893 -2.690549 0.5068271 -0.045691 -0.8608361 0.207327 0.592139
-206.9835 225.285 -17.23465 0.5068271 -0.045691 -0.8608361 0.217081 0.60964
-182.8495 218.976 -2.690549 0.5068271 -0.045691 -0.8608361 0.20571 0.606989
-62.0935 3.051758e-05 -2.690549 0 -1 0 0.148814 0.753493
186.2937 3.051758e-05 -2.690549 0 -1 0 0.031782 0.753493
-41.39251 3.051758e-05 -17.23465 0 -1 0 0.13906 0.753493
62.1045 3.051758e-05 -2.690549 0 -1 0 0.090296 0.753493
206.9947 225.285 -17.23465 -0.4664801 -0.4287801 -0.7736562 0.022029 0.60964
127.2915 285.754 -2.690549 -0.4664801 -0.4287801 -0.7736562 0.059582 0.638131
124.1985 315.361 -17.23475 -0.4664801 -0.4287801 -0.7736562 0.061039 0.65208
186.2937 218.976 -2.690549 -0.5767052 -0 -0.8169523 0.031782 0.606667
201.456 155.383 -13.39395 -0.5767052 -0 -0.8169523 0.024638 0.582457
186.2937 3.051758e-05 -2.690549 -0.5767052 -0 -0.8169523 0.031782 0.522365
41.4035 225.285 -17.23465 0.4317899 -0.4215029 -0.7974288 0.10005 0.60964
127.2915 285.754 -2.690549 0.4317899 -0.4215029 -0.7974288 0.059582 0.638131
62.1045 218.976 -2.690549 0.4317899 -0.4215029 -0.7974288 0.090296 0.606667
62.1045 159.152 -2.690549 0.5748799 0 -0.8182378 0.090296 0.583636
41.4035 225.285 -17.23465 0.5748799 0 -0.8182378 0.10005 0.60964
62.1045 218.976 -2.690549 0.5748799 0 -0.8182378 0.090296 0.606667
62.1045 159.152 -2.690549 0 0 -1 0.090296 0.82848
-186.2825 180.893 -2.690549 0 0 -1 0.207327 0.838724
-60.42751 62.75214 -22.30495 -0.116507 0.265851 -0.956948 0.048492 0.850279
-23.03548 57.92004 -28.19985 -0.116507 0.265851 -0.956948 0.048656 0.850208
-52.36251 45.06775 -28.19985 -0.116507 0.265851 -0.956948 0.048514 0.850111
202.8305 57.92004 -28.19985 -0.423091 0.071535 -0.903259 0.04852 0.850167
198.9698 35.08633 -28.19985 -0.423091 0.071535 -0.903259 0.048536 0.850078
183.9216 66.51553 -18.66205 -0.423091 0.071535 -0.903259 0.0485 0.850376
249.9949 57.92004 -28.19985 0 0 -1 0.048782 0.850247
202.8305 57.92004 -28.19985 0 0 -1 0.04852 0.850167
186.2937 3.051758e-05 -2.690549 0 0 -1 0.031782 0.753493
38.8155 146.474 -17.23465 0.5748499 0.010158 -0.8181958 0.101038 0.579115
62.1045 3.051758e-05 -2.690549 0.5748499 0.010158 -0.8181958 0.090296 0.522365
41.4035 3.051758e-05 -17.23465 0.5748499 0.010158 -0.8181958 0.10005 0.522365
-38.8045 109.064 -17.23465 0 0 -1 0.137841 0.80488
41.4035 3.051758e-05 -17.23465 0 0 -1 0.10005 0.753493
-41.39251 3.051758e-05 -17.23465 0 0 -1 0.13906 0.753493
-38.8045 109.064 -17.23465 -0.529694 -0 -0.8481889 0.138071 0.56465
-62.0935 3.051758e-05 -2.690549 -0.529694 -0 -0.8481889 0.148814 0.522365
-62.0935 118.75 -2.690549 -0.529694 -0 -0.8481889 0.148814 0.568082
60.9085 305.282 -17.23475 -0.06762099 0.191882 -0.9790857 0.09086 0.897332
45.2945 325.168 -12.25905 -0.06762099 0.191882 -0.9790857 0.098216 0.907064
89.5075 315.361 -17.23475 -0.06762099 0.191882 -0.9790857 0.077385 0.90208
-37.1715 315.361 -17.23475 -0 -0 -1 0.137071 0.90208
-37.1715 315.361 -17.23475 0.02697601 0.2625171 -0.9645502 0.137071 0.90208
45.2945 325.168 -12.25905 0.02697601 0.2625171 -0.9645502 0.098216 0.907064
60.9085 305.282 -17.23475 0.02697601 0.2625171 -0.9645502 0.09086 0.897332
-186.2825 3.051758e-05 -2.690549 0 0 -1 0.207327 0.753493
-62.0935 118.75 -2.690549 0 0 -1 0.148814 0.809444
-62.0935 3.051758e-05 -2.690549 0 0 -1 0.148814 0.753493
-206.9835 3.051758e-05 -17.23465 0.5748799 0 -0.8182378 0.217081 0.522365
-186.2825 180.893 -2.690549 0.5748799 0 -0.8182378 0.207327 0.592139
-186.2825 3.051758e-05 -2.690549 0.5748799 0 -0.8182378 0.207327 0.522365
216.4184 149.871 -17.23465 -0.290847 -0.128906 -0.948046 0.018429 0.580508
201.456 155.383 -13.39395 -0.290847 -0.128906 -0.948046 0.024638 0.582457
206.9947 171.133 -17.23465 -0.290847 -0.128906 -0.948046 0.022029 0.588632
206.9947 126.355 -17.23465 -0.217446 0.08714098 -0.9721748 0.022029 0.571315
201.456 155.383 -13.39395 -0.217446 0.08714098 -0.9721748 0.024638 0.582457
216.4184 149.871 -17.23465 -0.217446 0.08714098 -0.9721748 0.018429 0.580508
206.9947 171.133 -17.23465 -0.5748792 -0 -0.8182383 0.022029 0.588632
186.2937 218.976 -2.690549 -0.5748792 -0 -0.8182383 0.031782 0.606667
206.9947 225.285 -17.23465 -0.5748792 -0 -0.8182383 0.022029 0.60964
186.2937 3.051758e-05 -2.690549 -0.5748792 -0 -0.8182383 0.031782 0.522365
206.9947 126.355 -17.23465 -0.5748792 -0 -0.8182383 0.022029 0.571315
206.9947 3.051758e-05 -17.23465 -0.5748792 -0 -0.8182383 0.022029 0.522365
79.59251 74.24063 -2.690549 0.7682382 0 -0.6401642 0.04906 0.850756
79.59251 -3.051758e-05 -2.690549 0.7682382 0 -0.6401642 0.049165 0.850546
65.8955 66.03412 -19.12805 0.7682382 0 -0.6401642 0.049071 0.850547
52.3525 52.57632 -28.19985 0.6835349 0 -0.7299179 0.049093 0.850318
79.59251 -3.051758e-05 -2.690549 0.6835349 0 -0.7299179 0.049165 0.850546
52.3525 -3.051758e-05 -28.19985 0.6835349 0 -0.7299179 0.049197 0.850127
52.3525 -3.051758e-05 -28.19985 -0 -0 -1 0.049197 0.850127
45.7355 57.91992 -28.19985 -0 -0 -1 0.049045 0.850327
52.3525 52.57632 -28.19985 -0 -0 -1 0.049093 0.850318
-52.36251 -3.051758e-05 -28.19985 -0 -0 -1 0.048618 0.849959
-23.03548 57.92004 -28.19985 -0 -0 -1 0.048656 0.850208
-79.6025 74.24063 -2.690549 0.03829702 0.8781266 -0.4768933 0.048516 0.850575
-23.03548 57.92004 -28.19985 0.03829702 0.8781266 -0.4768933 0.048656 0.850208
-60.42751 62.75214 -22.30495 0.03829702 0.8781266 -0.4768933 0.048492 0.850279
79.59251 74.24063 -2.690549 0 0.8423511 -0.538929 0.04906 0.850756
45.7355 57.91992 -28.19985 0 0.8423511 -0.538929 0.049045 0.850327
-23.03548 57.92004 -28.19985 0 0.8423511 -0.538929 0.048656 0.850208
-195.9335 422.5651 -17.23475 0.224549 -0.069475 -0.971983 0.145105 0.721133
-189.0495 444.818 -17.23475 0.224549 -0.069475 -0.971983 0.148346 0.727086
-182.0635 423.2371 -14.07845 0.224549 -0.069475 -0.971983 0.150393 0.721449
0.005500793 397.076 -17.23475 -0.7031471 -0.5891491 -0.3981051 0.119651 0.709132
-9.754509 416.135 -28.19985 -0.7031471 -0.5891491 -0.3981051 0.124247 0.717022
0.005500793 401.342 -23.54845 -0.7031471 -0.5891491 -0.3981051 0.119651 0.71081
-46.6795 433.016 -17.23475 -0.455132 -0.531474 -0.714416 0.141632 0.726811
-36.89349 439.375 -28.19985 -0.455132 -0.531474 -0.714416 0.137025 0.727254
-9.754509 416.135 -28.19985 -0.455132 -0.531474 -0.714416 0.124247 0.717022
13.0355 418.934 -28.19985 -0 -0 -1 0.113516 0.968254
0.005500793 397.076 -17.23475 0.5128862 -0.6091662 -0.6048672 0.119651 0.709132
13.0355 418.934 -28.19985 0.5128862 -0.6091662 -0.6048672 0.113516 0.718119
45.7205 435.566 -17.23475 0.5128862 -0.6091662 -0.6048672 0.098127 0.727254
45.7205 435.566 -17.23475 0.5111851 -0.596927 -0.6183591 0.098127 0.727254
13.0355 418.934 -28.19985 0.5111851 -0.596927 -0.6183591 0.113516 0.718119
36.9045 439.375 -28.19985 0.5111851 -0.596927 -0.6183591 0.102278 0.727254
13.33849 343.8981 -2.690549 0.011752 0.437452 -0.899165 0.113273 0.915526
-37.1715 315.361 -17.23475 0.011752 0.437452 -0.899165 0.137071 0.90208
-128.6755 347.714 -2.690549 0.011752 0.437452 -0.899165 0.180185 0.917324
-249.9945 343.8981 -2.690549 -0 -0 -1 0.237346 0.915526
-37.1715 315.361 -17.23475 0 0.4100182 -0.9120774 0.137071 0.90208
250.0055 343.8981 -2.690549 0 0.4549309 -0.8905268 0.001764 0.915526
45.2945 325.168 -12.25905 0 0.4549309 -0.8905268 0.098216 0.907064
13.33849 343.8981 -2.690549 0 0.4549309 -0.8905268 0.113273 0.915526
170.3973 -3.051758e-05 -2.690549 -0.7631529 -0 -0.6462179 0.048639 0.850379
170.3973 74.24063 -2.690549 -0.7631529 -0 -0.6462179 0.048516 0.850575
183.9216 66.51553 -18.66205 -0.7631529 -0 -0.6462179 0.0485 0.850376
170.3973 -3.051758e-05 -2.690549 0 -1 0 0.048639 0.850379
202.8305 57.92004 -28.19985 0.05408797 0.7927215 -0.6071796 0.04852 0.850167
183.9216 66.51553 -18.66205 0.05408797 0.7927215 -0.6071796 0.0485 0.850376
249.9949 74.24063 -2.690549 0.05408797 0.7927215 -0.6071796 0.048788 0.850665
249.9949 -3.051758e-05 -28.19985 1 0 0 0.048908 0.850043
-79.6025 -3.051758e-05 -2.690549 -0.646252 -0.040716 -0.7620371 0.048639 0.850379
-60.42751 62.75214 -22.30495 -0.646252 -0.040716 -0.7620371 0.048492 0.850279
-52.36251 45.06775 -28.19985 -0.646252 -0.040716 -0.7620371 0.048514 0.850111
-79.6025 -3.051758e-05 -2.690549 0 -1 0 0.048639 0.850379
-170.4075 74.24063 -2.690549 0.6659887 0 -0.7459618 0.04906 0.850756
-250.0055 -3.051758e-05 -28.19985 0 0 -1 0.048908 0.850043
-170.4075 -3.051758e-05 -2.690549 0 -1 0 0.049165 0.850546
-250.0055 57.92004 -28.19985 0 0.8423511 -0.538929 0.048782 0.850247
-250.0055 74.24063 -2.690549 -1 0 0 0.048788 0.850665
-70.8525 421.015 -2.690549 -0.8263467 -0 -0.5631618 0.151251 0.720403
70.8635 421.015 -2.690549 0.8263431 0 -0.563167 0.088051 0.720403
-60.94051 500 -17.23475 -0 -0 -1 0.148346 0.989053
70.8635 421.015 -2.690549 0.4985679 -0.5492579 -0.6706309 0.088051 0.720403
0.005500793 356.697 -2.690549 0.4985679 -0.5492579 -0.6706309 0.119651 0.69012
1.311501 375.641 -17.23475 0.4985679 -0.5492579 -0.6706309 0.119055 0.699039
-70.8525 421.015 -2.690549 -0.4968989 -0.5847399 -0.6412259 0.151251 0.720403
-60.94051 428.541 -17.23475 -0.4968989 -0.5847399 -0.6412259 0.148346 0.723947
1.311501 375.641 -17.23475 -0.4968989 -0.5847399 -0.6412259 0.119055 0.699039
-60.94051 500 -17.23475 0 1 0 0.148346 0.989053
-36.89349 439.375 -28.19985 -0.7491729 0.010845 -0.6622859 0.137025 0.727254
-46.6795 433.016 -17.23475 -0.7491729 0.010845 -0.6622859 0.141632 0.726811
-45.7095 500 -17.23475 -0.7491729 0.010845 -0.6622859 0.141175 0.739053
45.7205 435.566 -17.23475 0.7793522 0 -0.6265862 0.098127 0.727254
-36.89349 500 -28.19985 -0 -0 -1 0.137025 0.989053
-45.7095 500 -17.23475 0 1 0 0.141175 0.989053
-179.1375 500 -2.690549 0.6288215 0.09059007 -0.7722545 0.151251 0.739053
-182.0635 423.2371 -14.07845 0.6288215 0.09059007 -0.7722545 0.150393 0.721449
-189.0495 444.818 -17.23475 0.6288215 0.09059007 -0.7722545 0.148346 0.727086
-179.1375 421.015 -2.690549 0.5025349 -0.578961 -0.642077 0.151251 0.720403
-249.9945 375.641 -17.23475 0.5025349 -0.578961 -0.642077 0.119651 0.699039
-195.9335 422.5651 -17.23475 0.5025349 -0.578961 -0.642077 0.145105 0.721133
-213.0955 500 -28.19985 0.7793522 0 -0.6265862 0.137025 0.739053
-249.9945 407.776 -28.19985 0.4599322 -0.4559592 -0.7619473 0.119651 0.713342
-213.0955 444.9971 -28.19985 0.4599322 -0.4559592 -0.7619473 0.137025 0.72853
-204.2795 435.566 -17.23475 0.4599322 -0.4559592 -0.7619473 0.141175 0.727254
-249.9945 407.776 -28.19985 -0 -0 -1 0.119651 0.963342
-204.2795 500 -17.23475 0 1 0 0.141175 0.989053
-249.9945 375.641 -17.23475 0 0 -1 0.119651 0.949039
-179.1375 500 -2.690549 0 1 0 0.151251 0.989053
-249.9945 500 -17.23475 -1 0 3e-06 0.119651 0.989053
-249.9945 500 -28.19985 -1 0 3e-06 0.119651 0.989053
-249.9945 407.776 -28.19985 -1 0 3e-06 0.119651 0.963342
-249.9945 500 -2.690549 -1 0 -2e-06 0.119651 0.989053
-249.9945 500 -17.23475 -1 0 -2e-06 0.119651 0.989053
-249.9945 375.641 -17.23475 -1 0 -2e-06 0.119651 0.949039
192.6174 426.3051 -17.23475 -0.7336931 -0 -0.6794811 0.146507 0.722507
179.148 421.015 -2.690549 -0.7336931 -0 -0.6794811 0.151251 0.720403
179.148 500 -2.690549 -0.7336931 -0 -0.6794811 0.151251 0.739053
179.148 421.015 -2.690549 -0.4954671 -0.5612241 -0.6629781 0.151251 0.720403
192.6174 426.3051 -17.23475 -0.4954671 -0.5612241 -0.6629781 0.146507 0.722507
250.0055 375.641 -17.23475 -0.4954671 -0.5612241 -0.6629781 0.119651 0.699039
211.2367 439.375 -28.19985 -0.8447552 -0 -0.5351531 0.137905 0.7279
204.2903 435.566 -17.23475 -0.8447552 -0 -0.5351531 0.141175 0.727254
204.2903 500 -17.23475 -0.8447552 -0 -0.5351531 0.141175 0.739053
204.2903 435.566 -17.23475 -0.5249878 -0.6441037 -0.5563437 0.141175 0.727254
211.2367 439.375 -28.19985 -0.5249878 -0.6441037 -0.5563437 0.137905 0.7279
250.0055 407.776 -28.19985 -0.5249878 -0.6441037 -0.5563437 0.119651 0.713342
213.1061 500 -28.19985 -0 -0 -1 0.137025 0.989053
250.0055 500 -28.19985 0 1 0 0.119651 0.989053
189.0599 500 -17.23475 -0 -0 -1 0.148346 0.989053
250.0055 407.776 -28.19985 1 0 3e-06 0.119651 0.963342
250.0055 500 -28.19985 1 0 3e-06 0.119651 0.989053
250.0055 500 -17.23475 1 0 3e-06 0.119651 0.989053
250.0055 375.641 -17.23475 1 0 -2e-06 0.119651 0.949039
250.0055 500 -17.23475 1 0 -2e-06 0.119651 0.989053
250.0055 500 -2.690549 1 0 -2e-06 0.119651 0.989053
-249.9945 343.8981 -2.690549 -1 0 0 0.237346 0.915526
-249.9945 500 -2.690549 0 1 0 0.237346 0.989076
-249.9945 315.361 -17.23475 -0.01427801 0.4540272 -0.8908734 0.237346 0.90208
-249.9945 343.8981 -2.690549 -0.01427801 0.4540272 -0.8908734 0.237346 0.915526
-128.6755 347.714 -2.690549 -0.01427801 0.4540272 -0.8908734 0.180185 0.917324
124.1985 315.361 -17.23475 0 0.4524331 -0.8917983 0.061039 0.90208
89.5075 315.361 -17.23475 0 0.4524331 -0.8917983 0.077385 0.90208
45.2945 325.168 -12.25905 0 0.4524331 -0.8917983 0.098216 0.907064
60.9085 305.282 -17.23475 -0 -0 -1 0.09086 0.897332
250.0055 500 -2.690549 1 0 0 0.001764 0.989076
-249.9945 500 28.19975 0 0 1 0.237346 0.989076
-249.9945 3.051758e-05 28.19985 -1 0 1e-06 0.237346 0.753493
206.9947 3.051758e-05 -17.23465 0 0 -1 0.022029 0.753493
-206.9835 3.051758e-05 -17.23465 0 0 -1 0.217081 0.753493
-41.39251 232.242 -17.23475 -0.3790409 -0.3484069 -0.8572868 0.13908 0.612317
-62.0935 218.976 -2.690549 -0.3790409 -0.3484069 -0.8572868 0.148814 0.606667
-124.1885 286.53 -2.690549 -0.3790409 -0.3484069 -0.8572868 0.178071 0.638496
-62.0935 218.976 -2.690549 -0.529694 -0 -0.8481889 0.148814 0.606667
-206.9835 225.285 -17.23465 0.4400189 -0.4044569 -0.8017468 0.217081 0.60964
-124.1885 315.361 -17.23475 0.4400189 -0.4044569 -0.8017468 0.178071 0.65208
-124.1885 286.53 -2.690549 0.4400189 -0.4044569 -0.8017468 0.178071 0.638496
41.4035 3.051758e-05 -17.23465 0 -1 0 0.10005 0.753493
206.9947 225.285 -17.23465 -0.4452348 -0.3933898 -0.8043696 0.022029 0.60964
186.2937 218.976 -2.690549 -0.4452348 -0.3933898 -0.8043696 0.031782 0.606667
127.2915 285.754 -2.690549 -0.4452348 -0.3933898 -0.8043696 0.059582 0.638131
41.4035 225.285 -17.23465 0.402033 -0.369542 -0.8377399 0.10005 0.60964
124.1985 315.361 -17.23475 0.402033 -0.369542 -0.8377399 0.061039 0.65208
127.2915 285.754 -2.690549 0.402033 -0.369542 -0.8377399 0.059582 0.638131
62.1045 159.152 -2.690549 0.5364941 -0.017619 -0.8437202 0.090296 0.583636
38.8155 146.474 -17.23465 0.5364941 -0.017619 -0.8437202 0.101038 0.579115
41.4035 225.285 -17.23465 0.5364941 -0.017619 -0.8437202 0.10005 0.60964
62.1045 3.051758e-05 -2.690549 0 0 -1 0.090296 0.753493
38.8155 146.474 -17.23465 0.529694 0 -0.8481889 0.101038 0.579115
62.1045 159.152 -2.690549 0.529694 0 -0.8481889 0.090296 0.583636
62.1045 3.051758e-05 -2.690549 0.529694 0 -0.8481889 0.090296 0.522365
-38.8045 109.064 -17.23465 -0.5748253 0.01364101 -0.8181624 0.138071 0.56465
-41.39251 3.051758e-05 -17.23465 -0.5748253 0.01364101 -0.8181624 0.13906 0.522365
-62.0935 3.051758e-05 -2.690549 -0.5748253 0.01364101 -0.8181624 0.148814 0.522365
-206.9835 225.285 -17.23465 0.5748799 0 -0.8182378 0.217081 0.60964
206.9947 171.133 -17.23465 -0.5726269 0.001454 -0.8198148 0.022029 0.588632
201.456 155.383 -13.39395 -0.5726269 0.001454 -0.8198148 0.024638 0.582457
186.2937 218.976 -2.690549 -0.5726269 0.001454 -0.8198148 0.031782 0.606667
186.2937 3.051758e-05 -2.690549 -0.5721751 -0.0006610002 -0.8201312 0.031782 0.522365
201.456 155.383 -13.39395 -0.5721751 -0.0006610002 -0.8201312 0.024638 0.582457
206.9947 126.355 -17.23465 -0.5721751 -0.0006610002 -0.8201312 0.022029 0.571315
52.3525 52.57632 -28.19985 0.603725 -0.07239299 -0.7938989 0.049093 0.850318
65.8955 66.03412 -19.12805 0.603725 -0.07239299 -0.7938989 0.049071 0.850547
79.59251 -3.051758e-05 -2.690549 0.603725 -0.07239299 -0.7938989 0.049165 0.850546
-52.36251 45.06775 -28.19985 0 0 -1 0.048514 0.850111
-79.6025 74.24063 -2.690549 0 0.8423511 -0.538929 0.048516 0.850575
79.59251 74.24063 -2.690549 -0.2653591 0.9326333 -0.2444991 0.04906 0.850756
65.8955 66.03412 -19.12805 -0.2653591 0.9326333 -0.2444991 0.049071 0.850547
45.7355 57.91992 -28.19985 -0.2653591 0.9326333 -0.2444991 0.049045 0.850327
0.005500793 397.076 -17.23475 -0.4684078 -0.6084537 -0.6406077 0.119651 0.709132
-46.6795 433.016 -17.23475 -0.4684078 -0.6084537 -0.6406077 0.141632 0.726811
-9.754509 416.135 -28.19985 -0.4684078 -0.6084537 -0.6406077 0.124247 0.717022
-9.754509 416.135 -28.19985 0 0 -1 0.124247 0.967022
0.005500793 397.076 -17.23475 0.6765762 -0.6101351 -0.4122861 0.119651 0.709132
0.005500793 401.342 -23.54845 0.6765762 -0.6101351 -0.4122861 0.119651 0.71081
13.0355 418.934 -28.19985 0.6765762 -0.6101351 -0.4122861 0.113516 0.718119
13.33849 343.8981 -2.690549 -0.0003109999 0.4545099 -0.8907417 0.113273 0.915526
45.2945 325.168 -12.25905 -0.0003109999 0.4545099 -0.8907417 0.098216 0.907064
-37.1715 315.361 -17.23475 -0.0003109999 0.4545099 -0.8907417 0.137071 0.90208
3 0 1 2 
3 3 4 5 
3 6 7 8 
3 9 10 11 
3 12 13 14 
3 15 16 17 
3 18 19 20 
3 21 22 23 
3 24 25 26 
3 27 28 29 
3 30 31 32 
3 33 34 35 
3 36 37 38 
3 39 40 41 
3 42 43 44 
3 45 46 47 
3 48 49 50 
3 51 52 53 
3 54 55 56 
3 57 58 59 
3 60 61 62 
3 63 64 65 
3 56 66 54 
3 67 68 69 
3 70 71 72 
3 73 74 75 
3 76 77 78 
3 79 80 81 
3 82 83 84 
3 85 86 87 
3 88 89 90 
3 91 92 93 
3 94 95 96 
3 97 98 99 
3 100 101 102 
3 103 104 105 
3 106 107 108 
3 108 107 109 
3 110 111 103 
3 112 113 114 
3 115 116 117 
3 118 119 120 
3 121 122 123 
3 124 125 126 
3 127 128 129 
3 130 131 132 
3 133 134 135 
3 136 137 138 
3 139 140 141 
3 142 143 144 
3 145 146 147 
3 148 149 150 
3 151 152 153 
3 154 155 156 
3 157 158 159 
3 160 161 162 
3 163 164 165 
3 166 167 168 
3 169 170 171 
3 172 173 174 
3 175 176 172 
3 177 178 179 
3 180 181 152 
3 182 183 184 
3 185 186 187 
3 188 189 190 
3 191 192 189 
3 173 193 174 
3 194 195 193 
3 193 196 174 
3 197 198 199 
3 200 201 175 
3 202 203 204 
3 179 205 177 
3 161 160 206 
3 207 208 209 
3 210 211 212 
3 213 214 215 
3 216 217 218 
3 219 161 206 
3 159 158 220 
3 221 222 219 
3 223 224 225 
3 226 227 228 
3 229 230 231 
3 232 233 234 
3 197 235 198 
3 202 236 203 
3 158 219 222 
3 220 158 222 
3 237 238 239 
3 240 241 242 
3 243 9 244 
3 245 235 197 
3 246 247 248 
3 249 250 251 
3 252 253 254 
3 255 256 257 
3 178 258 201 
3 258 175 201 
3 259 260 261 
3 262 263 264 
3 265 266 267 
3 268 269 270 
3 271 272 273 
3 274 275 276 
3 277 278 279 
3 280 281 282 
3 283 284 285 
3 286 287 288 
3 289 290 287 
3 291 292 293 
3 294 295 296 
3 297 298 299 
3 300 301 302 
3 303 304 305 
3 306 73 75 
3 307 308 309 
3 310 311 312 
3 313 314 315 
3 316 188 190 
3 164 317 165 
3 318 319 320 
3 321 322 323 
3 6 324 7 
3 325 326 327 
3 18 328 19 
3 329 330 331 
3 27 332 28 
3 33 333 34 
3 36 334 37 
3 39 335 40 
3 42 336 43 
3 45 337 46 
3 48 338 49 
3 51 339 52 
3 54 340 55 
3 341 342 343 
3 344 345 346 
3 63 347 64 
3 348 349 350 
3 70 351 71 
3 73 352 74 
3 79 353 80 
3 354 355 356 
3 357 358 359 
3 94 360 95 
3 361 362 363 
3 100 364 101 
3 103 365 104 
3 106 366 107 
3 110 367 111 
3 368 369 370 
3 371 372 373 
3 374 375 376 
3 377 378 379 
3 380 381 382 
3 383 384 385 
3 130 386 131 
3 133 387 134 
3 136 388 137 
3 139 133 140 
3 389 390 391 
3 392 393 394 
3 148 395 149 
3 151 180 152 
3 154 396 155 
3 397 398 399 
3 400 401 402 
3 175 403 176 
3 180 404 181 
3 182 405 183 
3 185 406 186 
3 188 191 189 
3 173 194 193 
3 194 407 195 
3 200 249 201 
3 179 408 205 
3 409 410 411 
3 252 254 412 
3 413 414 415 
3 221 416 222 
3 417 418 419 
3 420 421 422 
3 423 424 425 
3 202 263 236 
3 158 161 219 
3 243 10 9 
3 245 426 235 
3 427 428 429 
3 249 200 250 
3 430 431 432 
3 258 403 175 
3 262 236 263 
3 265 433 266 
3 434 435 436 
3 437 438 439 
3 440 441 442 
3 286 289 287 
3 289 443 290 
3 444 294 296 
3 445 446 447 
3 448 449 450 
3 306 451 73 
3 452 453 454 
3 455 456 457 
